<svg class="main-svg" xmlns="http://www.w3.org/2000/svg" xmlns:xlink="http://www.w3.org/1999/xlink" width="600" height="400" style="" viewBox="0 0 600 400"><rect x="0" y="0" width="600" height="400" style="fill: rgb(255, 255, 255); fill-opacity: 1;"/><defs id="defs-84fe4a"><g class="clips"><clipPath id="clip84fe4axyplot" class="plotclip"><rect width="428" height="220"/></clipPath><clipPath class="axesclip" id="clip84fe4ax"><rect x="80" y="0" width="428" height="400"/></clipPath><clipPath class="axesclip" id="clip84fe4ay"><rect x="0" y="100" width="600" height="220"/></clipPath><clipPath class="axesclip" id="clip84fe4axy"><rect x="80" y="100" width="428" height="220"/></clipPath></g><g class="gradients"/><g class="patterns"/></defs><g class="bglayer"/><g class="layer-below"><g class="imagelayer"/><g class="shapelayer"/></g><g class="cartesianlayer"><g class="subplot xy"><g class="layer-subplot"><g class="shapelayer"/><g class="imagelayer"/></g><g class="gridlayer"><g class="x"/><g class="y"><path class="ygrid crisp" transform="translate(0,285.86)" d="M80,0h428" style="stroke: rgb(235, 240, 248); stroke-opacity: 1; stroke-width: 1px;"/><path class="ygrid crisp" transform="translate(0,247.12)" d="M80,0h428" style="stroke: rgb(235, 240, 248); stroke-opacity: 1; stroke-width: 1px;"/><path class="ygrid crisp" transform="translate(0,208.38)" d="M80,0h428" style="stroke: rgb(235, 240, 248); stroke-opacity: 1; stroke-width: 1px;"/><path class="ygrid crisp" transform="translate(0,169.64)" d="M80,0h428" style="stroke: rgb(235, 240, 248); stroke-opacity: 1; stroke-width: 1px;"/><path class="ygrid crisp" transform="translate(0,130.9)" d="M80,0h428" style="stroke: rgb(235, 240, 248); stroke-opacity: 1; stroke-width: 1px;"/></g></g><g class="zerolinelayer"/><path class="xlines-below"/><path class="ylines-below"/><g class="overlines-below"/><g class="xaxislayer-below"/><g class="yaxislayer-below"/><g class="overaxes-below"/><g class="plot" transform="translate(80,100)" clip-path="url(#clip84fe4axyplot)"><g class="boxlayer mlayer"><g class="trace boxes" style="opacity: 1;"><path class="box" d="M28.89,129.58H63.84M28.89,151.6H63.84V112.65H28.89ZM46.37,151.6V188.29M46.37,112.65V57.22M37.63,188.29H55.11M37.63,57.22H55.11" style="vector-effect: non-scaling-stroke; stroke-width: 2px; stroke: rgb(99, 110, 250); stroke-opacity: 1; fill: rgb(99, 110, 250); fill-opacity: 0.5;"/><path class="box" d="M171.56,152.52H206.51M171.56,173.17H206.51V127.13H171.56ZM189.03,173.17V209M189.03,127.13V106.37M180.29,209H197.77M180.29,106.37H197.77" style="vector-effect: non-scaling-stroke; stroke-width: 2px; stroke: rgb(99, 110, 250); stroke-opacity: 1; fill: rgb(99, 110, 250); fill-opacity: 0.5;"/><path class="box" d="M314.22,191.59H349.18M314.22,203.15H349.18V189.14H314.22ZM331.7,203.15V207.01M331.7,189.14V188.32M322.96,207.01H340.44M322.96,188.32H340.44" style="vector-effect: non-scaling-stroke; stroke-width: 2px; stroke: rgb(99, 110, 250); stroke-opacity: 1; fill: rgb(99, 110, 250); fill-opacity: 0.5;"/><g class="points"/><g class="points"/><g class="points"/></g><g class="trace boxes" style="opacity: 1;"><path class="box" d="M78.82,80.44H113.78M78.82,105.39H113.78V49.42H78.82ZM96.3,105.39V159.32M96.3,49.42V11M87.56,159.32H105.04M87.56,11H105.04" style="vector-effect: non-scaling-stroke; stroke-width: 2px; stroke: rgb(239, 85, 59); stroke-opacity: 1; fill: rgb(239, 85, 59); fill-opacity: 0.5;"/><path class="box" d="M221.49,115.72H256.44M221.49,137.14H256.44V76.72H221.49ZM238.97,137.14V148.26M238.97,76.72V44.69M230.23,148.26H247.71M230.23,44.69H247.71" style="vector-effect: non-scaling-stroke; stroke-width: 2px; stroke: rgb(239, 85, 59); stroke-opacity: 1; fill: rgb(239, 85, 59); fill-opacity: 0.5;"/><path class="box" d="M364.16,145.78H399.11M364.16,150.61H399.11V130.38H364.16ZM381.63,150.61V151.44M381.63,130.38V114.76M372.9,151.44H390.37M372.9,114.76H390.37" style="vector-effect: non-scaling-stroke; stroke-width: 2px; stroke: rgb(239, 85, 59); stroke-opacity: 1; fill: rgb(239, 85, 59); fill-opacity: 0.5;"/><g class="points"/><g class="points"/><g class="points"/></g></g></g><g class="overplot"/><path class="xlines-above crisp" d="M0,0" style="fill: none;"/><path class="ylines-above crisp" d="M0,0" style="fill: none;"/><g class="overlines-above"/><g class="xaxislayer-above"><g class="xtick"><text text-anchor="middle" x="0" y="333" transform="translate(151.32999999999998,0)" style="font-family: 'Open Sans', verdana, arial, sans-serif; font-size: 12px; fill: rgb(42, 63, 95); fill-opacity: 1; white-space: pre; opacity: 1;">0</text></g><g class="xtick"><text text-anchor="middle" x="0" y="333" style="font-family: 'Open Sans', verdana, arial, sans-serif; font-size: 12px; fill: rgb(42, 63, 95); fill-opacity: 1; white-space: pre; opacity: 1;" transform="translate(294,0)">1</text></g><g class="xtick"><text text-anchor="middle" x="0" y="333" style="font-family: 'Open Sans', verdana, arial, sans-serif; font-size: 12px; fill: rgb(42, 63, 95); fill-opacity: 1; white-space: pre; opacity: 1;" transform="translate(436.67,0)">2</text></g></g><g class="yaxislayer-above"><g class="ytick"><text text-anchor="end" x="79" y="4.199999999999999" transform="translate(0,285.86)" style="font-family: 'Open Sans', verdana, arial, sans-serif; font-size: 12px; fill: rgb(42, 63, 95); fill-opacity: 1; white-space: pre; opacity: 1;">400</text></g><g class="ytick"><text text-anchor="end" x="79" y="4.199999999999999" style="font-family: 'Open Sans', verdana, arial, sans-serif; font-size: 12px; fill: rgb(42, 63, 95); fill-opacity: 1; white-space: pre; opacity: 1;" transform="translate(0,247.12)">600</text></g><g class="ytick"><text text-anchor="end" x="79" y="4.199999999999999" style="font-family: 'Open Sans', verdana, arial, sans-serif; font-size: 12px; fill: rgb(42, 63, 95); fill-opacity: 1; white-space: pre; opacity: 1;" transform="translate(0,208.38)">800</text></g><g class="ytick"><text text-anchor="end" x="79" y="4.199999999999999" style="font-family: 'Open Sans', verdana, arial, sans-serif; font-size: 12px; fill: rgb(42, 63, 95); fill-opacity: 1; white-space: pre; opacity: 1;" transform="translate(0,169.64)">1000</text></g><g class="ytick"><text text-anchor="end" x="79" y="4.199999999999999" style="font-family: 'Open Sans', verdana, arial, sans-serif; font-size: 12px; fill: rgb(42, 63, 95); fill-opacity: 1; white-space: pre; opacity: 1;" transform="translate(0,130.9)">1200</text></g></g><g class="overaxes-above"/></g></g><g class="polarlayer"/><g class="smithlayer"/><g class="ternarylayer"/><g class="geolayer"/><g class="funnelarealayer"/><g class="pielayer"/><g class="iciclelayer"/><g class="treemaplayer"/><g class="sunburstlayer"/><g class="glimages"/><defs id="topdefs-84fe4a"><g class="clips"/><clipPath id="legend84fe4a"><rect width="71" height="67" x="0" y="0"/></clipPath></defs><g class="layer-above"><g class="imagelayer"/><g class="shapelayer"/></g><g class="infolayer"><g class="legend" pointer-events="all" transform="translate(516.56,100)"><rect class="bg" shape-rendering="crispEdges" width="71" height="67" x="0" y="0" style="stroke: rgb(68, 68, 68); stroke-opacity: 1; fill: rgb(255, 255, 255); fill-opacity: 1; stroke-width: 0px;"/><g class="scrollbox" transform="" clip-path="url(#legend84fe4a)"><text class="legendtitletext" text-anchor="start" x="2" y="18.2" style="font-family: 'Open Sans', verdana, arial, sans-serif; font-size: 14px; fill: rgb(42, 63, 95); fill-opacity: 1; white-space: pre;">cell_type</text><g class="groups" transform=""><g class="traces" transform="translate(0,32.7)" style="opacity: 1;"><text class="legendtext" text-anchor="start" x="40" y="4.680000000000001" style="font-family: 'Open Sans', verdana, arial, sans-serif; font-size: 12px; fill: rgb(42, 63, 95); fill-opacity: 1; white-space: pre;">CD4</text><g class="layers" style="opacity: 1;"><g class="legendfill"/><g class="legendlines"/><g class="legendsymbols"><g class="legendpoints"><path class="legendbox" d="M6,6H-6V-6H6Z" transform="translate(20,0)" style="stroke-width: 2px; fill: rgb(99, 110, 250); fill-opacity: 0.5; stroke: rgb(99, 110, 250); stroke-opacity: 1;"/></g></g></g><rect class="legendtoggle" x="0" y="-9.5" width="65.265625" height="19" style="fill: rgb(0, 0, 0); fill-opacity: 0;"/></g></g><g class="groups" transform=""><g class="traces" transform="translate(0,51.7)" style="opacity: 1;"><text class="legendtext" text-anchor="start" x="40" y="4.680000000000001" style="font-family: 'Open Sans', verdana, arial, sans-serif; font-size: 12px; fill: rgb(42, 63, 95); fill-opacity: 1; white-space: pre;">CD8</text><g class="layers" style="opacity: 1;"><g class="legendfill"/><g class="legendlines"/><g class="legendsymbols"><g class="legendpoints"><path class="legendbox" d="M6,6H-6V-6H6Z" transform="translate(20,0)" style="stroke-width: 2px; fill: rgb(239, 85, 59); fill-opacity: 0.5; stroke: rgb(239, 85, 59); stroke-opacity: 1;"/></g></g></g><rect class="legendtoggle" x="0" y="-9.5" width="65.265625" height="19" style="fill: rgb(0, 0, 0); fill-opacity: 0;"/></g></g></g><rect class="scrollbar" rx="20" ry="3" width="0" height="0" x="0" y="0" style="fill: rgb(128, 139, 164); fill-opacity: 1;"/></g><g class="g-gtitle"><text class="gtitle" x="30" y="50" text-anchor="start" dy="0em" style="font-family: 'Open Sans', verdana, arial, sans-serif; font-size: 17px; fill: rgb(42, 63, 95); opacity: 1; font-weight: normal; white-space: pre;">peak height of chr2:110858286 by genotype of rs13401811</text></g><g class="g-xtitle"><text class="xtitle" x="294" y="360.8" text-anchor="middle" style="font-family: 'Open Sans', verdana, arial, sans-serif; font-size: 14px; fill: rgb(42, 63, 95); opacity: 1; font-weight: normal; white-space: pre;">genotype</text></g><g class="g-ytitle"><text class="ytitle" transform="rotate(-90,23.653125000000003,210)" x="23.653125000000003" y="210" text-anchor="middle" style="font-family: 'Open Sans', verdana, arial, sans-serif; font-size: 14px; fill: rgb(42, 63, 95); opacity: 1; font-weight: normal; white-space: pre;">peak_height</text></g></g></svg>