<svg class="main-svg" xmlns="http://www.w3.org/2000/svg" xmlns:xlink="http://www.w3.org/1999/xlink" width="600" height="400" style="" viewBox="0 0 600 400"><rect x="0" y="0" width="600" height="400" style="fill: rgb(255, 255, 255); fill-opacity: 1;"/><defs id="defs-b189f4"><g class="clips"><clipPath id="clipb189f4xyplot" class="plotclip"><rect width="428" height="220"/></clipPath><clipPath class="axesclip" id="clipb189f4x"><rect x="80" y="0" width="428" height="400"/></clipPath><clipPath class="axesclip" id="clipb189f4y"><rect x="0" y="100" width="600" height="220"/></clipPath><clipPath class="axesclip" id="clipb189f4xy"><rect x="80" y="100" width="428" height="220"/></clipPath></g><g class="gradients"/><g class="patterns"/></defs><g class="bglayer"/><g class="layer-below"><g class="imagelayer"/><g class="shapelayer"/></g><g class="cartesianlayer"><g class="subplot xy"><g class="layer-subplot"><g class="shapelayer"/><g class="imagelayer"/></g><g class="gridlayer"><g class="x"/><g class="y"><path class="ygrid crisp" transform="translate(0,260.81)" d="M80,0h428" style="stroke: rgb(235, 240, 248); stroke-opacity: 1; stroke-width: 1px;"/><path class="ygrid crisp" transform="translate(0,212.1)" d="M80,0h428" style="stroke: rgb(235, 240, 248); stroke-opacity: 1; stroke-width: 1px;"/><path class="ygrid crisp" transform="translate(0,163.4)" d="M80,0h428" style="stroke: rgb(235, 240, 248); stroke-opacity: 1; stroke-width: 1px;"/><path class="ygrid crisp" transform="translate(0,114.69)" d="M80,0h428" style="stroke: rgb(235, 240, 248); stroke-opacity: 1; stroke-width: 1px;"/></g></g><g class="zerolinelayer"><path class="yzl zl crisp" transform="translate(0,309.51)" d="M80,0h428" style="stroke: rgb(235, 240, 248); stroke-opacity: 1; stroke-width: 2px;"/></g><path class="xlines-below"/><path class="ylines-below"/><g class="overlines-below"/><g class="xaxislayer-below"/><g class="yaxislayer-below"/><g class="overaxes-below"/><g class="plot" transform="translate(80,100)" clip-path="url(#clipb189f4xyplot)"><g class="boxlayer mlayer"><g class="trace boxes" style="opacity: 1;"><path class="box" d="M31.49,192.55H65.95M31.49,197.83H65.95V183.05H31.49ZM48.72,197.83V206.2M48.72,183.05V166.2M40.1,206.2H57.33M40.1,166.2H57.33" style="vector-effect: non-scaling-stroke; stroke-width: 2px; stroke: rgb(99, 110, 250); stroke-opacity: 1; fill: rgb(99, 110, 250); fill-opacity: 0.5;"/><path class="box" d="M172.15,109.38H206.62M172.15,124.33H206.62V93.72H172.15ZM189.38,124.33V165.88M189.38,93.72V88.26M180.77,165.88H198M180.77,88.26H198" style="vector-effect: non-scaling-stroke; stroke-width: 2px; stroke: rgb(99, 110, 250); stroke-opacity: 1; fill: rgb(99, 110, 250); fill-opacity: 0.5;"/><path class="box" d="M312.82,62.69H347.28M312.82,92.9H347.28V37.94H312.82ZM330.05,92.9V92.9M330.05,37.94V11M321.43,92.9H338.67M321.43,11H338.67" style="vector-effect: non-scaling-stroke; stroke-width: 2px; stroke: rgb(99, 110, 250); stroke-opacity: 1; fill: rgb(99, 110, 250); fill-opacity: 0.5;"/><g class="points"><path class="point" transform="translate(48.72,158.74)" d="M3,0A3,3 0 1,1 0,-3A3,3 0 0,1 3,0Z" style="opacity: 1; stroke-width: 0px; fill: rgb(99, 110, 250); fill-opacity: 1;"/></g><g class="points"><path class="point" transform="translate(189.38,32.04)" d="M3,0A3,3 0 1,1 0,-3A3,3 0 0,1 3,0Z" style="opacity: 1; stroke-width: 0px; fill: rgb(99, 110, 250); fill-opacity: 1;"/></g><g class="points"><path class="point" transform="translate(330.05,178.75)" d="M3,0A3,3 0 1,1 0,-3A3,3 0 0,1 3,0Z" style="opacity: 1; stroke-width: 0px; fill: rgb(99, 110, 250); fill-opacity: 1;"/></g></g><g class="trace boxes" style="opacity: 1;"><path class="box" d="M80.72,198.91H115.18M80.72,203.74H115.18V194.27H80.72ZM97.95,203.74V209M97.95,194.27V187.45M89.33,209H106.57M89.33,187.45H106.57" style="vector-effect: non-scaling-stroke; stroke-width: 2px; stroke: rgb(239, 85, 59); stroke-opacity: 1; fill: rgb(239, 85, 59); fill-opacity: 0.5;"/><path class="box" d="M221.39,138.41H255.85M221.39,145.32H255.85V131.68H221.39ZM238.62,145.32V162.03M238.62,131.68V116.79M230,162.03H247.23M230,116.79H247.23" style="vector-effect: non-scaling-stroke; stroke-width: 2px; stroke: rgb(239, 85, 59); stroke-opacity: 1; fill: rgb(239, 85, 59); fill-opacity: 0.5;"/><path class="box" d="M362.05,84.67H396.52M362.05,122.57H396.52V71.14H362.05ZM379.28,122.57V165.07M379.28,71.14V70.97M370.67,165.07H387.9M370.67,70.97H387.9" style="vector-effect: non-scaling-stroke; stroke-width: 2px; stroke: rgb(239, 85, 59); stroke-opacity: 1; fill: rgb(239, 85, 59); fill-opacity: 0.5;"/><g class="points"/><g class="points"><path class="point" transform="translate(238.62,104.31)" d="M3,0A3,3 0 1,1 0,-3A3,3 0 0,1 3,0Z" style="opacity: 1; stroke-width: 0px; fill: rgb(239, 85, 59); fill-opacity: 1;"/></g><g class="points"/></g></g></g><g class="overplot"/><path class="xlines-above crisp" d="M0,0" style="fill: none;"/><path class="ylines-above crisp" d="M0,0" style="fill: none;"/><g class="overlines-above"/><g class="xaxislayer-above"><g class="xtick"><text text-anchor="middle" x="0" y="333" transform="translate(153.32999999999998,0)" style="font-family: 'Open Sans', verdana, arial, sans-serif; font-size: 12px; fill: rgb(42, 63, 95); fill-opacity: 1; white-space: pre; opacity: 1;">0</text></g><g class="xtick"><text text-anchor="middle" x="0" y="333" style="font-family: 'Open Sans', verdana, arial, sans-serif; font-size: 12px; fill: rgb(42, 63, 95); fill-opacity: 1; white-space: pre; opacity: 1;" transform="translate(294,0)">1</text></g><g class="xtick"><text text-anchor="middle" x="0" y="333" style="font-family: 'Open Sans', verdana, arial, sans-serif; font-size: 12px; fill: rgb(42, 63, 95); fill-opacity: 1; white-space: pre; opacity: 1;" transform="translate(434.67,0)">2</text></g></g><g class="yaxislayer-above"><g class="ytick"><text text-anchor="end" x="79" y="4.199999999999999" transform="translate(0,309.51)" style="font-family: 'Open Sans', verdana, arial, sans-serif; font-size: 12px; fill: rgb(42, 63, 95); fill-opacity: 1; white-space: pre; opacity: 1;">0</text></g><g class="ytick"><text text-anchor="end" x="79" y="4.199999999999999" style="font-family: 'Open Sans', verdana, arial, sans-serif; font-size: 12px; fill: rgb(42, 63, 95); fill-opacity: 1; white-space: pre; opacity: 1;" transform="translate(0,260.81)">500</text></g><g class="ytick"><text text-anchor="end" x="79" y="4.199999999999999" style="font-family: 'Open Sans', verdana, arial, sans-serif; font-size: 12px; fill: rgb(42, 63, 95); fill-opacity: 1; white-space: pre; opacity: 1;" transform="translate(0,212.1)">1000</text></g><g class="ytick"><text text-anchor="end" x="79" y="4.199999999999999" style="font-family: 'Open Sans', verdana, arial, sans-serif; font-size: 12px; fill: rgb(42, 63, 95); fill-opacity: 1; white-space: pre; opacity: 1;" transform="translate(0,163.4)">1500</text></g><g class="ytick"><text text-anchor="end" x="79" y="4.199999999999999" style="font-family: 'Open Sans', verdana, arial, sans-serif; font-size: 12px; fill: rgb(42, 63, 95); fill-opacity: 1; white-space: pre; opacity: 1;" transform="translate(0,114.69)">2000</text></g></g><g class="overaxes-above"/></g></g><g class="polarlayer"/><g class="smithlayer"/><g class="ternarylayer"/><g class="geolayer"/><g class="funnelarealayer"/><g class="pielayer"/><g class="iciclelayer"/><g class="treemaplayer"/><g class="sunburstlayer"/><g class="glimages"/><defs id="topdefs-b189f4"><g class="clips"/><clipPath id="legendb189f4"><rect width="71" height="67" x="0" y="0"/></clipPath></defs><g class="layer-above"><g class="imagelayer"/><g class="shapelayer"/></g><g class="infolayer"><g class="legend" pointer-events="all" transform="translate(516.56,100)"><rect class="bg" shape-rendering="crispEdges" width="71" height="67" x="0" y="0" style="stroke: rgb(68, 68, 68); stroke-opacity: 1; fill: rgb(255, 255, 255); fill-opacity: 1; stroke-width: 0px;"/><g class="scrollbox" transform="" clip-path="url(#legendb189f4)"><text class="legendtitletext" text-anchor="start" x="2" y="18.2" style="font-family: 'Open Sans', verdana, arial, sans-serif; font-size: 14px; fill: rgb(42, 63, 95); fill-opacity: 1; white-space: pre;">cell_type</text><g class="groups" transform=""><g class="traces" transform="translate(0,32.7)" style="opacity: 1;"><text class="legendtext" text-anchor="start" x="40" y="4.680000000000001" style="font-family: 'Open Sans', verdana, arial, sans-serif; font-size: 12px; fill: rgb(42, 63, 95); fill-opacity: 1; white-space: pre;">CD8</text><g class="layers" style="opacity: 1;"><g class="legendfill"/><g class="legendlines"/><g class="legendsymbols"><g class="legendpoints"><path class="legendbox" d="M6,6H-6V-6H6Z" transform="translate(20,0)" style="stroke-width: 2px; fill: rgb(99, 110, 250); fill-opacity: 0.5; stroke: rgb(99, 110, 250); stroke-opacity: 1;"/></g></g></g><rect class="legendtoggle" x="0" y="-9.5" width="65.265625" height="19" style="fill: rgb(0, 0, 0); fill-opacity: 0;"/></g></g><g class="groups" transform=""><g class="traces" transform="translate(0,51.7)" style="opacity: 1;"><text class="legendtext" text-anchor="start" x="40" y="4.680000000000001" style="font-family: 'Open Sans', verdana, arial, sans-serif; font-size: 12px; fill: rgb(42, 63, 95); fill-opacity: 1; white-space: pre;">CD4</text><g class="layers" style="opacity: 1;"><g class="legendfill"/><g class="legendlines"/><g class="legendsymbols"><g class="legendpoints"><path class="legendbox" d="M6,6H-6V-6H6Z" transform="translate(20,0)" style="stroke-width: 2px; fill: rgb(239, 85, 59); fill-opacity: 0.5; stroke: rgb(239, 85, 59); stroke-opacity: 1;"/></g></g></g><rect class="legendtoggle" x="0" y="-9.5" width="65.265625" height="19" style="fill: rgb(0, 0, 0); fill-opacity: 0;"/></g></g></g><rect class="scrollbar" rx="20" ry="3" width="0" height="0" x="0" y="0" style="fill: rgb(128, 139, 164); fill-opacity: 1;"/></g><g class="g-gtitle"><text class="gtitle" x="30" y="50" text-anchor="start" dy="0em" style="font-family: 'Open Sans', verdana, arial, sans-serif; font-size: 17px; fill: rgb(42, 63, 95); opacity: 1; font-weight: normal; white-space: pre;">expression of FADS2 by genotype of rs968567</text></g><g class="g-xtitle"><text class="xtitle" x="294" y="360.8" text-anchor="middle" style="font-family: 'Open Sans', verdana, arial, sans-serif; font-size: 14px; fill: rgb(42, 63, 95); opacity: 1; font-weight: normal; white-space: pre;">genotype</text></g><g class="g-ytitle"><text class="ytitle" transform="rotate(-90,23.653125000000003,210)" x="23.653125000000003" y="210" text-anchor="middle" style="font-family: 'Open Sans', verdana, arial, sans-serif; font-size: 14px; fill: rgb(42, 63, 95); opacity: 1; font-weight: normal; white-space: pre;">expression</text></g></g></svg>