<svg class="main-svg" xmlns="http://www.w3.org/2000/svg" xmlns:xlink="http://www.w3.org/1999/xlink" width="500" height="600" style="" viewBox="0 0 500 600"><rect x="0" y="0" width="500" height="600" style="fill: rgb(255, 255, 255); fill-opacity: 1;"/><defs id="defs-ab8e3b"><g class="clips"><clipPath id="clipab8e3bxyplot" class="plotclip"><rect width="340" height="420"/></clipPath><clipPath class="axesclip" id="clipab8e3bx"><rect x="80" y="0" width="340" height="600"/></clipPath><clipPath class="axesclip" id="clipab8e3by"><rect x="0" y="100" width="500" height="420"/></clipPath><clipPath class="axesclip" id="clipab8e3bxy"><rect x="80" y="100" width="340" height="420"/></clipPath></g><g class="gradients"/><g class="patterns"/></defs><g class="bglayer"><rect class="bg" x="80" y="100" width="340" height="420" style="fill: rgb(229, 236, 246); fill-opacity: 1; stroke-width: 0;"/></g><g class="layer-below"><g class="imagelayer"/><g class="shapelayer"/></g><g class="cartesianlayer"><g class="subplot xy"><g class="layer-subplot"><g class="shapelayer"/><g class="imagelayer"/></g><g class="minor-gridlayer"><g class="x"/><g class="y"/></g><g class="gridlayer"><g class="x"/><g class="y"><path class="ygrid crisp" transform="translate(0,452.91)" d="M80,0h340" style="stroke: rgb(255, 255, 255); stroke-opacity: 1; stroke-width: 1px;"/><path class="ygrid crisp" transform="translate(0,406.77)" d="M80,0h340" style="stroke: rgb(255, 255, 255); stroke-opacity: 1; stroke-width: 1px;"/><path class="ygrid crisp" transform="translate(0,360.63)" d="M80,0h340" style="stroke: rgb(255, 255, 255); stroke-opacity: 1; stroke-width: 1px;"/><path class="ygrid crisp" transform="translate(0,314.49)" d="M80,0h340" style="stroke: rgb(255, 255, 255); stroke-opacity: 1; stroke-width: 1px;"/><path class="ygrid crisp" transform="translate(0,268.35)" d="M80,0h340" style="stroke: rgb(255, 255, 255); stroke-opacity: 1; stroke-width: 1px;"/><path class="ygrid crisp" transform="translate(0,222.20999999999998)" d="M80,0h340" style="stroke: rgb(255, 255, 255); stroke-opacity: 1; stroke-width: 1px;"/><path class="ygrid crisp" transform="translate(0,176.07)" d="M80,0h340" style="stroke: rgb(255, 255, 255); stroke-opacity: 1; stroke-width: 1px;"/><path class="ygrid crisp" transform="translate(0,129.93)" d="M80,0h340" style="stroke: rgb(255, 255, 255); stroke-opacity: 1; stroke-width: 1px;"/></g></g><g class="zerolinelayer"><path class="yzl zl crisp" transform="translate(0,499.06)" d="M80,0h340" style="stroke: rgb(255, 255, 255); stroke-opacity: 1; stroke-width: 2px;"/></g><path class="xlines-below"/><path class="ylines-below"/><g class="overlines-below"/><g class="xaxislayer-below"/><g class="yaxislayer-below"/><g class="overaxes-below"/><g class="plot" transform="translate(80,100)" clip-path="url(#clipab8e3bxyplot)"><g class="boxlayer mlayer"><g class="trace boxes" style="opacity: 1;"><path class="box" d="M34.71,398.27H61.82M34.71,398.62H61.82V397.35H34.71ZM48.27,398.62V398.99M48.27,397.35V396.37M41.49,398.99H55.05M41.49,396.37H55.05" style="vector-effect: none; stroke-width: 2px; stroke: rgb(255, 255, 255); stroke-opacity: 0; fill: rgb(255, 255, 255); fill-opacity: 0;"/><path class="box" d="M200.71,66.48H227.82M200.71,89.92H227.82V52.95H200.71ZM214.27,89.92V124.57M214.27,52.95V22.72M207.49,124.57H221.05M207.49,22.72H221.05" style="vector-effect: none; stroke-width: 2px; stroke: rgb(255, 255, 255); stroke-opacity: 0; fill: rgb(255, 255, 255); fill-opacity: 0;"/><g class="points"><path class="point" transform="translate(50.27,398.99)" d="M4,0A4,4 0 1,1 0,-4A4,4 0 0,1 4,0Z" style="opacity: 0.8; stroke-width: 1px; fill: rgb(0, 204, 150); fill-opacity: 1; stroke: rgb(47, 79, 79); stroke-opacity: 1;"/><path class="point" transform="translate(45.78,398.74)" d="M4,0A4,4 0 1,1 0,-4A4,4 0 0,1 4,0Z" style="opacity: 0.8; stroke-width: 1px; fill: rgb(0, 204, 150); fill-opacity: 1; stroke: rgb(47, 79, 79); stroke-opacity: 1;"/><path class="point" transform="translate(51.26,398.72)" d="M4,0A4,4 0 1,1 0,-4A4,4 0 0,1 4,0Z" style="opacity: 0.8; stroke-width: 1px; fill: rgb(0, 204, 150); fill-opacity: 1; stroke: rgb(47, 79, 79); stroke-opacity: 1;"/><path class="point" transform="translate(45.11,398.67)" d="M4,0A4,4 0 1,1 0,-4A4,4 0 0,1 4,0Z" style="opacity: 0.8; stroke-width: 1px; fill: rgb(0, 204, 150); fill-opacity: 1; stroke: rgb(47, 79, 79); stroke-opacity: 1;"/><path class="point" transform="translate(47.29,398.65)" d="M4,0A4,4 0 1,1 0,-4A4,4 0 0,1 4,0Z" style="opacity: 0.8; stroke-width: 1px; fill: rgb(0, 204, 150); fill-opacity: 1; stroke: rgb(47, 79, 79); stroke-opacity: 1;"/><path class="point" transform="translate(50.36,398.59)" d="M4,0A4,4 0 1,1 0,-4A4,4 0 0,1 4,0Z" style="opacity: 0.8; stroke-width: 1px; fill: rgb(0, 204, 150); fill-opacity: 1; stroke: rgb(47, 79, 79); stroke-opacity: 1;"/><path class="point" transform="translate(48.12,398.52)" d="M4,0A4,4 0 1,1 0,-4A4,4 0 0,1 4,0Z" style="opacity: 0.8; stroke-width: 1px; fill: rgb(0, 204, 150); fill-opacity: 1; stroke: rgb(47, 79, 79); stroke-opacity: 1;"/><path class="point" transform="translate(49.41,398.43)" d="M4,0A4,4 0 1,1 0,-4A4,4 0 0,1 4,0Z" style="opacity: 0.8; stroke-width: 1px; fill: rgb(0, 204, 150); fill-opacity: 1; stroke: rgb(47, 79, 79); stroke-opacity: 1;"/><path class="point" transform="translate(47.22,398.3)" d="M4,0A4,4 0 1,1 0,-4A4,4 0 0,1 4,0Z" style="opacity: 0.8; stroke-width: 1px; fill: rgb(0, 204, 150); fill-opacity: 1; stroke: rgb(47, 79, 79); stroke-opacity: 1;"/><path class="point" transform="translate(45.92,398.3)" d="M4,0A4,4 0 1,1 0,-4A4,4 0 0,1 4,0Z" style="opacity: 0.8; stroke-width: 1px; fill: rgb(0, 204, 150); fill-opacity: 1; stroke: rgb(47, 79, 79); stroke-opacity: 1;"/><path class="point" transform="translate(49.05,398.24)" d="M4,0A4,4 0 1,1 0,-4A4,4 0 0,1 4,0Z" style="opacity: 0.8; stroke-width: 1px; fill: rgb(0, 204, 150); fill-opacity: 1; stroke: rgb(47, 79, 79); stroke-opacity: 1;"/><path class="point" transform="translate(47.32,398.02)" d="M4,0A4,4 0 1,1 0,-4A4,4 0 0,1 4,0Z" style="opacity: 0.8; stroke-width: 1px; fill: rgb(0, 204, 150); fill-opacity: 1; stroke: rgb(47, 79, 79); stroke-opacity: 1;"/><path class="point" transform="translate(49.79,397.95)" d="M4,0A4,4 0 1,1 0,-4A4,4 0 0,1 4,0Z" style="opacity: 0.8; stroke-width: 1px; fill: rgb(0, 204, 150); fill-opacity: 1; stroke: rgb(47, 79, 79); stroke-opacity: 1;"/><path class="point" transform="translate(47.16,397.57)" d="M4,0A4,4 0 1,1 0,-4A4,4 0 0,1 4,0Z" style="opacity: 0.8; stroke-width: 1px; fill: rgb(0, 204, 150); fill-opacity: 1; stroke: rgb(47, 79, 79); stroke-opacity: 1;"/><path class="point" transform="translate(47.88,397.49)" d="M4,0A4,4 0 1,1 0,-4A4,4 0 0,1 4,0Z" style="opacity: 0.8; stroke-width: 1px; fill: rgb(0, 204, 150); fill-opacity: 1; stroke: rgb(47, 79, 79); stroke-opacity: 1;"/><path class="point" transform="translate(48.83,397.21)" d="M4,0A4,4 0 1,1 0,-4A4,4 0 0,1 4,0Z" style="opacity: 0.8; stroke-width: 1px; fill: rgb(0, 204, 150); fill-opacity: 1; stroke: rgb(47, 79, 79); stroke-opacity: 1;"/><path class="point" transform="translate(48.12,397.07)" d="M4,0A4,4 0 1,1 0,-4A4,4 0 0,1 4,0Z" style="opacity: 0.8; stroke-width: 1px; fill: rgb(0, 204, 150); fill-opacity: 1; stroke: rgb(47, 79, 79); stroke-opacity: 1;"/><path class="point" transform="translate(47.78,396.37)" d="M4,0A4,4 0 1,1 0,-4A4,4 0 0,1 4,0Z" style="opacity: 0.8; stroke-width: 1px; fill: rgb(0, 204, 150); fill-opacity: 1; stroke: rgb(47, 79, 79); stroke-opacity: 1;"/><path class="point" transform="translate(48.09,389.09)" d="M4,0A4,4 0 1,1 0,-4A4,4 0 0,1 4,0Z" style="opacity: 0.8; stroke-width: 1px; fill: rgb(0, 204, 150); fill-opacity: 1; stroke: rgb(47, 79, 79); stroke-opacity: 1;"/><path class="point" transform="translate(48.26,371.77)" d="M4,0A4,4 0 1,1 0,-4A4,4 0 0,1 4,0Z" style="opacity: 0.8; stroke-width: 1px; fill: rgb(0, 204, 150); fill-opacity: 1; stroke: rgb(47, 79, 79); stroke-opacity: 1;"/></g><g class="points"><path class="point" transform="translate(215.14,171.55)" d="M4,0A4,4 0 1,1 0,-4A4,4 0 0,1 4,0Z" style="opacity: 0.8; stroke-width: 1px; fill: rgb(0, 204, 150); fill-opacity: 1; stroke: rgb(47, 79, 79); stroke-opacity: 1;"/><path class="point" transform="translate(214.49,161.97)" d="M4,0A4,4 0 1,1 0,-4A4,4 0 0,1 4,0Z" style="opacity: 0.8; stroke-width: 1px; fill: rgb(0, 204, 150); fill-opacity: 1; stroke: rgb(47, 79, 79); stroke-opacity: 1;"/><path class="point" transform="translate(213.65,124.57)" d="M4,0A4,4 0 1,1 0,-4A4,4 0 0,1 4,0Z" style="opacity: 0.8; stroke-width: 1px; fill: rgb(0, 204, 150); fill-opacity: 1; stroke: rgb(47, 79, 79); stroke-opacity: 1;"/><path class="point" transform="translate(212.41,97.84)" d="M4,0A4,4 0 1,1 0,-4A4,4 0 0,1 4,0Z" style="opacity: 0.8; stroke-width: 1px; fill: rgb(0, 204, 150); fill-opacity: 1; stroke: rgb(47, 79, 79); stroke-opacity: 1;"/><path class="point" transform="translate(214.26,90.63)" d="M4,0A4,4 0 1,1 0,-4A4,4 0 0,1 4,0Z" style="opacity: 0.8; stroke-width: 1px; fill: rgb(0, 204, 150); fill-opacity: 1; stroke: rgb(47, 79, 79); stroke-opacity: 1;"/><path class="point" transform="translate(213.56,87.79)" d="M4,0A4,4 0 1,1 0,-4A4,4 0 0,1 4,0Z" style="opacity: 0.8; stroke-width: 1px; fill: rgb(0, 204, 150); fill-opacity: 1; stroke: rgb(47, 79, 79); stroke-opacity: 1;"/><path class="point" transform="translate(215.43,82.02)" d="M4,0A4,4 0 1,1 0,-4A4,4 0 0,1 4,0Z" style="opacity: 0.8; stroke-width: 1px; fill: rgb(0, 204, 150); fill-opacity: 1; stroke: rgb(47, 79, 79); stroke-opacity: 1;"/><path class="point" transform="translate(213.99,79.71)" d="M4,0A4,4 0 1,1 0,-4A4,4 0 0,1 4,0Z" style="opacity: 0.8; stroke-width: 1px; fill: rgb(0, 204, 150); fill-opacity: 1; stroke: rgb(47, 79, 79); stroke-opacity: 1;"/><path class="point" transform="translate(211.81,69.63)" d="M4,0A4,4 0 1,1 0,-4A4,4 0 0,1 4,0Z" style="opacity: 0.8; stroke-width: 1px; fill: rgb(0, 204, 150); fill-opacity: 1; stroke: rgb(47, 79, 79); stroke-opacity: 1;"/><path class="point" transform="translate(210.47,66.48)" d="M4,0A4,4 0 1,1 0,-4A4,4 0 0,1 4,0Z" style="opacity: 0.8; stroke-width: 1px; fill: rgb(0, 204, 150); fill-opacity: 1; stroke: rgb(47, 79, 79); stroke-opacity: 1;"/><path class="point" transform="translate(216.37,65.16)" d="M4,0A4,4 0 1,1 0,-4A4,4 0 0,1 4,0Z" style="opacity: 0.8; stroke-width: 1px; fill: rgb(0, 204, 150); fill-opacity: 1; stroke: rgb(47, 79, 79); stroke-opacity: 1;"/><path class="point" transform="translate(211.2,61.15)" d="M4,0A4,4 0 1,1 0,-4A4,4 0 0,1 4,0Z" style="opacity: 0.8; stroke-width: 1px; fill: rgb(0, 204, 150); fill-opacity: 1; stroke: rgb(47, 79, 79); stroke-opacity: 1;"/><path class="point" transform="translate(216.42,59.99)" d="M4,0A4,4 0 1,1 0,-4A4,4 0 0,1 4,0Z" style="opacity: 0.8; stroke-width: 1px; fill: rgb(0, 204, 150); fill-opacity: 1; stroke: rgb(47, 79, 79); stroke-opacity: 1;"/><path class="point" transform="translate(215.06,53.33)" d="M4,0A4,4 0 1,1 0,-4A4,4 0 0,1 4,0Z" style="opacity: 0.8; stroke-width: 1px; fill: rgb(0, 204, 150); fill-opacity: 1; stroke: rgb(47, 79, 79); stroke-opacity: 1;"/><path class="point" transform="translate(213.2,52.83)" d="M4,0A4,4 0 1,1 0,-4A4,4 0 0,1 4,0Z" style="opacity: 0.8; stroke-width: 1px; fill: rgb(0, 204, 150); fill-opacity: 1; stroke: rgb(47, 79, 79); stroke-opacity: 1;"/><path class="point" transform="translate(212.23,42.84)" d="M4,0A4,4 0 1,1 0,-4A4,4 0 0,1 4,0Z" style="opacity: 0.8; stroke-width: 1px; fill: rgb(0, 204, 150); fill-opacity: 1; stroke: rgb(47, 79, 79); stroke-opacity: 1;"/><path class="point" transform="translate(215.79,33.48)" d="M4,0A4,4 0 1,1 0,-4A4,4 0 0,1 4,0Z" style="opacity: 0.8; stroke-width: 1px; fill: rgb(0, 204, 150); fill-opacity: 1; stroke: rgb(47, 79, 79); stroke-opacity: 1;"/><path class="point" transform="translate(213.93,32.24)" d="M4,0A4,4 0 1,1 0,-4A4,4 0 0,1 4,0Z" style="opacity: 0.8; stroke-width: 1px; fill: rgb(0, 204, 150); fill-opacity: 1; stroke: rgb(47, 79, 79); stroke-opacity: 1;"/><path class="point" transform="translate(216.46,22.72)" d="M4,0A4,4 0 1,1 0,-4A4,4 0 0,1 4,0Z" style="opacity: 0.8; stroke-width: 1px; fill: rgb(0, 204, 150); fill-opacity: 1; stroke: rgb(47, 79, 79); stroke-opacity: 1;"/></g></g><g class="trace boxes" style="opacity: 1;"><path class="box" d="M73.44,397.39H100.56M73.44,398.39H100.56V395.88H73.44ZM87,398.39V399M87,395.88V392.59M80.22,399H93.78M80.22,392.59H93.78" style="vector-effect: none; stroke-width: 2px; stroke: rgb(255, 255, 255); stroke-opacity: 0; fill: rgb(255, 255, 255); fill-opacity: 0;"/><path class="box" d="M239.44,76.12H266.56M239.44,103.2H266.56V50.92H239.44ZM253,103.2V151.43M253,50.92V21M246.22,151.43H259.78M246.22,21H259.78" style="vector-effect: none; stroke-width: 2px; stroke: rgb(255, 255, 255); stroke-opacity: 0; fill: rgb(255, 255, 255); fill-opacity: 0;"/><g class="points"><path class="point" transform="translate(89.11,399)" d="M4,0A4,4 0 1,1 0,-4A4,4 0 0,1 4,0Z" style="opacity: 0.8; stroke-width: 1px; fill: rgb(171, 99, 250); fill-opacity: 1; stroke: rgb(47, 79, 79); stroke-opacity: 1;"/><path class="point" transform="translate(84.41,398.92)" d="M4,0A4,4 0 1,1 0,-4A4,4 0 0,1 4,0Z" style="opacity: 0.8; stroke-width: 1px; fill: rgb(171, 99, 250); fill-opacity: 1; stroke: rgb(47, 79, 79); stroke-opacity: 1;"/><path class="point" transform="translate(90.15,398.83)" d="M4,0A4,4 0 1,1 0,-4A4,4 0 0,1 4,0Z" style="opacity: 0.8; stroke-width: 1px; fill: rgb(171, 99, 250); fill-opacity: 1; stroke: rgb(47, 79, 79); stroke-opacity: 1;"/><path class="point" transform="translate(83.56,398.7)" d="M4,0A4,4 0 1,1 0,-4A4,4 0 0,1 4,0Z" style="opacity: 0.8; stroke-width: 1px; fill: rgb(171, 99, 250); fill-opacity: 1; stroke: rgb(47, 79, 79); stroke-opacity: 1;"/><path class="point" transform="translate(86,398.56)" d="M4,0A4,4 0 1,1 0,-4A4,4 0 0,1 4,0Z" style="opacity: 0.8; stroke-width: 1px; fill: rgb(171, 99, 250); fill-opacity: 1; stroke: rgb(47, 79, 79); stroke-opacity: 1;"/><path class="point" transform="translate(89.14,398.53)" d="M4,0A4,4 0 1,1 0,-4A4,4 0 0,1 4,0Z" style="opacity: 0.8; stroke-width: 1px; fill: rgb(171, 99, 250); fill-opacity: 1; stroke: rgb(47, 79, 79); stroke-opacity: 1;"/><path class="point" transform="translate(86.85,398.5)" d="M4,0A4,4 0 1,1 0,-4A4,4 0 0,1 4,0Z" style="opacity: 0.8; stroke-width: 1px; fill: rgb(171, 99, 250); fill-opacity: 1; stroke: rgb(47, 79, 79); stroke-opacity: 1;"/><path class="point" transform="translate(88.18,398.47)" d="M4,0A4,4 0 1,1 0,-4A4,4 0 0,1 4,0Z" style="opacity: 0.8; stroke-width: 1px; fill: rgb(171, 99, 250); fill-opacity: 1; stroke: rgb(47, 79, 79); stroke-opacity: 1;"/><path class="point" transform="translate(85.7,398.47)" d="M4,0A4,4 0 1,1 0,-4A4,4 0 0,1 4,0Z" style="opacity: 0.8; stroke-width: 1px; fill: rgb(171, 99, 250); fill-opacity: 1; stroke: rgb(47, 79, 79); stroke-opacity: 1;"/><path class="point" transform="translate(84.02,398.42)" d="M4,0A4,4 0 1,1 0,-4A4,4 0 0,1 4,0Z" style="opacity: 0.8; stroke-width: 1px; fill: rgb(171, 99, 250); fill-opacity: 1; stroke: rgb(47, 79, 79); stroke-opacity: 1;"/><path class="point" transform="translate(88.09,398.42)" d="M4,0A4,4 0 1,1 0,-4A4,4 0 0,1 4,0Z" style="opacity: 0.8; stroke-width: 1px; fill: rgb(171, 99, 250); fill-opacity: 1; stroke: rgb(47, 79, 79); stroke-opacity: 1;"/><path class="point" transform="translate(85.66,398.39)" d="M4,0A4,4 0 1,1 0,-4A4,4 0 0,1 4,0Z" style="opacity: 0.8; stroke-width: 1px; fill: rgb(171, 99, 250); fill-opacity: 1; stroke: rgb(47, 79, 79); stroke-opacity: 1;"/><path class="point" transform="translate(89.58,398.38)" d="M4,0A4,4 0 1,1 0,-4A4,4 0 0,1 4,0Z" style="opacity: 0.8; stroke-width: 1px; fill: rgb(171, 99, 250); fill-opacity: 1; stroke: rgb(47, 79, 79); stroke-opacity: 1;"/><path class="point" transform="translate(83.04,398.36)" d="M4,0A4,4 0 1,1 0,-4A4,4 0 0,1 4,0Z" style="opacity: 0.8; stroke-width: 1px; fill: rgb(171, 99, 250); fill-opacity: 1; stroke: rgb(47, 79, 79); stroke-opacity: 1;"/><path class="point" transform="translate(84.65,398.34)" d="M4,0A4,4 0 1,1 0,-4A4,4 0 0,1 4,0Z" style="opacity: 0.8; stroke-width: 1px; fill: rgb(171, 99, 250); fill-opacity: 1; stroke: rgb(47, 79, 79); stroke-opacity: 1;"/><path class="point" transform="translate(90.6,398.26)" d="M4,0A4,4 0 1,1 0,-4A4,4 0 0,1 4,0Z" style="opacity: 0.8; stroke-width: 1px; fill: rgb(171, 99, 250); fill-opacity: 1; stroke: rgb(47, 79, 79); stroke-opacity: 1;"/><path class="point" transform="translate(85.98,398.25)" d="M4,0A4,4 0 1,1 0,-4A4,4 0 0,1 4,0Z" style="opacity: 0.8; stroke-width: 1px; fill: rgb(171, 99, 250); fill-opacity: 1; stroke: rgb(47, 79, 79); stroke-opacity: 1;"/><path class="point" transform="translate(83.51,398.21)" d="M4,0A4,4 0 1,1 0,-4A4,4 0 0,1 4,0Z" style="opacity: 0.8; stroke-width: 1px; fill: rgb(171, 99, 250); fill-opacity: 1; stroke: rgb(47, 79, 79); stroke-opacity: 1;"/><path class="point" transform="translate(85.66,398.21)" d="M4,0A4,4 0 1,1 0,-4A4,4 0 0,1 4,0Z" style="opacity: 0.8; stroke-width: 1px; fill: rgb(171, 99, 250); fill-opacity: 1; stroke: rgb(47, 79, 79); stroke-opacity: 1;"/><path class="point" transform="translate(86.91,398.2)" d="M4,0A4,4 0 1,1 0,-4A4,4 0 0,1 4,0Z" style="opacity: 0.8; stroke-width: 1px; fill: rgb(171, 99, 250); fill-opacity: 1; stroke: rgb(47, 79, 79); stroke-opacity: 1;"/><path class="point" transform="translate(88.83,398.15)" d="M4,0A4,4 0 1,1 0,-4A4,4 0 0,1 4,0Z" style="opacity: 0.8; stroke-width: 1px; fill: rgb(171, 99, 250); fill-opacity: 1; stroke: rgb(47, 79, 79); stroke-opacity: 1;"/><path class="point" transform="translate(87.45,398.15)" d="M4,0A4,4 0 1,1 0,-4A4,4 0 0,1 4,0Z" style="opacity: 0.8; stroke-width: 1px; fill: rgb(171, 99, 250); fill-opacity: 1; stroke: rgb(47, 79, 79); stroke-opacity: 1;"/><path class="point" transform="translate(85.85,398.07)" d="M4,0A4,4 0 1,1 0,-4A4,4 0 0,1 4,0Z" style="opacity: 0.8; stroke-width: 1px; fill: rgb(171, 99, 250); fill-opacity: 1; stroke: rgb(47, 79, 79); stroke-opacity: 1;"/><path class="point" transform="translate(83.6,398.02)" d="M4,0A4,4 0 1,1 0,-4A4,4 0 0,1 4,0Z" style="opacity: 0.8; stroke-width: 1px; fill: rgb(171, 99, 250); fill-opacity: 1; stroke: rgb(47, 79, 79); stroke-opacity: 1;"/><path class="point" transform="translate(86.99,397.99)" d="M4,0A4,4 0 1,1 0,-4A4,4 0 0,1 4,0Z" style="opacity: 0.8; stroke-width: 1px; fill: rgb(171, 99, 250); fill-opacity: 1; stroke: rgb(47, 79, 79); stroke-opacity: 1;"/><path class="point" transform="translate(85.81,397.96)" d="M4,0A4,4 0 1,1 0,-4A4,4 0 0,1 4,0Z" style="opacity: 0.8; stroke-width: 1px; fill: rgb(171, 99, 250); fill-opacity: 1; stroke: rgb(47, 79, 79); stroke-opacity: 1;"/><path class="point" transform="translate(88.89,397.81)" d="M4,0A4,4 0 1,1 0,-4A4,4 0 0,1 4,0Z" style="opacity: 0.8; stroke-width: 1px; fill: rgb(171, 99, 250); fill-opacity: 1; stroke: rgb(47, 79, 79); stroke-opacity: 1;"/><path class="point" transform="translate(86.64,397.71)" d="M4,0A4,4 0 1,1 0,-4A4,4 0 0,1 4,0Z" style="opacity: 0.8; stroke-width: 1px; fill: rgb(171, 99, 250); fill-opacity: 1; stroke: rgb(47, 79, 79); stroke-opacity: 1;"/><path class="point" transform="translate(84.34,397.68)" d="M4,0A4,4 0 1,1 0,-4A4,4 0 0,1 4,0Z" style="opacity: 0.8; stroke-width: 1px; fill: rgb(171, 99, 250); fill-opacity: 1; stroke: rgb(47, 79, 79); stroke-opacity: 1;"/><path class="point" transform="translate(84.02,397.62)" d="M4,0A4,4 0 1,1 0,-4A4,4 0 0,1 4,0Z" style="opacity: 0.8; stroke-width: 1px; fill: rgb(171, 99, 250); fill-opacity: 1; stroke: rgb(47, 79, 79); stroke-opacity: 1;"/><path class="point" transform="translate(88.78,397.43)" d="M4,0A4,4 0 1,1 0,-4A4,4 0 0,1 4,0Z" style="opacity: 0.8; stroke-width: 1px; fill: rgb(171, 99, 250); fill-opacity: 1; stroke: rgb(47, 79, 79); stroke-opacity: 1;"/><path class="point" transform="translate(84.38,397.29)" d="M4,0A4,4 0 1,1 0,-4A4,4 0 0,1 4,0Z" style="opacity: 0.8; stroke-width: 1px; fill: rgb(171, 99, 250); fill-opacity: 1; stroke: rgb(47, 79, 79); stroke-opacity: 1;"/><path class="point" transform="translate(88.72,397.24)" d="M4,0A4,4 0 1,1 0,-4A4,4 0 0,1 4,0Z" style="opacity: 0.8; stroke-width: 1px; fill: rgb(171, 99, 250); fill-opacity: 1; stroke: rgb(47, 79, 79); stroke-opacity: 1;"/><path class="point" transform="translate(87.53,397.04)" d="M4,0A4,4 0 1,1 0,-4A4,4 0 0,1 4,0Z" style="opacity: 0.8; stroke-width: 1px; fill: rgb(171, 99, 250); fill-opacity: 1; stroke: rgb(47, 79, 79); stroke-opacity: 1;"/><path class="point" transform="translate(86.37,395.88)" d="M4,0A4,4 0 1,1 0,-4A4,4 0 0,1 4,0Z" style="opacity: 0.8; stroke-width: 1px; fill: rgb(171, 99, 250); fill-opacity: 1; stroke: rgb(47, 79, 79); stroke-opacity: 1;"/><path class="point" transform="translate(85.76,395.81)" d="M4,0A4,4 0 1,1 0,-4A4,4 0 0,1 4,0Z" style="opacity: 0.8; stroke-width: 1px; fill: rgb(171, 99, 250); fill-opacity: 1; stroke: rgb(47, 79, 79); stroke-opacity: 1;"/><path class="point" transform="translate(87.63,395.54)" d="M4,0A4,4 0 1,1 0,-4A4,4 0 0,1 4,0Z" style="opacity: 0.8; stroke-width: 1px; fill: rgb(171, 99, 250); fill-opacity: 1; stroke: rgb(47, 79, 79); stroke-opacity: 1;"/><path class="point" transform="translate(86.89,395.16)" d="M4,0A4,4 0 1,1 0,-4A4,4 0 0,1 4,0Z" style="opacity: 0.8; stroke-width: 1px; fill: rgb(171, 99, 250); fill-opacity: 1; stroke: rgb(47, 79, 79); stroke-opacity: 1;"/><path class="point" transform="translate(87.61,394.11)" d="M4,0A4,4 0 1,1 0,-4A4,4 0 0,1 4,0Z" style="opacity: 0.8; stroke-width: 1px; fill: rgb(171, 99, 250); fill-opacity: 1; stroke: rgb(47, 79, 79); stroke-opacity: 1;"/><path class="point" transform="translate(86.47,392.89)" d="M4,0A4,4 0 1,1 0,-4A4,4 0 0,1 4,0Z" style="opacity: 0.8; stroke-width: 1px; fill: rgb(171, 99, 250); fill-opacity: 1; stroke: rgb(47, 79, 79); stroke-opacity: 1;"/><path class="point" transform="translate(87.26,392.59)" d="M4,0A4,4 0 1,1 0,-4A4,4 0 0,1 4,0Z" style="opacity: 0.8; stroke-width: 1px; fill: rgb(171, 99, 250); fill-opacity: 1; stroke: rgb(47, 79, 79); stroke-opacity: 1;"/><path class="point" transform="translate(86.97,386.42)" d="M4,0A4,4 0 1,1 0,-4A4,4 0 0,1 4,0Z" style="opacity: 0.8; stroke-width: 1px; fill: rgb(171, 99, 250); fill-opacity: 1; stroke: rgb(47, 79, 79); stroke-opacity: 1;"/><path class="point" transform="translate(86.85,376.43)" d="M4,0A4,4 0 1,1 0,-4A4,4 0 0,1 4,0Z" style="opacity: 0.8; stroke-width: 1px; fill: rgb(171, 99, 250); fill-opacity: 1; stroke: rgb(47, 79, 79); stroke-opacity: 1;"/><path class="point" transform="translate(86.66,369.69)" d="M4,0A4,4 0 1,1 0,-4A4,4 0 0,1 4,0Z" style="opacity: 0.8; stroke-width: 1px; fill: rgb(171, 99, 250); fill-opacity: 1; stroke: rgb(47, 79, 79); stroke-opacity: 1;"/><path class="point" transform="translate(86.87,341.34)" d="M4,0A4,4 0 1,1 0,-4A4,4 0 0,1 4,0Z" style="opacity: 0.8; stroke-width: 1px; fill: rgb(171, 99, 250); fill-opacity: 1; stroke: rgb(47, 79, 79); stroke-opacity: 1;"/><path class="point" transform="translate(87.2,269.69)" d="M4,0A4,4 0 1,1 0,-4A4,4 0 0,1 4,0Z" style="opacity: 0.8; stroke-width: 1px; fill: rgb(171, 99, 250); fill-opacity: 1; stroke: rgb(47, 79, 79); stroke-opacity: 1;"/></g><g class="points"><path class="point" transform="translate(252.41,151.43)" d="M4,0A4,4 0 1,1 0,-4A4,4 0 0,1 4,0Z" style="opacity: 0.8; stroke-width: 1px; fill: rgb(171, 99, 250); fill-opacity: 1; stroke: rgb(47, 79, 79); stroke-opacity: 1;"/><path class="point" transform="translate(251.23,147.62)" d="M4,0A4,4 0 1,1 0,-4A4,4 0 0,1 4,0Z" style="opacity: 0.8; stroke-width: 1px; fill: rgb(171, 99, 250); fill-opacity: 1; stroke: rgb(47, 79, 79); stroke-opacity: 1;"/><path class="point" transform="translate(254.04,141.63)" d="M4,0A4,4 0 1,1 0,-4A4,4 0 0,1 4,0Z" style="opacity: 0.8; stroke-width: 1px; fill: rgb(171, 99, 250); fill-opacity: 1; stroke: rgb(47, 79, 79); stroke-opacity: 1;"/><path class="point" transform="translate(251.82,140.63)" d="M4,0A4,4 0 1,1 0,-4A4,4 0 0,1 4,0Z" style="opacity: 0.8; stroke-width: 1px; fill: rgb(171, 99, 250); fill-opacity: 1; stroke: rgb(47, 79, 79); stroke-opacity: 1;"/><path class="point" transform="translate(253,127.7)" d="M4,0A4,4 0 1,1 0,-4A4,4 0 0,1 4,0Z" style="opacity: 0.8; stroke-width: 1px; fill: rgb(171, 99, 250); fill-opacity: 1; stroke: rgb(47, 79, 79); stroke-opacity: 1;"/><path class="point" transform="translate(253.93,126.76)" d="M4,0A4,4 0 1,1 0,-4A4,4 0 0,1 4,0Z" style="opacity: 0.8; stroke-width: 1px; fill: rgb(171, 99, 250); fill-opacity: 1; stroke: rgb(47, 79, 79); stroke-opacity: 1;"/><path class="point" transform="translate(250.83,116.16)" d="M4,0A4,4 0 1,1 0,-4A4,4 0 0,1 4,0Z" style="opacity: 0.8; stroke-width: 1px; fill: rgb(171, 99, 250); fill-opacity: 1; stroke: rgb(47, 79, 79); stroke-opacity: 1;"/><path class="point" transform="translate(255.19,105.02)" d="M4,0A4,4 0 1,1 0,-4A4,4 0 0,1 4,0Z" style="opacity: 0.8; stroke-width: 1px; fill: rgb(171, 99, 250); fill-opacity: 1; stroke: rgb(47, 79, 79); stroke-opacity: 1;"/><path class="point" transform="translate(253.92,101.39)" d="M4,0A4,4 0 1,1 0,-4A4,4 0 0,1 4,0Z" style="opacity: 0.8; stroke-width: 1px; fill: rgb(171, 99, 250); fill-opacity: 1; stroke: rgb(47, 79, 79); stroke-opacity: 1;"/><path class="point" transform="translate(250.84,87.48)" d="M4,0A4,4 0 1,1 0,-4A4,4 0 0,1 4,0Z" style="opacity: 0.8; stroke-width: 1px; fill: rgb(171, 99, 250); fill-opacity: 1; stroke: rgb(47, 79, 79); stroke-opacity: 1;"/><path class="point" transform="translate(254.95,86.99)" d="M4,0A4,4 0 1,1 0,-4A4,4 0 0,1 4,0Z" style="opacity: 0.8; stroke-width: 1px; fill: rgb(171, 99, 250); fill-opacity: 1; stroke: rgb(47, 79, 79); stroke-opacity: 1;"/><path class="point" transform="translate(250.98,86.68)" d="M4,0A4,4 0 1,1 0,-4A4,4 0 0,1 4,0Z" style="opacity: 0.8; stroke-width: 1px; fill: rgb(171, 99, 250); fill-opacity: 1; stroke: rgb(47, 79, 79); stroke-opacity: 1;"/><path class="point" transform="translate(252.62,85.88)" d="M4,0A4,4 0 1,1 0,-4A4,4 0 0,1 4,0Z" style="opacity: 0.8; stroke-width: 1px; fill: rgb(171, 99, 250); fill-opacity: 1; stroke: rgb(47, 79, 79); stroke-opacity: 1;"/><path class="point" transform="translate(253.38,78.42)" d="M4,0A4,4 0 1,1 0,-4A4,4 0 0,1 4,0Z" style="opacity: 0.8; stroke-width: 1px; fill: rgb(171, 99, 250); fill-opacity: 1; stroke: rgb(47, 79, 79); stroke-opacity: 1;"/><path class="point" transform="translate(251.31,76.85)" d="M4,0A4,4 0 1,1 0,-4A4,4 0 0,1 4,0Z" style="opacity: 0.8; stroke-width: 1px; fill: rgb(171, 99, 250); fill-opacity: 1; stroke: rgb(47, 79, 79); stroke-opacity: 1;"/><path class="point" transform="translate(255.29,76.48)" d="M4,0A4,4 0 1,1 0,-4A4,4 0 0,1 4,0Z" style="opacity: 0.8; stroke-width: 1px; fill: rgb(171, 99, 250); fill-opacity: 1; stroke: rgb(47, 79, 79); stroke-opacity: 1;"/><path class="point" transform="translate(250.77,75.76)" d="M4,0A4,4 0 1,1 0,-4A4,4 0 0,1 4,0Z" style="opacity: 0.8; stroke-width: 1px; fill: rgb(171, 99, 250); fill-opacity: 1; stroke: rgb(47, 79, 79); stroke-opacity: 1;"/><path class="point" transform="translate(254.26,74.14)" d="M4,0A4,4 0 1,1 0,-4A4,4 0 0,1 4,0Z" style="opacity: 0.8; stroke-width: 1px; fill: rgb(171, 99, 250); fill-opacity: 1; stroke: rgb(47, 79, 79); stroke-opacity: 1;"/><path class="point" transform="translate(255.44,69.27)" d="M4,0A4,4 0 1,1 0,-4A4,4 0 0,1 4,0Z" style="opacity: 0.8; stroke-width: 1px; fill: rgb(171, 99, 250); fill-opacity: 1; stroke: rgb(47, 79, 79); stroke-opacity: 1;"/><path class="point" transform="translate(249.79,69.07)" d="M4,0A4,4 0 1,1 0,-4A4,4 0 0,1 4,0Z" style="opacity: 0.8; stroke-width: 1px; fill: rgb(171, 99, 250); fill-opacity: 1; stroke: rgb(47, 79, 79); stroke-opacity: 1;"/><path class="point" transform="translate(251.14,63.38)" d="M4,0A4,4 0 1,1 0,-4A4,4 0 0,1 4,0Z" style="opacity: 0.8; stroke-width: 1px; fill: rgb(171, 99, 250); fill-opacity: 1; stroke: rgb(47, 79, 79); stroke-opacity: 1;"/><path class="point" transform="translate(254.7,62.79)" d="M4,0A4,4 0 1,1 0,-4A4,4 0 0,1 4,0Z" style="opacity: 0.8; stroke-width: 1px; fill: rgb(171, 99, 250); fill-opacity: 1; stroke: rgb(47, 79, 79); stroke-opacity: 1;"/><path class="point" transform="translate(252.16,58.49)" d="M4,0A4,4 0 1,1 0,-4A4,4 0 0,1 4,0Z" style="opacity: 0.8; stroke-width: 1px; fill: rgb(171, 99, 250); fill-opacity: 1; stroke: rgb(47, 79, 79); stroke-opacity: 1;"/><path class="point" transform="translate(253.26,51.05)" d="M4,0A4,4 0 1,1 0,-4A4,4 0 0,1 4,0Z" style="opacity: 0.8; stroke-width: 1px; fill: rgb(171, 99, 250); fill-opacity: 1; stroke: rgb(47, 79, 79); stroke-opacity: 1;"/><path class="point" transform="translate(255.7,50.8)" d="M4,0A4,4 0 1,1 0,-4A4,4 0 0,1 4,0Z" style="opacity: 0.8; stroke-width: 1px; fill: rgb(171, 99, 250); fill-opacity: 1; stroke: rgb(47, 79, 79); stroke-opacity: 1;"/><path class="point" transform="translate(250.46,49.82)" d="M4,0A4,4 0 1,1 0,-4A4,4 0 0,1 4,0Z" style="opacity: 0.8; stroke-width: 1px; fill: rgb(171, 99, 250); fill-opacity: 1; stroke: rgb(47, 79, 79); stroke-opacity: 1;"/><path class="point" transform="translate(255.69,45.47)" d="M4,0A4,4 0 1,1 0,-4A4,4 0 0,1 4,0Z" style="opacity: 0.8; stroke-width: 1px; fill: rgb(171, 99, 250); fill-opacity: 1; stroke: rgb(47, 79, 79); stroke-opacity: 1;"/><path class="point" transform="translate(250.99,45.02)" d="M4,0A4,4 0 1,1 0,-4A4,4 0 0,1 4,0Z" style="opacity: 0.8; stroke-width: 1px; fill: rgb(171, 99, 250); fill-opacity: 1; stroke: rgb(47, 79, 79); stroke-opacity: 1;"/><path class="point" transform="translate(255.81,39.83)" d="M4,0A4,4 0 1,1 0,-4A4,4 0 0,1 4,0Z" style="opacity: 0.8; stroke-width: 1px; fill: rgb(171, 99, 250); fill-opacity: 1; stroke: rgb(47, 79, 79); stroke-opacity: 1;"/><path class="point" transform="translate(251.7,38.76)" d="M4,0A4,4 0 1,1 0,-4A4,4 0 0,1 4,0Z" style="opacity: 0.8; stroke-width: 1px; fill: rgb(171, 99, 250); fill-opacity: 1; stroke: rgb(47, 79, 79); stroke-opacity: 1;"/><path class="point" transform="translate(254.9,35.05)" d="M4,0A4,4 0 1,1 0,-4A4,4 0 0,1 4,0Z" style="opacity: 0.8; stroke-width: 1px; fill: rgb(171, 99, 250); fill-opacity: 1; stroke: rgb(47, 79, 79); stroke-opacity: 1;"/><path class="point" transform="translate(253.71,21)" d="M4,0A4,4 0 1,1 0,-4A4,4 0 0,1 4,0Z" style="opacity: 0.8; stroke-width: 1px; fill: rgb(171, 99, 250); fill-opacity: 1; stroke: rgb(47, 79, 79); stroke-opacity: 1;"/></g></g><g class="trace boxes" style="opacity: 1;"><path class="box" d="M112.18,391.84H139.29M112.18,396.42H139.29V377.14H112.18ZM125.73,396.42V398.05M125.73,377.14V358.22M118.96,398.05H132.51M118.96,358.22H132.51" style="vector-effect: none; stroke-width: 2px; stroke: rgb(255, 255, 255); stroke-opacity: 0; fill: rgb(255, 255, 255); fill-opacity: 0;"/><path class="box" d="M278.18,57.22H305.29M278.18,85.11H305.29V34.29H278.18ZM291.73,85.11V94.4M291.73,34.29V26.65M284.96,94.4H298.51M284.96,26.65H298.51" style="vector-effect: none; stroke-width: 2px; stroke: rgb(255, 255, 255); stroke-opacity: 0; fill: rgb(255, 255, 255); fill-opacity: 0;"/><g class="points"><path class="point" transform="translate(127.84,398.05)" d="M4,0A4,4 0 1,1 0,-4A4,4 0 0,1 4,0Z" style="opacity: 0.8; stroke-width: 1px; fill: rgb(255, 161, 90); fill-opacity: 1; stroke: rgb(47, 79, 79); stroke-opacity: 1;"/><path class="point" transform="translate(123.47,396.69)" d="M4,0A4,4 0 1,1 0,-4A4,4 0 0,1 4,0Z" style="opacity: 0.8; stroke-width: 1px; fill: rgb(255, 161, 90); fill-opacity: 1; stroke: rgb(47, 79, 79); stroke-opacity: 1;"/><path class="point" transform="translate(128.12,396.15)" d="M4,0A4,4 0 1,1 0,-4A4,4 0 0,1 4,0Z" style="opacity: 0.8; stroke-width: 1px; fill: rgb(255, 161, 90); fill-opacity: 1; stroke: rgb(47, 79, 79); stroke-opacity: 1;"/><path class="point" transform="translate(123.13,395)" d="M4,0A4,4 0 1,1 0,-4A4,4 0 0,1 4,0Z" style="opacity: 0.8; stroke-width: 1px; fill: rgb(255, 161, 90); fill-opacity: 1; stroke: rgb(47, 79, 79); stroke-opacity: 1;"/><path class="point" transform="translate(124.98,388.68)" d="M4,0A4,4 0 1,1 0,-4A4,4 0 0,1 4,0Z" style="opacity: 0.8; stroke-width: 1px; fill: rgb(255, 161, 90); fill-opacity: 1; stroke: rgb(47, 79, 79); stroke-opacity: 1;"/><path class="point" transform="translate(127.35,381.8)" d="M4,0A4,4 0 1,1 0,-4A4,4 0 0,1 4,0Z" style="opacity: 0.8; stroke-width: 1px; fill: rgb(255, 161, 90); fill-opacity: 1; stroke: rgb(47, 79, 79); stroke-opacity: 1;"/><path class="point" transform="translate(125.63,372.49)" d="M4,0A4,4 0 1,1 0,-4A4,4 0 0,1 4,0Z" style="opacity: 0.8; stroke-width: 1px; fill: rgb(255, 161, 90); fill-opacity: 1; stroke: rgb(47, 79, 79); stroke-opacity: 1;"/><path class="point" transform="translate(126.51,358.22)" d="M4,0A4,4 0 1,1 0,-4A4,4 0 0,1 4,0Z" style="opacity: 0.8; stroke-width: 1px; fill: rgb(255, 161, 90); fill-opacity: 1; stroke: rgb(47, 79, 79); stroke-opacity: 1;"/></g><g class="points"><path class="point" transform="translate(290.44,94.4)" d="M4,0A4,4 0 1,1 0,-4A4,4 0 0,1 4,0Z" style="opacity: 0.8; stroke-width: 1px; fill: rgb(255, 161, 90); fill-opacity: 1; stroke: rgb(47, 79, 79); stroke-opacity: 1;"/><path class="point" transform="translate(288.75,57.22)" d="M4,0A4,4 0 1,1 0,-4A4,4 0 0,1 4,0Z" style="opacity: 0.8; stroke-width: 1px; fill: rgb(255, 161, 90); fill-opacity: 1; stroke: rgb(47, 79, 79); stroke-opacity: 1;"/><path class="point" transform="translate(292.82,26.65)" d="M4,0A4,4 0 1,1 0,-4A4,4 0 0,1 4,0Z" style="opacity: 0.8; stroke-width: 1px; fill: rgb(255, 161, 90); fill-opacity: 1; stroke: rgb(47, 79, 79); stroke-opacity: 1;"/></g></g></g></g><g class="overplot"/><path class="xlines-above crisp" d="M0,0" style="fill: none;"/><path class="ylines-above crisp" d="M0,0" style="fill: none;"/><g class="overlines-above"/><g class="xaxislayer-above"><g class="xtick"><text text-anchor="middle" x="0" y="537" transform="translate(167,0)" style="font-family: Arial, sans-serif; font-size: 16px; fill: rgb(42, 63, 95); fill-opacity: 1; white-space: pre; opacity: 1;">CD8</text></g><g class="xtick"><text text-anchor="middle" x="0" y="537" transform="translate(333,0)" style="font-family: Arial, sans-serif; font-size: 16px; fill: rgb(42, 63, 95); fill-opacity: 1; white-space: pre; opacity: 1;">CD4</text></g></g><g class="yaxislayer-above"><g class="ytick"><text text-anchor="end" x="79" y="5.6" transform="translate(0,499.06)" style="font-family: Arial, sans-serif; font-size: 16px; fill: rgb(42, 63, 95); fill-opacity: 1; white-space: pre; opacity: 1;">0</text></g><g class="ytick"><text text-anchor="end" x="79" y="5.6" style="font-family: Arial, sans-serif; font-size: 16px; fill: rgb(42, 63, 95); fill-opacity: 1; white-space: pre; opacity: 1;" transform="translate(0,452.91)">2k</text></g><g class="ytick"><text text-anchor="end" x="79" y="5.6" style="font-family: Arial, sans-serif; font-size: 16px; fill: rgb(42, 63, 95); fill-opacity: 1; white-space: pre; opacity: 1;" transform="translate(0,406.77)">4k</text></g><g class="ytick"><text text-anchor="end" x="79" y="5.6" style="font-family: Arial, sans-serif; font-size: 16px; fill: rgb(42, 63, 95); fill-opacity: 1; white-space: pre; opacity: 1;" transform="translate(0,360.63)">6k</text></g><g class="ytick"><text text-anchor="end" x="79" y="5.6" style="font-family: Arial, sans-serif; font-size: 16px; fill: rgb(42, 63, 95); fill-opacity: 1; white-space: pre; opacity: 1;" transform="translate(0,314.49)">8k</text></g><g class="ytick"><text text-anchor="end" x="79" y="5.6" style="font-family: Arial, sans-serif; font-size: 16px; fill: rgb(42, 63, 95); fill-opacity: 1; white-space: pre; opacity: 1;" transform="translate(0,268.35)">10k</text></g><g class="ytick"><text text-anchor="end" x="79" y="5.6" style="font-family: Arial, sans-serif; font-size: 16px; fill: rgb(42, 63, 95); fill-opacity: 1; white-space: pre; opacity: 1;" transform="translate(0,222.20999999999998)">12k</text></g><g class="ytick"><text text-anchor="end" x="79" y="5.6" style="font-family: Arial, sans-serif; font-size: 16px; fill: rgb(42, 63, 95); fill-opacity: 1; white-space: pre; opacity: 1;" transform="translate(0,176.07)">14k</text></g><g class="ytick"><text text-anchor="end" x="79" y="5.6" style="font-family: Arial, sans-serif; font-size: 16px; fill: rgb(42, 63, 95); fill-opacity: 1; white-space: pre; opacity: 1;" transform="translate(0,129.93)">16k</text></g></g><g class="overaxes-above"/></g></g><g class="polarlayer"/><g class="smithlayer"/><g class="ternarylayer"/><g class="geolayer"/><g class="funnelarealayer"/><g class="pielayer"/><g class="iciclelayer"/><g class="treemaplayer"/><g class="sunburstlayer"/><g class="glimages"/><defs id="topdefs-ab8e3b"><g class="clips"/><clipPath id="legendab8e3b"><rect width="431" height="35" x="0" y="0"/></clipPath></defs><g class="layer-above"><g class="imagelayer"/><g class="shapelayer"/></g><g class="infolayer"><g class="legend" pointer-events="all" transform="translate(57,60.8)"><rect class="bg" shape-rendering="crispEdges" width="431" height="35" x="0" y="0" style="stroke: rgb(68, 68, 68); stroke-opacity: 1; fill: rgb(255, 255, 255); fill-opacity: 1; stroke-width: 0px;"/><g class="scrollbox" transform="" clip-path="url(#legendab8e3b)"><text class="legendtitletext" text-anchor="start" x="2" y="24.7" style="font-family: Arial, sans-serif; font-size: 19px; fill: rgb(42, 63, 95); fill-opacity: 1; white-space: pre;">Condition</text><g class="groups" transform=""><g class="traces" transform="translate(100.671875,16.9)" style="opacity: 1;"><text class="legendtext" text-anchor="start" x="40" y="6.24" style="font-family: Arial, sans-serif; font-size: 16px; fill: rgb(42, 63, 95); fill-opacity: 1; white-space: pre;">healthy</text><g class="layers" style="opacity: 1;"><g class="legendfill"/><g class="legendlines"/><g class="legendsymbols"><g class="legendpoints"><path class="legendbox" d="M4,0A4,4 0 1,1 0,-4A4,4 0 0,1 4,0Z" transform="translate(20,0)" style="opacity: 0.8; stroke-width: 1px; fill: rgb(0, 204, 150); fill-opacity: 1; stroke: rgb(47, 79, 79); stroke-opacity: 1;"/></g></g></g><rect class="legendtoggle" x="0" y="-11.9" width="102.625" height="23.8" style="fill: rgb(0, 0, 0); fill-opacity: 0;"/></g></g><g class="groups" transform="translate(105.125,0)"><g class="traces" transform="translate(100.671875,16.9)" style="opacity: 1;"><text class="legendtext" text-anchor="start" x="40" y="6.24" style="font-family: Arial, sans-serif; font-size: 16px; fill: rgb(42, 63, 95); fill-opacity: 1; white-space: pre;">patient</text><g class="layers" style="opacity: 1;"><g class="legendfill"/><g class="legendlines"/><g class="legendsymbols"><g class="legendpoints"><path class="legendbox" d="M4,0A4,4 0 1,1 0,-4A4,4 0 0,1 4,0Z" transform="translate(20,0)" style="opacity: 0.8; stroke-width: 1px; fill: rgb(171, 99, 250); fill-opacity: 1; stroke: rgb(47, 79, 79); stroke-opacity: 1;"/></g></g></g><rect class="legendtoggle" x="0" y="-11.9" width="99.4375" height="23.8" style="fill: rgb(0, 0, 0); fill-opacity: 0;"/></g></g><g class="groups" transform="translate(207.0625,0)"><g class="traces" transform="translate(100.671875,16.9)" style="opacity: 1;"><text class="legendtext" text-anchor="start" x="40" y="6.24" style="font-family: Arial, sans-serif; font-size: 16px; fill: rgb(42, 63, 95); fill-opacity: 1; white-space: pre;">synovium</text><g class="layers" style="opacity: 1;"><g class="legendfill"/><g class="legendlines"/><g class="legendsymbols"><g class="legendpoints"><path class="legendbox" d="M4,0A4,4 0 1,1 0,-4A4,4 0 0,1 4,0Z" transform="translate(20,0)" style="opacity: 0.8; stroke-width: 1px; fill: rgb(255, 161, 90); fill-opacity: 1; stroke: rgb(47, 79, 79); stroke-opacity: 1;"/></g></g></g><rect class="legendtoggle" x="0" y="-11.9" width="119.875" height="23.8" style="fill: rgb(0, 0, 0); fill-opacity: 0;"/></g></g></g><rect class="scrollbar" rx="20" ry="3" width="0" height="0" x="0" y="0" style="fill: rgb(128, 139, 164); fill-opacity: 1;"/></g><g class="g-gtitle"><text class="gtitle" x="250" y="18" text-anchor="middle" dy="0.7em" style="font-family: Arial, sans-serif; font-size: 22px; fill: rgb(42, 63, 95); opacity: 1; font-weight: normal; white-space: pre;">Expression Levels of CD4 Across samples</text></g><g class="g-xtitle"><text class="xtitle" x="250" y="568.8" text-anchor="middle" style="font-family: Arial, sans-serif; font-size: 19px; fill: rgb(42, 63, 95); opacity: 1; font-weight: normal; white-space: pre;">Cell Type</text></g><g class="g-ytitle"><text class="ytitle" transform="rotate(-90,21.575000000000003,310)" x="21.575000000000003" y="310" text-anchor="middle" style="font-family: Arial, sans-serif; font-size: 19px; fill: rgb(42, 63, 95); opacity: 1; font-weight: normal; white-space: pre;">Loop Strength</text></g></g></svg>