<?xml version="1.0" encoding="utf-8" standalone="no"?>
<!DOCTYPE svg PUBLIC "-//W3C//DTD SVG 1.1//EN"
  "http://www.w3.org/Graphics/SVG/1.1/DTD/svg11.dtd">
<svg xmlns:xlink="http://www.w3.org/1999/xlink" width="288pt" height="288pt" viewBox="0 0 288 288" xmlns="http://www.w3.org/2000/svg" version="1.1">
 <metadata>
  <rdf:RDF xmlns:dc="http://purl.org/dc/elements/1.1/" xmlns:cc="http://creativecommons.org/ns#" xmlns:rdf="http://www.w3.org/1999/02/22-rdf-syntax-ns#">
   <cc:Work>
    <dc:type rdf:resource="http://purl.org/dc/dcmitype/StillImage"/>
    <dc:date>2024-06-17T22:14:20.191804</dc:date>
    <dc:format>image/svg+xml</dc:format>
    <dc:creator>
     <cc:Agent>
      <dc:title>Matplotlib v3.7.1, https://matplotlib.org/</dc:title>
     </cc:Agent>
    </dc:creator>
   </cc:Work>
  </rdf:RDF>
 </metadata>
 <defs>
  <style type="text/css">*{stroke-linejoin: round; stroke-linecap: butt}</style>
 </defs>
 <g id="figure_1">
  <g id="patch_1">
   <path d="M 0 288 
L 288 288 
L 288 0 
L 0 0 
z
" style="fill: #ffffff"/>
  </g>
  <g id="axes_1">
   <g id="patch_2">
    <path d="M 135.449871 60.389241 
C 121.474891 58.04496 107.113121 59.929338 94.215936 65.799462 
C 81.318752 71.669585 70.465226 81.261888 63.054486 93.339829 
C 55.643746 105.41777 52.008529 119.439057 52.61745 133.596208 
C 53.226371 147.75336 58.05209 161.410729 66.472525 172.807747 
C 60.502692 151.107615 63.157845 127.91731 73.877964 108.128079 
C 84.598082 88.338848 102.572483 73.447205 124.010045 66.594064 
C 125.824341 65.39998 127.688634 64.283652 129.597863 63.248109 
C 131.507092 62.212567 133.459528 61.258747 135.449871 60.389241 
" clip-path="url(#p7ce3216b21)" style="fill: #000080; opacity: 0.4"/>
   </g>
   <g id="patch_3">
    <path d="M 135.449871 60.389241 
C 137.043419 60.656556 138.627395 60.978093 140.199043 61.353291 
C 141.770692 61.728489 143.329099 62.157131 144.871553 62.638471 
C 157.528368 61.810002 170.214889 63.752322 182.044074 68.329624 
C 193.87326 72.906926 204.562835 80.009982 213.365384 89.142148 
C 222.167933 98.274314 228.873404 109.217671 233.012951 121.207061 
C 237.152499 133.196451 238.627341 145.945775 237.334358 158.5636 
C 242.879339 144.46798 244.117973 129.038766 240.892663 114.23908 
C 237.667353 99.439395 230.120948 85.924713 219.213607 75.414564 
C 208.306267 64.904414 194.521075 57.86429 179.611979 55.189935 
C 164.702883 52.51558 149.330204 54.32544 135.449871 60.389241 
" clip-path="url(#p7ce3216b21)" style="fill: #ff6347; opacity: 0.4"/>
   </g>
   <g id="patch_4">
    <path d="M 135.449871 60.389241 
C 133.459528 61.258747 131.507092 62.212567 129.597863 63.248109 
C 127.688634 64.283652 125.824341 65.39998 124.010045 66.594064 
C 127.39029 65.51347 130.833337 64.640182 134.319979 63.979073 
C 137.806622 63.317964 141.330365 62.870264 144.871553 62.638471 
C 143.329099 62.157131 141.770692 61.728489 140.199043 61.353291 
C 138.627395 60.978093 137.043419 60.656556 135.449871 60.389241 
" clip-path="url(#p7ce3216b21)" style="fill: #b2458b; opacity: 0.4"/>
   </g>
   <g id="patch_5">
    <path d="M 66.472525 172.807747 
C 71.867688 192.418976 83.956557 209.538403 100.632954 221.183398 
C 117.30935 232.828394 137.545081 238.280981 157.814583 236.591185 
C 178.084085 234.901388 197.137631 226.173393 211.655623 211.927831 
C 226.173615 197.68227 235.260938 178.797459 237.334358 158.5636 
C 233.566822 168.140865 227.906341 176.860753 220.69217 184.200648 
C 213.477999 191.540543 204.857201 197.35082 195.346452 201.283246 
C 185.835703 205.215672 175.628882 207.190085 165.337724 207.088149 
C 155.046566 206.986214 144.880859 204.810008 135.449871 200.689961 
C 122.500322 202.862227 109.198697 201.406982 97.025157 196.48616 
C 84.851617 191.565338 74.2751 183.368494 66.472525 172.807747 
" clip-path="url(#p7ce3216b21)" style="fill: #008000; opacity: 0.4"/>
   </g>
   <g id="patch_6">
    <path d="M 66.472525 172.807747 
C 74.2751 183.368494 84.851617 191.565338 97.025157 196.48616 
C 109.198697 201.406982 122.500322 202.862227 135.449871 200.689961 
C 122.8202 195.172528 111.911873 186.345439 103.881334 175.144496 
C 95.850796 163.943554 90.992227 150.779079 89.820707 137.046702 
C 88.649187 123.314324 91.207632 109.517098 97.22481 97.117734 
C 103.241988 84.718369 112.497472 74.17109 124.010045 66.594064 
C 102.572483 73.447205 84.598082 88.338848 73.877964 108.128079 
C 63.157845 127.91731 60.502692 151.107615 66.472525 172.807747 
" clip-path="url(#p7ce3216b21)" style="fill: #005a5a; opacity: 0.4"/>
   </g>
   <g id="patch_7">
    <path d="M 144.871553 62.638471 
C 160.135246 67.401674 173.355852 77.175267 182.385398 90.371317 
C 191.414944 103.567367 195.736414 119.430294 194.647692 135.382821 
C 193.558971 151.335348 187.122395 166.464064 176.383727 178.310981 
C 165.645059 190.157898 151.219175 198.044684 135.449871 200.689961 
C 144.880859 204.810008 155.046566 206.986214 165.337724 207.088149 
C 175.628882 207.190085 185.835703 205.215672 195.346452 201.283246 
C 204.857201 197.35082 213.477999 191.540543 220.69217 184.200648 
C 227.906341 176.860753 233.566822 168.140865 237.334358 158.5636 
C 238.627341 145.945775 237.152499 133.196451 233.012951 121.207061 
C 228.873404 109.217671 222.167933 98.274314 213.365384 89.142148 
C 204.562835 80.009982 193.87326 72.906926 182.044074 68.329624 
C 170.214889 63.752322 157.528368 61.810002 144.871553 62.638471 
" clip-path="url(#p7ce3216b21)" style="fill: #b29f32; opacity: 0.4"/>
   </g>
   <g id="patch_8">
    <path d="M 124.010045 66.594064 
C 112.497472 74.17109 103.241988 84.718369 97.22481 97.117734 
C 91.207632 109.517098 88.649187 123.314324 89.820707 137.046702 
C 90.992227 150.779079 95.850796 163.943554 103.881334 175.144496 
C 111.911873 186.345439 122.8202 195.172528 135.449871 200.689961 
C 151.219175 198.044684 165.645059 190.157898 176.383727 178.310981 
C 187.122395 166.464064 193.558971 151.335348 194.647692 135.382821 
C 195.736414 119.430294 191.414944 103.567367 182.385398 90.371317 
C 173.355852 77.175267 160.135246 67.401674 144.871553 62.638471 
C 141.330365 62.870264 137.806622 63.317964 134.319979 63.979073 
C 130.833337 64.640182 127.39029 65.51347 124.010045 66.594064 
" clip-path="url(#p7ce3216b21)" style="fill: #665b50; opacity: 0.4"/>
   </g>
   <g id="text_1">
    <!-- 1309 -->
    <g transform="translate(57.175073 100.395868) scale(0.1 -0.1)">
     <defs>
      <path id="DejaVuSans-31" d="M 794 531 
L 1825 531 
L 1825 4091 
L 703 3866 
L 703 4441 
L 1819 4666 
L 2450 4666 
L 2450 531 
L 3481 531 
L 3481 0 
L 794 0 
L 794 531 
z
" transform="scale(0.015625)"/>
      <path id="DejaVuSans-33" d="M 2597 2516 
Q 3050 2419 3304 2112 
Q 3559 1806 3559 1356 
Q 3559 666 3084 287 
Q 2609 -91 1734 -91 
Q 1441 -91 1130 -33 
Q 819 25 488 141 
L 488 750 
Q 750 597 1062 519 
Q 1375 441 1716 441 
Q 2309 441 2620 675 
Q 2931 909 2931 1356 
Q 2931 1769 2642 2001 
Q 2353 2234 1838 2234 
L 1294 2234 
L 1294 2753 
L 1863 2753 
Q 2328 2753 2575 2939 
Q 2822 3125 2822 3475 
Q 2822 3834 2567 4026 
Q 2313 4219 1838 4219 
Q 1578 4219 1281 4162 
Q 984 4106 628 3988 
L 628 4550 
Q 988 4650 1302 4700 
Q 1616 4750 1894 4750 
Q 2613 4750 3031 4423 
Q 3450 4097 3450 3541 
Q 3450 3153 3228 2886 
Q 3006 2619 2597 2516 
z
" transform="scale(0.015625)"/>
      <path id="DejaVuSans-30" d="M 2034 4250 
Q 1547 4250 1301 3770 
Q 1056 3291 1056 2328 
Q 1056 1369 1301 889 
Q 1547 409 2034 409 
Q 2525 409 2770 889 
Q 3016 1369 3016 2328 
Q 3016 3291 2770 3770 
Q 2525 4250 2034 4250 
z
M 2034 4750 
Q 2819 4750 3233 4129 
Q 3647 3509 3647 2328 
Q 3647 1150 3233 529 
Q 2819 -91 2034 -91 
Q 1250 -91 836 529 
Q 422 1150 422 2328 
Q 422 3509 836 4129 
Q 1250 4750 2034 4750 
z
" transform="scale(0.015625)"/>
      <path id="DejaVuSans-39" d="M 703 97 
L 703 672 
Q 941 559 1184 500 
Q 1428 441 1663 441 
Q 2288 441 2617 861 
Q 2947 1281 2994 2138 
Q 2813 1869 2534 1725 
Q 2256 1581 1919 1581 
Q 1219 1581 811 2004 
Q 403 2428 403 3163 
Q 403 3881 828 4315 
Q 1253 4750 1959 4750 
Q 2769 4750 3195 4129 
Q 3622 3509 3622 2328 
Q 3622 1225 3098 567 
Q 2575 -91 1691 -91 
Q 1453 -91 1209 -44 
Q 966 3 703 97 
z
M 1959 2075 
Q 2384 2075 2632 2365 
Q 2881 2656 2881 3163 
Q 2881 3666 2632 3958 
Q 2384 4250 1959 4250 
Q 1534 4250 1286 3958 
Q 1038 3666 1038 3163 
Q 1038 2656 1286 2365 
Q 1534 2075 1959 2075 
z
" transform="scale(0.015625)"/>
     </defs>
     <use xlink:href="#DejaVuSans-31"/>
     <use xlink:href="#DejaVuSans-33" x="63.623047"/>
     <use xlink:href="#DejaVuSans-30" x="127.246094"/>
     <use xlink:href="#DejaVuSans-39" x="190.869141"/>
    </g>
   </g>
   <g id="text_2">
    <!-- 1189 -->
    <g transform="translate(201.541979 83.359641) scale(0.1 -0.1)">
     <defs>
      <path id="DejaVuSans-38" d="M 2034 2216 
Q 1584 2216 1326 1975 
Q 1069 1734 1069 1313 
Q 1069 891 1326 650 
Q 1584 409 2034 409 
Q 2484 409 2743 651 
Q 3003 894 3003 1313 
Q 3003 1734 2745 1975 
Q 2488 2216 2034 2216 
z
M 1403 2484 
Q 997 2584 770 2862 
Q 544 3141 544 3541 
Q 544 4100 942 4425 
Q 1341 4750 2034 4750 
Q 2731 4750 3128 4425 
Q 3525 4100 3525 3541 
Q 3525 3141 3298 2862 
Q 3072 2584 2669 2484 
Q 3125 2378 3379 2068 
Q 3634 1759 3634 1313 
Q 3634 634 3220 271 
Q 2806 -91 2034 -91 
Q 1263 -91 848 271 
Q 434 634 434 1313 
Q 434 1759 690 2068 
Q 947 2378 1403 2484 
z
M 1172 3481 
Q 1172 3119 1398 2916 
Q 1625 2713 2034 2713 
Q 2441 2713 2670 2916 
Q 2900 3119 2900 3481 
Q 2900 3844 2670 4047 
Q 2441 4250 2034 4250 
Q 1625 4250 1398 4047 
Q 1172 3844 1172 3481 
z
" transform="scale(0.015625)"/>
     </defs>
     <use xlink:href="#DejaVuSans-31"/>
     <use xlink:href="#DejaVuSans-31" x="63.623047"/>
     <use xlink:href="#DejaVuSans-38" x="127.246094"/>
     <use xlink:href="#DejaVuSans-39" x="190.869141"/>
    </g>
   </g>
   <g id="text_3">
    <!-- 0 -->
    <g transform="translate(131.134139 65.862459) scale(0.1 -0.1)">
     <use xlink:href="#DejaVuSans-30"/>
    </g>
   </g>
   <g id="text_4">
    <!-- 2867 -->
    <g transform="translate(143.891833 220.93418) scale(0.1 -0.1)">
     <defs>
      <path id="DejaVuSans-32" d="M 1228 531 
L 3431 531 
L 3431 0 
L 469 0 
L 469 531 
Q 828 903 1448 1529 
Q 2069 2156 2228 2338 
Q 2531 2678 2651 2914 
Q 2772 3150 2772 3378 
Q 2772 3750 2511 3984 
Q 2250 4219 1831 4219 
Q 1534 4219 1204 4116 
Q 875 4013 500 3803 
L 500 4441 
Q 881 4594 1212 4672 
Q 1544 4750 1819 4750 
Q 2544 4750 2975 4387 
Q 3406 4025 3406 3419 
Q 3406 3131 3298 2873 
Q 3191 2616 2906 2266 
Q 2828 2175 2409 1742 
Q 1991 1309 1228 531 
z
" transform="scale(0.015625)"/>
      <path id="DejaVuSans-36" d="M 2113 2584 
Q 1688 2584 1439 2293 
Q 1191 2003 1191 1497 
Q 1191 994 1439 701 
Q 1688 409 2113 409 
Q 2538 409 2786 701 
Q 3034 994 3034 1497 
Q 3034 2003 2786 2293 
Q 2538 2584 2113 2584 
z
M 3366 4563 
L 3366 3988 
Q 3128 4100 2886 4159 
Q 2644 4219 2406 4219 
Q 1781 4219 1451 3797 
Q 1122 3375 1075 2522 
Q 1259 2794 1537 2939 
Q 1816 3084 2150 3084 
Q 2853 3084 3261 2657 
Q 3669 2231 3669 1497 
Q 3669 778 3244 343 
Q 2819 -91 2113 -91 
Q 1303 -91 875 529 
Q 447 1150 447 2328 
Q 447 3434 972 4092 
Q 1497 4750 2381 4750 
Q 2619 4750 2861 4703 
Q 3103 4656 3366 4563 
z
" transform="scale(0.015625)"/>
      <path id="DejaVuSans-37" d="M 525 4666 
L 3525 4666 
L 3525 4397 
L 1831 0 
L 1172 0 
L 2766 4134 
L 525 4134 
L 525 4666 
z
" transform="scale(0.015625)"/>
     </defs>
     <use xlink:href="#DejaVuSans-32"/>
     <use xlink:href="#DejaVuSans-38" x="63.623047"/>
     <use xlink:href="#DejaVuSans-36" x="127.246094"/>
     <use xlink:href="#DejaVuSans-37" x="190.869141"/>
    </g>
   </g>
   <g id="text_5">
    <!-- 2243 -->
    <g transform="translate(73.650837 144.239364) scale(0.1 -0.1)">
     <defs>
      <path id="DejaVuSans-34" d="M 2419 4116 
L 825 1625 
L 2419 1625 
L 2419 4116 
z
M 2253 4666 
L 3047 4666 
L 3047 1625 
L 3713 1625 
L 3713 1100 
L 3047 1100 
L 3047 0 
L 2419 0 
L 2419 1100 
L 313 1100 
L 313 1709 
L 2253 4666 
z
" transform="scale(0.015625)"/>
     </defs>
     <use xlink:href="#DejaVuSans-32"/>
     <use xlink:href="#DejaVuSans-32" x="63.623047"/>
     <use xlink:href="#DejaVuSans-34" x="127.246094"/>
     <use xlink:href="#DejaVuSans-33" x="190.869141"/>
    </g>
   </g>
   <g id="text_6">
    <!-- 4160 -->
    <g transform="translate(187.514928 142.392208) scale(0.1 -0.1)">
     <use xlink:href="#DejaVuSans-34"/>
     <use xlink:href="#DejaVuSans-31" x="63.623047"/>
     <use xlink:href="#DejaVuSans-36" x="127.246094"/>
     <use xlink:href="#DejaVuSans-30" x="190.869141"/>
    </g>
   </g>
   <g id="text_7">
    <!-- 7803 -->
    <g transform="translate(134.563907 135.407009) scale(0.1 -0.1)">
     <use xlink:href="#DejaVuSans-37"/>
     <use xlink:href="#DejaVuSans-38" x="63.623047"/>
     <use xlink:href="#DejaVuSans-30" x="127.246094"/>
     <use xlink:href="#DejaVuSans-33" x="190.869141"/>
    </g>
   </g>
   <g id="text_8">
    <!-- CD4 -->
    <g transform="translate(62.862627 59.409089) scale(0.12 -0.12)">
     <defs>
      <path id="DejaVuSans-43" d="M 4122 4306 
L 4122 3641 
Q 3803 3938 3442 4084 
Q 3081 4231 2675 4231 
Q 1875 4231 1450 3742 
Q 1025 3253 1025 2328 
Q 1025 1406 1450 917 
Q 1875 428 2675 428 
Q 3081 428 3442 575 
Q 3803 722 4122 1019 
L 4122 359 
Q 3791 134 3420 21 
Q 3050 -91 2638 -91 
Q 1578 -91 968 557 
Q 359 1206 359 2328 
Q 359 3453 968 4101 
Q 1578 4750 2638 4750 
Q 3056 4750 3426 4639 
Q 3797 4528 4122 4306 
z
" transform="scale(0.015625)"/>
      <path id="DejaVuSans-44" d="M 1259 4147 
L 1259 519 
L 2022 519 
Q 2988 519 3436 956 
Q 3884 1394 3884 2338 
Q 3884 3275 3436 3711 
Q 2988 4147 2022 4147 
L 1259 4147 
z
M 628 4666 
L 1925 4666 
Q 3281 4666 3915 4102 
Q 4550 3538 4550 2338 
Q 4550 1131 3912 565 
Q 3275 0 1925 0 
L 628 0 
L 628 4666 
z
" transform="scale(0.015625)"/>
     </defs>
     <use xlink:href="#DejaVuSans-43"/>
     <use xlink:href="#DejaVuSans-44" x="69.824219"/>
     <use xlink:href="#DejaVuSans-34" x="146.826172"/>
    </g>
   </g>
   <g id="text_9">
    <!-- CD8 -->
    <g transform="translate(204.372102 53.987297) scale(0.12 -0.12)">
     <use xlink:href="#DejaVuSans-43"/>
     <use xlink:href="#DejaVuSans-44" x="69.824219"/>
     <use xlink:href="#DejaVuSans-38" x="146.826172"/>
    </g>
   </g>
   <g id="text_10">
    <!-- ALL -->
    <g transform="translate(139.777851 254.732852) scale(0.12 -0.12)">
     <defs>
      <path id="DejaVuSans-41" d="M 2188 4044 
L 1331 1722 
L 3047 1722 
L 2188 4044 
z
M 1831 4666 
L 2547 4666 
L 4325 0 
L 3669 0 
L 3244 1197 
L 1141 1197 
L 716 0 
L 50 0 
L 1831 4666 
z
" transform="scale(0.015625)"/>
      <path id="DejaVuSans-4c" d="M 628 4666 
L 1259 4666 
L 1259 531 
L 3531 531 
L 3531 0 
L 628 0 
L 628 4666 
z
" transform="scale(0.015625)"/>
     </defs>
     <use xlink:href="#DejaVuSans-41"/>
     <use xlink:href="#DejaVuSans-4c" x="68.408203"/>
     <use xlink:href="#DejaVuSans-4c" x="124.121094"/>
    </g>
   </g>
  </g>
 </g>
 <defs>
  <clipPath id="p7ce3216b21">
   <rect x="36" y="37.435551" width="223.2" height="216.008897"/>
  </clipPath>
 </defs>
</svg>
