<?xml version="1.0" encoding="utf-8" standalone="no"?>
<!DOCTYPE svg PUBLIC "-//W3C//DTD SVG 1.1//EN"
  "http://www.w3.org/Graphics/SVG/1.1/DTD/svg11.dtd">
<svg xmlns:xlink="http://www.w3.org/1999/xlink" width="288pt" height="288pt" viewBox="0 0 288 288" xmlns="http://www.w3.org/2000/svg" version="1.1">
 <metadata>
  <rdf:RDF xmlns:dc="http://purl.org/dc/elements/1.1/" xmlns:cc="http://creativecommons.org/ns#" xmlns:rdf="http://www.w3.org/1999/02/22-rdf-syntax-ns#">
   <cc:Work>
    <dc:type rdf:resource="http://purl.org/dc/dcmitype/StillImage"/>
    <dc:date>2024-06-18T07:58:37.763732</dc:date>
    <dc:format>image/svg+xml</dc:format>
    <dc:creator>
     <cc:Agent>
      <dc:title>Matplotlib v3.7.1, https://matplotlib.org/</dc:title>
     </cc:Agent>
    </dc:creator>
   </cc:Work>
  </rdf:RDF>
 </metadata>
 <defs>
  <style type="text/css">*{stroke-linejoin: round; stroke-linecap: butt}</style>
 </defs>
 <g id="figure_1">
  <g id="patch_1">
   <path d="M 0 288 
L 288 288 
L 288 0 
L 0 0 
z
" style="fill: #ffffff"/>
  </g>
  <g id="axes_1">
   <g id="patch_2">
    <path d="M 135.449871 60.389241 
C 121.474891 58.04496 107.113121 59.929338 94.215936 65.799462 
C 81.318752 71.669585 70.465226 81.261888 63.054486 93.339829 
C 55.643746 105.41777 52.008529 119.439057 52.61745 133.596208 
C 53.226371 147.75336 58.05209 161.410729 66.472525 172.807747 
C 60.502692 151.107615 63.157845 127.91731 73.877964 108.128079 
C 84.598082 88.338848 102.572483 73.447205 124.010045 66.594064 
C 125.824341 65.39998 127.688634 64.283652 129.597863 63.248109 
C 131.507092 62.212567 133.459528 61.258747 135.449871 60.389241 
" clip-path="url(#p7ebb4b0f7f)" style="fill: #000080; opacity: 0.4"/>
   </g>
   <g id="patch_3">
    <path d="M 135.449871 60.389241 
C 137.043419 60.656556 138.627395 60.978093 140.199043 61.353291 
C 141.770692 61.728489 143.329099 62.157131 144.871553 62.638471 
C 157.528368 61.810002 170.214889 63.752322 182.044074 68.329624 
C 193.87326 72.906926 204.562835 80.009982 213.365384 89.142148 
C 222.167933 98.274314 228.873404 109.217671 233.012951 121.207061 
C 237.152499 133.196451 238.627341 145.945775 237.334358 158.5636 
C 242.879339 144.46798 244.117973 129.038766 240.892663 114.23908 
C 237.667353 99.439395 230.120948 85.924713 219.213607 75.414564 
C 208.306267 64.904414 194.521075 57.86429 179.611979 55.189935 
C 164.702883 52.51558 149.330204 54.32544 135.449871 60.389241 
" clip-path="url(#p7ebb4b0f7f)" style="fill: #ff6347; opacity: 0.4"/>
   </g>
   <g id="patch_4">
    <path d="M 135.449871 60.389241 
C 133.459528 61.258747 131.507092 62.212567 129.597863 63.248109 
C 127.688634 64.283652 125.824341 65.39998 124.010045 66.594064 
C 127.39029 65.51347 130.833337 64.640182 134.319979 63.979073 
C 137.806622 63.317964 141.330365 62.870264 144.871553 62.638471 
C 143.329099 62.157131 141.770692 61.728489 140.199043 61.353291 
C 138.627395 60.978093 137.043419 60.656556 135.449871 60.389241 
" clip-path="url(#p7ebb4b0f7f)" style="fill: #b2458b; opacity: 0.4"/>
   </g>
   <g id="patch_5">
    <path d="M 66.472525 172.807747 
C 71.867688 192.418976 83.956557 209.538403 100.632954 221.183398 
C 117.30935 232.828394 137.545081 238.280981 157.814583 236.591185 
C 178.084085 234.901388 197.137631 226.173393 211.655623 211.927831 
C 226.173615 197.68227 235.260938 178.797459 237.334358 158.5636 
C 233.566822 168.140865 227.906341 176.860753 220.69217 184.200648 
C 213.477999 191.540543 204.857201 197.35082 195.346452 201.283246 
C 185.835703 205.215672 175.628882 207.190085 165.337724 207.088149 
C 155.046566 206.986214 144.880859 204.810008 135.449871 200.689961 
C 122.500322 202.862227 109.198697 201.406982 97.025157 196.48616 
C 84.851617 191.565338 74.2751 183.368494 66.472525 172.807747 
" clip-path="url(#p7ebb4b0f7f)" style="fill: #008000; opacity: 0.4"/>
   </g>
   <g id="patch_6">
    <path d="M 66.472525 172.807747 
C 74.2751 183.368494 84.851617 191.565338 97.025157 196.48616 
C 109.198697 201.406982 122.500322 202.862227 135.449871 200.689961 
C 122.8202 195.172528 111.911873 186.345439 103.881334 175.144496 
C 95.850796 163.943554 90.992227 150.779079 89.820707 137.046702 
C 88.649187 123.314324 91.207632 109.517098 97.22481 97.117734 
C 103.241988 84.718369 112.497472 74.17109 124.010045 66.594064 
C 102.572483 73.447205 84.598082 88.338848 73.877964 108.128079 
C 63.157845 127.91731 60.502692 151.107615 66.472525 172.807747 
" clip-path="url(#p7ebb4b0f7f)" style="fill: #005a5a; opacity: 0.4"/>
   </g>
   <g id="patch_7">
    <path d="M 144.871553 62.638471 
C 160.135246 67.401674 173.355852 77.175267 182.385398 90.371317 
C 191.414944 103.567367 195.736414 119.430294 194.647692 135.382821 
C 193.558971 151.335348 187.122395 166.464064 176.383727 178.310981 
C 165.645059 190.157898 151.219175 198.044684 135.449871 200.689961 
C 144.880859 204.810008 155.046566 206.986214 165.337724 207.088149 
C 175.628882 207.190085 185.835703 205.215672 195.346452 201.283246 
C 204.857201 197.35082 213.477999 191.540543 220.69217 184.200648 
C 227.906341 176.860753 233.566822 168.140865 237.334358 158.5636 
C 238.627341 145.945775 237.152499 133.196451 233.012951 121.207061 
C 228.873404 109.217671 222.167933 98.274314 213.365384 89.142148 
C 204.562835 80.009982 193.87326 72.906926 182.044074 68.329624 
C 170.214889 63.752322 157.528368 61.810002 144.871553 62.638471 
" clip-path="url(#p7ebb4b0f7f)" style="fill: #b29f32; opacity: 0.4"/>
   </g>
   <g id="patch_8">
    <path d="M 124.010045 66.594064 
C 112.497472 74.17109 103.241988 84.718369 97.22481 97.117734 
C 91.207632 109.517098 88.649187 123.314324 89.820707 137.046702 
C 90.992227 150.779079 95.850796 163.943554 103.881334 175.144496 
C 111.911873 186.345439 122.8202 195.172528 135.449871 200.689961 
C 151.219175 198.044684 165.645059 190.157898 176.383727 178.310981 
C 187.122395 166.464064 193.558971 151.335348 194.647692 135.382821 
C 195.736414 119.430294 191.414944 103.567367 182.385398 90.371317 
C 173.355852 77.175267 160.135246 67.401674 144.871553 62.638471 
C 141.330365 62.870264 137.806622 63.317964 134.319979 63.979073 
C 130.833337 64.640182 127.39029 65.51347 124.010045 66.594064 
" clip-path="url(#p7ebb4b0f7f)" style="fill: #665b50; opacity: 0.4"/>
   </g>
   <g id="text_1">
    <text style="font: 10px 'DejaVu Sans', 'Bitstream Vera Sans', 'Computer Modern Sans Serif', 'Lucida Grande', 'Verdana', 'Geneva', 'Lucid', 'Arial', 'Helvetica', 'Avant Garde', sans-serif; text-anchor: middle" x="69.900073" y="100.395868" transform="rotate(-0 69.900073 100.395868)">1309</text>
   </g>
   <g id="text_2">
    <text style="font: 10px 'DejaVu Sans', 'Bitstream Vera Sans', 'Computer Modern Sans Serif', 'Lucida Grande', 'Verdana', 'Geneva', 'Lucid', 'Arial', 'Helvetica', 'Avant Garde', sans-serif; text-anchor: middle" x="214.266979" y="83.359641" transform="rotate(-0 214.266979 83.359641)">1189</text>
   </g>
   <g id="text_3">
    <text style="font: 10px 'DejaVu Sans', 'Bitstream Vera Sans', 'Computer Modern Sans Serif', 'Lucida Grande', 'Verdana', 'Geneva', 'Lucid', 'Arial', 'Helvetica', 'Avant Garde', sans-serif; text-anchor: middle" x="134.315389" y="65.862459" transform="rotate(-0 134.315389 65.862459)">0</text>
   </g>
   <g id="text_4">
    <text style="font: 10px 'DejaVu Sans', 'Bitstream Vera Sans', 'Computer Modern Sans Serif', 'Lucida Grande', 'Verdana', 'Geneva', 'Lucid', 'Arial', 'Helvetica', 'Avant Garde', sans-serif; text-anchor: middle" x="156.616833" y="220.93418" transform="rotate(-0 156.616833 220.93418)">2867</text>
   </g>
   <g id="text_5">
    <text style="font: 10px 'DejaVu Sans', 'Bitstream Vera Sans', 'Computer Modern Sans Serif', 'Lucida Grande', 'Verdana', 'Geneva', 'Lucid', 'Arial', 'Helvetica', 'Avant Garde', sans-serif; text-anchor: middle" x="86.375837" y="144.239364" transform="rotate(-0 86.375837 144.239364)">2243</text>
   </g>
   <g id="text_6">
    <text style="font: 10px 'DejaVu Sans', 'Bitstream Vera Sans', 'Computer Modern Sans Serif', 'Lucida Grande', 'Verdana', 'Geneva', 'Lucid', 'Arial', 'Helvetica', 'Avant Garde', sans-serif; text-anchor: middle" x="200.239928" y="142.392208" transform="rotate(-0 200.239928 142.392208)">4160</text>
   </g>
   <g id="text_7">
    <text style="font: 10px 'DejaVu Sans', 'Bitstream Vera Sans', 'Computer Modern Sans Serif', 'Lucida Grande', 'Verdana', 'Geneva', 'Lucid', 'Arial', 'Helvetica', 'Avant Garde', sans-serif; text-anchor: middle" x="147.288907" y="135.407009" transform="rotate(-0 147.288907 135.407009)">7803</text>
   </g>
   <g id="text_8">
    <text style="font: 12px 'DejaVu Sans', 'Bitstream Vera Sans', 'Computer Modern Sans Serif', 'Lucida Grande', 'Verdana', 'Geneva', 'Lucid', 'Arial', 'Helvetica', 'Avant Garde', sans-serif; text-anchor: end" x="88.117002" y="59.409089" transform="rotate(-0 88.117002 59.409089)">CD4</text>
   </g>
   <g id="text_9">
    <text style="font: 12px 'DejaVu Sans', 'Bitstream Vera Sans', 'Computer Modern Sans Serif', 'Lucida Grande', 'Verdana', 'Geneva', 'Lucid', 'Arial', 'Helvetica', 'Avant Garde', sans-serif; text-anchor: start" x="204.372102" y="53.987297" transform="rotate(-0 204.372102 53.987297)">CD8</text>
   </g>
   <g id="text_10">
    <text style="font: 12px 'DejaVu Sans', 'Bitstream Vera Sans', 'Computer Modern Sans Serif', 'Lucida Grande', 'Verdana', 'Geneva', 'Lucid', 'Arial', 'Helvetica', 'Avant Garde', sans-serif; text-anchor: middle" x="150.568476" y="254.732852" transform="rotate(-0 150.568476 254.732852)">ALL</text>
   </g>
  </g>
 </g>
 <defs>
  <clipPath id="p7ebb4b0f7f">
   <rect x="36" y="37.435551" width="223.2" height="216.008897"/>
  </clipPath>
 </defs>
</svg>
