<?xml version="1.0" encoding="utf-8" standalone="no"?>
<!DOCTYPE svg PUBLIC "-//W3C//DTD SVG 1.1//EN"
  "http://www.w3.org/Graphics/SVG/1.1/DTD/svg11.dtd">
<svg xmlns:xlink="http://www.w3.org/1999/xlink" width="288pt" height="288pt" viewBox="0 0 288 288" xmlns="http://www.w3.org/2000/svg" version="1.1">
 <metadata>
  <rdf:RDF xmlns:dc="http://purl.org/dc/elements/1.1/" xmlns:cc="http://creativecommons.org/ns#" xmlns:rdf="http://www.w3.org/1999/02/22-rdf-syntax-ns#">
   <cc:Work>
    <dc:type rdf:resource="http://purl.org/dc/dcmitype/StillImage"/>
    <dc:date>2023-06-19T12:19:49.366263</dc:date>
    <dc:format>image/svg+xml</dc:format>
    <dc:creator>
     <cc:Agent>
      <dc:title>Matplotlib v3.5.1, https://matplotlib.org/</dc:title>
     </cc:Agent>
    </dc:creator>
   </cc:Work>
  </rdf:RDF>
 </metadata>
 <defs>
  <style type="text/css">*{stroke-linejoin: round; stroke-linecap: butt}</style>
 </defs>
 <g id="figure_1">
  <g id="patch_1">
   <path d="M 0 288 
L 288 288 
L 288 0 
L 0 0 
L 0 288 
z
" style="fill: none"/>
  </g>
  <g id="axes_1">
   <g id="patch_2">
    <path d="M 209.25992 204.739128 
C 204.494405 207.794693 199.389805 210.285955 194.048983 212.162714 
C 188.70816 214.039474 183.16723 215.289039 177.537845 215.886232 
C 171.747003 220.50758 165.320276 224.270374 158.456068 227.05845 
C 151.591861 229.846527 144.361545 231.630895 136.988333 232.356469 
C 150.33351 233.458806 163.757422 231.549319 176.26588 226.769427 
C 188.774339 221.989536 200.050732 214.460227 209.25992 204.739128 
M 209.25992 81.753658 
C 197.500916 69.341008 182.424611 60.55794 165.827042 56.450781 
C 149.229472 52.343621 131.796981 53.08221 115.606297 58.578558 
C 99.415614 64.074906 85.136255 74.101728 74.469318 87.464532 
C 63.802381 100.827336 57.188966 116.973543 55.416926 133.979658 
C 60.388861 116.967023 71.077237 102.177863 85.67052 92.118739 
C 100.263803 82.059616 117.888171 77.332852 135.556534 78.73957 
C 147.003245 72.657427 159.865215 69.730314 172.816629 70.25996 
C 185.768044 70.789606 198.348058 74.757164 209.25992 81.753658 
" clip-path="url(#pdb4f5cc231)" style="fill: #ff0000; opacity: 0.4"/>
   </g>
   <g id="patch_3">
    <path d="M 209.25992 81.753658 
C 224.988254 98.356282 233.762554 120.376597 233.762554 143.246393 
C 233.762554 166.11619 224.988254 188.136504 209.25992 204.739128 
C 219.568498 198.12945 228.05141 189.032494 233.925726 178.287866 
C 239.800042 167.543238 242.8793 155.491989 242.8793 143.246393 
C 242.8793 131.000797 239.800042 118.949549 233.925726 108.204921 
C 228.05141 97.460293 219.568498 88.363337 209.25992 81.753658 
" clip-path="url(#pdb4f5cc231)" style="fill: #008000; opacity: 0.4"/>
   </g>
   <g id="patch_4">
    <path d="M 209.25992 81.753658 
C 198.348058 74.757164 185.768044 70.789606 172.816629 70.25996 
C 159.865215 69.730314 147.003245 72.657427 135.556534 78.73957 
C 150.970652 79.966811 165.665043 85.802308 177.721566 95.484322 
C 189.77809 105.166336 198.648278 118.25442 203.174256 133.040112 
C 207.700233 147.825803 207.676108 163.636483 203.105028 178.408294 
C 198.533949 193.180104 189.62386 206.241057 177.537845 215.886232 
C 183.16723 215.289039 188.70816 214.039474 194.048983 212.162714 
C 199.389805 210.285955 204.494405 207.794693 209.25992 204.739128 
C 224.988254 188.136504 233.762554 166.11619 233.762554 143.246393 
C 233.762554 120.376597 224.988254 98.356282 209.25992 81.753658 
" clip-path="url(#pdb4f5cc231)" style="fill: #b25900; opacity: 0.4"/>
   </g>
   <g id="patch_5">
    <path d="M 136.988333 232.356469 
C 125.125968 231.376616 113.577803 228.037871 103.022676 222.536497 
C 92.46755 217.035123 83.116418 209.481071 75.518973 200.318395 
C 67.921528 191.155719 62.229613 180.567543 58.777818 169.176278 
C 55.326022 157.785014 54.183335 145.818326 55.416926 133.979658 
C 51.878514 146.087158 51.364238 158.879927 53.919346 171.23239 
C 56.474453 183.584854 62.021744 195.123787 70.073138 204.833935 
C 78.124532 214.544084 88.43676 222.132059 100.102499 226.930232 
C 111.768237 231.728405 124.435012 233.591801 136.988333 232.356469 
" clip-path="url(#pdb4f5cc231)" style="fill: #0000ff; opacity: 0.4"/>
   </g>
   <g id="patch_6">
    <path d="M 177.537845 215.886232 
C 160.67381 217.67525 143.701981 213.53689 129.554254 204.186057 
C 115.406527 194.835225 104.947355 180.843273 99.983567 164.627322 
C 95.01978 148.411371 95.854674 130.962247 102.344021 115.294297 
C 108.833368 99.626348 120.580656 86.696916 135.556534 78.73957 
C 117.888171 77.332852 100.263803 82.059616 85.67052 92.118739 
C 71.077237 102.177863 60.388861 116.967023 55.416926 133.979658 
C 54.183335 145.818326 55.326022 157.785014 58.777818 169.176278 
C 62.229613 180.567543 67.921528 191.155719 75.518973 200.318395 
C 83.116418 209.481071 92.46755 217.035123 103.022676 222.536497 
C 113.577803 228.037871 125.125968 231.376616 136.988333 232.356469 
C 144.361545 231.630895 151.591861 229.846527 158.456068 227.05845 
C 165.320276 224.270374 171.747003 220.50758 177.537845 215.886232 
" clip-path="url(#pdb4f5cc231)" style="fill: #b200b2; opacity: 0.4"/>
   </g>
   <g id="patch_7">
    <path d="M 135.556534 78.73957 
C 120.580656 86.696916 108.833368 99.626348 102.344021 115.294297 
C 95.854674 130.962247 95.01978 148.411371 99.983567 164.627322 
C 104.947355 180.843273 115.406527 194.835225 129.554254 204.186057 
C 143.701981 213.53689 160.67381 217.67525 177.537845 215.886232 
C 189.62386 206.241057 198.533949 193.180104 203.105028 178.408294 
C 207.676108 163.636483 207.700233 147.825803 203.174256 133.040112 
C 198.648278 118.25442 189.77809 105.166336 177.721566 95.484322 
C 165.665043 85.802308 150.970652 79.966811 135.556534 78.73957 
" clip-path="url(#pdb4f5cc231)" style="fill: #663366; opacity: 0.4"/>
   </g>
   <g id="text_1">
    <!-- 3164 -->
    <g transform="translate(107.063117 73.706131)scale(0.1 -0.1)">
     <defs>
      <path id="DejaVuSans-33" d="M 2597 2516 
Q 3050 2419 3304 2112 
Q 3559 1806 3559 1356 
Q 3559 666 3084 287 
Q 2609 -91 1734 -91 
Q 1441 -91 1130 -33 
Q 819 25 488 141 
L 488 750 
Q 750 597 1062 519 
Q 1375 441 1716 441 
Q 2309 441 2620 675 
Q 2931 909 2931 1356 
Q 2931 1769 2642 2001 
Q 2353 2234 1838 2234 
L 1294 2234 
L 1294 2753 
L 1863 2753 
Q 2328 2753 2575 2939 
Q 2822 3125 2822 3475 
Q 2822 3834 2567 4026 
Q 2313 4219 1838 4219 
Q 1578 4219 1281 4162 
Q 984 4106 628 3988 
L 628 4550 
Q 988 4650 1302 4700 
Q 1616 4750 1894 4750 
Q 2613 4750 3031 4423 
Q 3450 4097 3450 3541 
Q 3450 3153 3228 2886 
Q 3006 2619 2597 2516 
z
" transform="scale(0.015625)"/>
      <path id="DejaVuSans-31" d="M 794 531 
L 1825 531 
L 1825 4091 
L 703 3866 
L 703 4441 
L 1819 4666 
L 2450 4666 
L 2450 531 
L 3481 531 
L 3481 0 
L 794 0 
L 794 531 
z
" transform="scale(0.015625)"/>
      <path id="DejaVuSans-36" d="M 2113 2584 
Q 1688 2584 1439 2293 
Q 1191 2003 1191 1497 
Q 1191 994 1439 701 
Q 1688 409 2113 409 
Q 2538 409 2786 701 
Q 3034 994 3034 1497 
Q 3034 2003 2786 2293 
Q 2538 2584 2113 2584 
z
M 3366 4563 
L 3366 3988 
Q 3128 4100 2886 4159 
Q 2644 4219 2406 4219 
Q 1781 4219 1451 3797 
Q 1122 3375 1075 2522 
Q 1259 2794 1537 2939 
Q 1816 3084 2150 3084 
Q 2853 3084 3261 2657 
Q 3669 2231 3669 1497 
Q 3669 778 3244 343 
Q 2819 -91 2113 -91 
Q 1303 -91 875 529 
Q 447 1150 447 2328 
Q 447 3434 972 4092 
Q 1497 4750 2381 4750 
Q 2619 4750 2861 4703 
Q 3103 4656 3366 4563 
z
" transform="scale(0.015625)"/>
      <path id="DejaVuSans-34" d="M 2419 4116 
L 825 1625 
L 2419 1625 
L 2419 4116 
z
M 2253 4666 
L 3047 4666 
L 3047 1625 
L 3713 1625 
L 3713 1100 
L 3047 1100 
L 3047 0 
L 2419 0 
L 2419 1100 
L 313 1100 
L 313 1709 
L 2253 4666 
z
" transform="scale(0.015625)"/>
     </defs>
     <use xlink:href="#DejaVuSans-33"/>
     <use xlink:href="#DejaVuSans-31" x="63.623047"/>
     <use xlink:href="#DejaVuSans-36" x="127.246094"/>
     <use xlink:href="#DejaVuSans-34" x="190.869141"/>
    </g>
   </g>
   <g id="text_2">
    <!-- 1012 -->
    <g transform="translate(225.595927 146.005768)scale(0.1 -0.1)">
     <defs>
      <path id="DejaVuSans-30" d="M 2034 4250 
Q 1547 4250 1301 3770 
Q 1056 3291 1056 2328 
Q 1056 1369 1301 889 
Q 1547 409 2034 409 
Q 2525 409 2770 889 
Q 3016 1369 3016 2328 
Q 3016 3291 2770 3770 
Q 2525 4250 2034 4250 
z
M 2034 4750 
Q 2819 4750 3233 4129 
Q 3647 3509 3647 2328 
Q 3647 1150 3233 529 
Q 2819 -91 2034 -91 
Q 1250 -91 836 529 
Q 422 1150 422 2328 
Q 422 3509 836 4129 
Q 1250 4750 2034 4750 
z
" transform="scale(0.015625)"/>
      <path id="DejaVuSans-32" d="M 1228 531 
L 3431 531 
L 3431 0 
L 469 0 
L 469 531 
Q 828 903 1448 1529 
Q 2069 2156 2228 2338 
Q 2531 2678 2651 2914 
Q 2772 3150 2772 3378 
Q 2772 3750 2511 3984 
Q 2250 4219 1831 4219 
Q 1534 4219 1204 4116 
Q 875 4013 500 3803 
L 500 4441 
Q 881 4594 1212 4672 
Q 1544 4750 1819 4750 
Q 2544 4750 2975 4387 
Q 3406 4025 3406 3419 
Q 3406 3131 3298 2873 
Q 3191 2616 2906 2266 
Q 2828 2175 2409 1742 
Q 1991 1309 1228 531 
z
" transform="scale(0.015625)"/>
     </defs>
     <use xlink:href="#DejaVuSans-31"/>
     <use xlink:href="#DejaVuSans-30" x="63.623047"/>
     <use xlink:href="#DejaVuSans-31" x="127.246094"/>
     <use xlink:href="#DejaVuSans-32" x="190.869141"/>
    </g>
   </g>
   <g id="text_3">
    <!-- 5415 -->
    <g transform="translate(192.295193 133.178628)scale(0.1 -0.1)">
     <defs>
      <path id="DejaVuSans-35" d="M 691 4666 
L 3169 4666 
L 3169 4134 
L 1269 4134 
L 1269 2991 
Q 1406 3038 1543 3061 
Q 1681 3084 1819 3084 
Q 2600 3084 3056 2656 
Q 3513 2228 3513 1497 
Q 3513 744 3044 326 
Q 2575 -91 1722 -91 
Q 1428 -91 1123 -41 
Q 819 9 494 109 
L 494 744 
Q 775 591 1075 516 
Q 1375 441 1709 441 
Q 2250 441 2565 725 
Q 2881 1009 2881 1497 
Q 2881 1984 2565 2268 
Q 2250 2553 1709 2553 
Q 1456 2553 1204 2497 
Q 953 2441 691 2322 
L 691 4666 
z
" transform="scale(0.015625)"/>
     </defs>
     <use xlink:href="#DejaVuSans-35"/>
     <use xlink:href="#DejaVuSans-34" x="63.623047"/>
     <use xlink:href="#DejaVuSans-31" x="127.246094"/>
     <use xlink:href="#DejaVuSans-35" x="190.869141"/>
    </g>
   </g>
   <g id="text_4">
    <!-- 816 -->
    <g transform="translate(63.252306 205.33554)scale(0.1 -0.1)">
     <defs>
      <path id="DejaVuSans-38" d="M 2034 2216 
Q 1584 2216 1326 1975 
Q 1069 1734 1069 1313 
Q 1069 891 1326 650 
Q 1584 409 2034 409 
Q 2484 409 2743 651 
Q 3003 894 3003 1313 
Q 3003 1734 2745 1975 
Q 2488 2216 2034 2216 
z
M 1403 2484 
Q 997 2584 770 2862 
Q 544 3141 544 3541 
Q 544 4100 942 4425 
Q 1341 4750 2034 4750 
Q 2731 4750 3128 4425 
Q 3525 4100 3525 3541 
Q 3525 3141 3298 2862 
Q 3072 2584 2669 2484 
Q 3125 2378 3379 2068 
Q 3634 1759 3634 1313 
Q 3634 634 3220 271 
Q 2806 -91 2034 -91 
Q 1263 -91 848 271 
Q 434 634 434 1313 
Q 434 1759 690 2068 
Q 947 2378 1403 2484 
z
M 1172 3481 
Q 1172 3119 1398 2916 
Q 1625 2713 2034 2713 
Q 2441 2713 2670 2916 
Q 2900 3119 2900 3481 
Q 2900 3844 2670 4047 
Q 2441 4250 2034 4250 
Q 1625 4250 1398 4047 
Q 1172 3844 1172 3481 
z
" transform="scale(0.015625)"/>
     </defs>
     <use xlink:href="#DejaVuSans-38"/>
     <use xlink:href="#DejaVuSans-31" x="63.623047"/>
     <use xlink:href="#DejaVuSans-36" x="127.246094"/>
    </g>
   </g>
   <g id="text_5">
    <!-- 7925 -->
    <g transform="translate(83.308639 166.387623)scale(0.1 -0.1)">
     <defs>
      <path id="DejaVuSans-37" d="M 525 4666 
L 3525 4666 
L 3525 4397 
L 1831 0 
L 1172 0 
L 2766 4134 
L 525 4134 
L 525 4666 
z
" transform="scale(0.015625)"/>
      <path id="DejaVuSans-39" d="M 703 97 
L 703 672 
Q 941 559 1184 500 
Q 1428 441 1663 441 
Q 2288 441 2617 861 
Q 2947 1281 2994 2138 
Q 2813 1869 2534 1725 
Q 2256 1581 1919 1581 
Q 1219 1581 811 2004 
Q 403 2428 403 3163 
Q 403 3881 828 4315 
Q 1253 4750 1959 4750 
Q 2769 4750 3195 4129 
Q 3622 3509 3622 2328 
Q 3622 1225 3098 567 
Q 2575 -91 1691 -91 
Q 1453 -91 1209 -44 
Q 966 3 703 97 
z
M 1959 2075 
Q 2384 2075 2632 2365 
Q 2881 2656 2881 3163 
Q 2881 3666 2632 3958 
Q 2384 4250 1959 4250 
Q 1534 4250 1286 3958 
Q 1038 3666 1038 3163 
Q 1038 2656 1286 2365 
Q 1534 2075 1959 2075 
z
" transform="scale(0.015625)"/>
     </defs>
     <use xlink:href="#DejaVuSans-37"/>
     <use xlink:href="#DejaVuSans-39" x="63.623047"/>
     <use xlink:href="#DejaVuSans-32" x="127.246094"/>
     <use xlink:href="#DejaVuSans-35" x="190.869141"/>
    </g>
   </g>
   <g id="text_6">
    <!-- 13781 -->
    <g transform="translate(135.672661 151.593092)scale(0.1 -0.1)">
     <use xlink:href="#DejaVuSans-31"/>
     <use xlink:href="#DejaVuSans-33" x="63.623047"/>
     <use xlink:href="#DejaVuSans-37" x="127.246094"/>
     <use xlink:href="#DejaVuSans-38" x="190.869141"/>
     <use xlink:href="#DejaVuSans-31" x="254.492188"/>
    </g>
   </g>
   <g id="text_7">
    <!-- ALL -->
    <g transform="translate(78.060962 53.832832)scale(0.12 -0.12)">
     <defs>
      <path id="DejaVuSans-41" d="M 2188 4044 
L 1331 1722 
L 3047 1722 
L 2188 4044 
z
M 1831 4666 
L 2547 4666 
L 4325 0 
L 3669 0 
L 3244 1197 
L 1141 1197 
L 716 0 
L 50 0 
L 1831 4666 
z
" transform="scale(0.015625)"/>
      <path id="DejaVuSans-4c" d="M 628 4666 
L 1259 4666 
L 1259 531 
L 3531 531 
L 3531 0 
L 628 0 
L 628 4666 
z
" transform="scale(0.015625)"/>
     </defs>
     <use xlink:href="#DejaVuSans-41"/>
     <use xlink:href="#DejaVuSans-4c" x="68.408203"/>
     <use xlink:href="#DejaVuSans-4c" x="124.121094"/>
    </g>
   </g>
   <g id="text_8">
    <!-- CD4 -->
    <g transform="translate(206.35558 70.198955)scale(0.12 -0.12)">
     <defs>
      <path id="DejaVuSans-43" d="M 4122 4306 
L 4122 3641 
Q 3803 3938 3442 4084 
Q 3081 4231 2675 4231 
Q 1875 4231 1450 3742 
Q 1025 3253 1025 2328 
Q 1025 1406 1450 917 
Q 1875 428 2675 428 
Q 3081 428 3442 575 
Q 3803 722 4122 1019 
L 4122 359 
Q 3791 134 3420 21 
Q 3050 -91 2638 -91 
Q 1578 -91 968 557 
Q 359 1206 359 2328 
Q 359 3453 968 4101 
Q 1578 4750 2638 4750 
Q 3056 4750 3426 4639 
Q 3797 4528 4122 4306 
z
" transform="scale(0.015625)"/>
      <path id="DejaVuSans-44" d="M 1259 4147 
L 1259 519 
L 2022 519 
Q 2988 519 3436 956 
Q 3884 1394 3884 2338 
Q 3884 3275 3436 3711 
Q 2988 4147 2022 4147 
L 1259 4147 
z
M 628 4666 
L 1925 4666 
Q 3281 4666 3915 4102 
Q 4550 3538 4550 2338 
Q 4550 1131 3912 565 
Q 3275 0 1925 0 
L 628 0 
L 628 4666 
z
" transform="scale(0.015625)"/>
     </defs>
     <use xlink:href="#DejaVuSans-43"/>
     <use xlink:href="#DejaVuSans-44" x="69.824219"/>
     <use xlink:href="#DejaVuSans-34" x="146.826172"/>
    </g>
   </g>
   <g id="text_9">
    <!-- CD8 -->
    <g transform="translate(116.808943 249.556836)scale(0.12 -0.12)">
     <use xlink:href="#DejaVuSans-43"/>
     <use xlink:href="#DejaVuSans-44" x="69.824219"/>
     <use xlink:href="#DejaVuSans-38" x="146.826172"/>
    </g>
   </g>
  </g>
 </g>
 <defs>
  <clipPath id="pdb4f5cc231">
   <rect x="36" y="37.512132" width="223.2" height="211.535736"/>
  </clipPath>
 </defs>
</svg>
