<?xml version="1.0" encoding="utf-8" standalone="no"?>
<!DOCTYPE svg PUBLIC "-//W3C//DTD SVG 1.1//EN"
  "http://www.w3.org/Graphics/SVG/1.1/DTD/svg11.dtd">
<svg xmlns:xlink="http://www.w3.org/1999/xlink" width="288pt" height="288pt" viewBox="0 0 288 288" xmlns="http://www.w3.org/2000/svg" version="1.1">
 <metadata>
  <rdf:RDF xmlns:dc="http://purl.org/dc/elements/1.1/" xmlns:cc="http://creativecommons.org/ns#" xmlns:rdf="http://www.w3.org/1999/02/22-rdf-syntax-ns#">
   <cc:Work>
    <dc:type rdf:resource="http://purl.org/dc/dcmitype/StillImage"/>
    <dc:date>2023-06-19T14:12:18.491783</dc:date>
    <dc:format>image/svg+xml</dc:format>
    <dc:creator>
     <cc:Agent>
      <dc:title>Matplotlib v3.5.1, https://matplotlib.org/</dc:title>
     </cc:Agent>
    </dc:creator>
   </cc:Work>
  </rdf:RDF>
 </metadata>
 <defs>
  <style type="text/css">*{stroke-linejoin: round; stroke-linecap: butt}</style>
 </defs>
 <g id="figure_1">
  <g id="patch_1">
   <path d="M 0 288 
L 288 288 
L 288 0 
L 0 0 
L 0 288 
z
" style="fill: none"/>
  </g>
  <g id="axes_1">
   <g id="patch_2">
    <path d="M 146.174609 188.821195 
C 139.607718 183.188897 134.336097 176.202281 130.722267 168.341805 
C 127.108437 160.48133 125.23718 151.931407 125.23718 143.28 
C 125.23718 134.628593 127.108437 126.07867 130.722267 118.218195 
C 134.336097 110.357719 139.607718 103.371103 146.174609 97.738805 
C 137.551285 90.671382 127.095414 86.196489 116.029139 84.837177 
C 104.962863 83.477864 93.734826 85.289241 83.657424 90.059583 
C 73.580023 94.829925 65.06181 102.365835 59.098442 111.786474 
C 53.135074 121.207112 49.968316 132.130552 49.968316 143.28 
C 49.968316 154.429448 53.135074 165.352888 59.098442 174.773526 
C 65.06181 184.194165 73.580023 191.730075 83.657424 196.500417 
C 93.734826 201.270759 104.962863 203.082136 116.029139 201.722823 
C 127.095414 200.363511 137.551285 195.888618 146.174609 188.821195 
" clip-path="url(#pf02adb4999)" style="fill: #000080; opacity: 0.4"/>
   </g>
   <g id="patch_3">
    <path d="M 146.174609 97.738805 
C 152.913344 103.261674 158.342998 110.212009 162.070803 118.087039 
C 165.798608 125.962069 167.732455 134.567215 167.732455 143.28 
C 167.732455 151.992785 165.798608 160.597931 162.070803 168.472961 
C 158.342998 176.347991 152.913344 183.298326 146.174609 188.821195 
C 154.884537 196.291536 165.557422 201.108664 176.921448 202.698554 
C 188.285474 204.288444 199.870577 202.585331 210.296237 197.792165 
C 220.721898 192.998999 229.556867 185.314044 235.748339 175.653066 
C 241.939812 165.992088 245.231684 154.754704 245.231684 143.28 
C 245.231684 131.805296 241.939812 120.567912 235.748339 110.906934 
C 229.556867 101.245956 220.721898 93.561001 210.296237 88.767835 
C 199.870577 83.974669 188.285474 82.271556 176.921448 83.861446 
C 165.557422 85.451336 154.884537 90.268464 146.174609 97.738805 
" clip-path="url(#pf02adb4999)" style="fill: #ff6347; opacity: 0.4"/>
   </g>
   <g id="patch_4">
    <path d="M 146.174609 188.821195 
C 152.913344 183.298326 158.342998 176.347991 162.070803 168.472961 
C 165.798608 160.597931 167.732455 151.992785 167.732455 143.28 
C 167.732455 134.567215 165.798608 125.962069 162.070803 118.087039 
C 158.342998 110.212009 152.913344 103.261674 146.174609 97.738805 
C 139.607718 103.371103 134.336097 110.357719 130.722267 118.218195 
C 127.108437 126.07867 125.23718 134.628593 125.23718 143.28 
C 125.23718 151.931407 127.108437 160.48133 130.722267 168.341805 
C 134.336097 176.202281 139.607718 183.188897 146.174609 188.821195 
" clip-path="url(#pf02adb4999)" style="fill: #b2458b; opacity: 0.4"/>
   </g>
   <g id="text_1">
    <text style="font: 10px 'sans-serif'; text-anchor: middle" x="87.602748" y="146.039375" transform="rotate(-0, 87.602748, 146.039375)">1162</text>
   </g>
   <g id="text_2">
    <text style="font: 10px 'sans-serif'; text-anchor: middle" x="206.482069" y="146.039375" transform="rotate(-0, 206.482069, 146.039375)">1221</text>
   </g>
   <g id="text_3">
    <text style="font: 10px 'sans-serif'; text-anchor: middle" x="146.484818" y="146.039375" transform="rotate(-0, 146.484818, 146.039375)">381</text>
   </g>
   <g id="text_4">
    <text style="font: 12px 'sans-serif'; text-anchor: end" x="108.850386" y="217.22416" transform="rotate(-0, 108.850386, 217.22416)">CD4</text>
   </g>
   <g id="text_5">
    <text style="font: 12px 'sans-serif'; text-anchor: start" x="185.234432" y="218.339343" transform="rotate(-0, 185.234432, 218.339343)">CD8</text>
   </g>
  </g>
 </g>
 <defs>
  <clipPath id="pf02adb4999">
   <rect x="36" y="69.314432" width="223.2" height="147.931136"/>
  </clipPath>
 </defs>
</svg>
