<?xml version="1.0" encoding="utf-8" standalone="no"?>
<!DOCTYPE svg PUBLIC "-//W3C//DTD SVG 1.1//EN"
  "http://www.w3.org/Graphics/SVG/1.1/DTD/svg11.dtd">
<svg xmlns:xlink="http://www.w3.org/1999/xlink" width="288pt" height="288pt" viewBox="0 0 288 288" xmlns="http://www.w3.org/2000/svg" version="1.1">
 <metadata>
  <rdf:RDF xmlns:dc="http://purl.org/dc/elements/1.1/" xmlns:cc="http://creativecommons.org/ns#" xmlns:rdf="http://www.w3.org/1999/02/22-rdf-syntax-ns#">
   <cc:Work>
    <dc:type rdf:resource="http://purl.org/dc/dcmitype/StillImage"/>
    <dc:date>2024-06-17T20:18:24.879139</dc:date>
    <dc:format>image/svg+xml</dc:format>
    <dc:creator>
     <cc:Agent>
      <dc:title>Matplotlib v3.7.1, https://matplotlib.org/</dc:title>
     </cc:Agent>
    </dc:creator>
   </cc:Work>
  </rdf:RDF>
 </metadata>
 <defs>
  <style type="text/css">*{stroke-linejoin: round; stroke-linecap: butt}</style>
 </defs>
 <g id="figure_1">
  <g id="patch_1">
   <path d="M 0 288 
L 288 288 
L 288 0 
L 0 0 
z
" style="fill: #ffffff"/>
  </g>
  <g id="axes_1">
   <g id="patch_2">
    <path d="M 144.332352 87.811547 
C 137.327879 82.297874 129.142646 78.477427 120.41786 76.649489 
C 111.693075 74.821551 102.662669 75.035134 94.034058 77.273505 
C 85.405446 79.511877 77.409984 83.715022 70.67401 89.553678 
C 63.938037 95.392334 58.64216 102.709953 55.201244 110.933294 
C 51.760328 119.156635 50.266631 128.06521 50.837165 136.961149 
C 51.4077 145.857088 54.027168 154.501869 58.490368 162.218286 
C 62.953569 169.934702 69.140833 176.515858 76.567468 181.446206 
C 83.994104 186.376554 92.460984 189.523898 101.304841 190.641687 
C 97.912958 184.358315 95.848012 177.444507 95.238397 170.330156 
C 94.628782 163.215804 95.4874 156.051482 97.760865 149.282657 
C 100.034329 142.513832 103.674522 136.283766 108.455101 130.979834 
C 113.235681 125.675902 119.055466 121.410362 125.552592 118.448439 
C 127.046939 112.541805 129.426645 106.895202 132.610761 101.700704 
C 135.794877 96.506207 139.746885 91.823391 144.332352 87.811547 
" clip-path="url(#p2958e41fdb)" style="fill: #000080; opacity: 0.4"/>
   </g>
   <g id="patch_3">
    <path d="M 144.332352 87.811547 
C 148.963469 91.456999 153.010292 95.788993 156.332434 100.657251 
C 159.654577 105.525509 162.213175 110.87308 163.919472 116.514456 
C 171.33454 119.02951 178.088527 123.183248 183.678299 128.666238 
C 189.268071 134.149228 193.551289 140.821853 196.208878 148.187038 
C 198.866467 155.552224 199.830754 163.422423 199.029904 171.211349 
C 198.229055 179.000275 195.683462 186.509592 191.582758 193.179896 
C 200.952691 192.008981 209.91865 188.656427 217.758088 183.39241 
C 225.597527 178.128393 232.094044 171.098222 236.724099 162.868443 
C 241.354154 154.638664 243.989938 145.436453 244.419039 136.003397 
C 244.848141 126.570341 243.058714 117.166832 239.194966 108.550677 
C 235.331217 99.934523 229.499802 92.343565 222.170662 86.389543 
C 214.841522 80.435521 206.216972 76.282791 196.992045 74.266011 
C 187.767118 72.249232 178.196462 72.424075 169.051354 74.776451 
C 159.906246 77.128827 151.43913 81.5938 144.332352 87.811547 
" clip-path="url(#p2958e41fdb)" style="fill: #ff6347; opacity: 0.4"/>
   </g>
   <g id="patch_4">
    <path d="M 144.332352 87.811547 
C 139.746885 91.823391 135.794877 96.506207 132.610761 101.700704 
C 129.426645 106.895202 127.046939 112.541805 125.552592 118.448439 
C 131.536616 115.72043 137.9832 114.149334 144.551379 113.818247 
C 151.119557 113.487161 157.691452 114.402027 163.919472 116.514456 
C 162.213175 110.87308 159.654577 105.525509 156.332434 100.657251 
C 153.010292 95.788993 148.963469 91.456999 144.332352 87.811547 
" clip-path="url(#p2958e41fdb)" style="fill: #b2458b; opacity: 0.4"/>
   </g>
   <g id="patch_5">
    <path d="M 101.304841 190.641687 
C 105.653234 198.696971 112.047726 205.466494 119.842381 210.266438 
C 127.637037 215.066382 136.560254 217.729494 145.71066 217.986763 
C 154.861066 218.244031 163.919819 216.086491 171.971854 211.732084 
C 180.023889 207.377678 186.788635 200.978134 191.582758 193.179896 
C 183.131905 194.235959 174.552459 193.492384 166.40931 190.99813 
C 158.26616 188.503876 150.742039 184.314913 144.332352 178.707053 
C 138.309204 183.448262 131.403188 186.94515 124.016727 188.993949 
C 116.630266 191.042747 108.909675 191.602873 101.304841 190.641687 
" clip-path="url(#p2958e41fdb)" style="fill: #008000; opacity: 0.4"/>
   </g>
   <g id="patch_6">
    <path d="M 101.304841 190.641687 
C 108.909675 191.602873 116.630266 191.042747 124.016727 188.993949 
C 131.403188 186.94515 138.309204 183.448262 144.332352 178.707053 
C 135.949535 171.372894 129.75709 161.860458 126.443026 151.226621 
C 123.128962 140.592785 122.820736 129.246516 125.552592 118.448439 
C 119.055466 121.410362 113.235681 125.675902 108.455101 130.979834 
C 103.674522 136.283766 100.034329 142.513832 97.760865 149.282657 
C 95.4874 156.051482 94.628782 163.215804 95.238397 170.330156 
C 95.848012 177.444507 97.912958 184.358315 101.304841 190.641687 
" clip-path="url(#p2958e41fdb)" style="fill: #005a5a; opacity: 0.4"/>
   </g>
   <g id="patch_7">
    <path d="M 163.919472 116.514456 
C 167.28663 127.646992 167.218862 139.540496 163.72506 150.633938 
C 160.231258 161.727381 153.471272 171.513218 144.332352 178.707053 
C 150.742039 184.314913 158.26616 188.503876 166.40931 190.99813 
C 174.552459 193.492384 183.131905 194.235959 191.582758 193.179896 
C 195.683462 186.509592 198.229055 179.000275 199.029904 171.211349 
C 199.830754 163.422423 198.866467 155.552224 196.208878 148.187038 
C 193.551289 140.821853 189.268071 134.149228 183.678299 128.666238 
C 178.088527 123.183248 171.33454 119.02951 163.919472 116.514456 
" clip-path="url(#p2958e41fdb)" style="fill: #b29f32; opacity: 0.4"/>
   </g>
   <g id="patch_8">
    <path d="M 125.552592 118.448439 
C 122.820736 129.246516 123.128962 140.592785 126.443026 151.226621 
C 129.75709 161.860458 135.949535 171.372894 144.332352 178.707053 
C 153.471272 171.513218 160.231258 161.727381 163.72506 150.633938 
C 167.218862 139.540496 167.28663 127.646992 163.919472 116.514456 
C 157.691452 114.402027 151.119557 113.487161 144.551379 113.818247 
C 137.9832 114.149334 131.536616 115.72043 125.552592 118.448439 
" clip-path="url(#p2958e41fdb)" style="fill: #665b50; opacity: 0.4"/>
   </g>
   <g id="text_1">
    <!-- 309 -->
    <g transform="translate(65.317836 123.35337) scale(0.1 -0.1)">
     <defs>
      <path id="DejaVuSans-33" d="M 2597 2516 
Q 3050 2419 3304 2112 
Q 3559 1806 3559 1356 
Q 3559 666 3084 287 
Q 2609 -91 1734 -91 
Q 1441 -91 1130 -33 
Q 819 25 488 141 
L 488 750 
Q 750 597 1062 519 
Q 1375 441 1716 441 
Q 2309 441 2620 675 
Q 2931 909 2931 1356 
Q 2931 1769 2642 2001 
Q 2353 2234 1838 2234 
L 1294 2234 
L 1294 2753 
L 1863 2753 
Q 2328 2753 2575 2939 
Q 2822 3125 2822 3475 
Q 2822 3834 2567 4026 
Q 2313 4219 1838 4219 
Q 1578 4219 1281 4162 
Q 984 4106 628 3988 
L 628 4550 
Q 988 4650 1302 4700 
Q 1616 4750 1894 4750 
Q 2613 4750 3031 4423 
Q 3450 4097 3450 3541 
Q 3450 3153 3228 2886 
Q 3006 2619 2597 2516 
z
" transform="scale(0.015625)"/>
      <path id="DejaVuSans-30" d="M 2034 4250 
Q 1547 4250 1301 3770 
Q 1056 3291 1056 2328 
Q 1056 1369 1301 889 
Q 1547 409 2034 409 
Q 2525 409 2770 889 
Q 3016 1369 3016 2328 
Q 3016 3291 2770 3770 
Q 2525 4250 2034 4250 
z
M 2034 4750 
Q 2819 4750 3233 4129 
Q 3647 3509 3647 2328 
Q 3647 1150 3233 529 
Q 2819 -91 2034 -91 
Q 1250 -91 836 529 
Q 422 1150 422 2328 
Q 422 3509 836 4129 
Q 1250 4750 2034 4750 
z
" transform="scale(0.015625)"/>
      <path id="DejaVuSans-39" d="M 703 97 
L 703 672 
Q 941 559 1184 500 
Q 1428 441 1663 441 
Q 2288 441 2617 861 
Q 2947 1281 2994 2138 
Q 2813 1869 2534 1725 
Q 2256 1581 1919 1581 
Q 1219 1581 811 2004 
Q 403 2428 403 3163 
Q 403 3881 828 4315 
Q 1253 4750 1959 4750 
Q 2769 4750 3195 4129 
Q 3622 3509 3622 2328 
Q 3622 1225 3098 567 
Q 2575 -91 1691 -91 
Q 1453 -91 1209 -44 
Q 966 3 703 97 
z
M 1959 2075 
Q 2384 2075 2632 2365 
Q 2881 2656 2881 3163 
Q 2881 3666 2632 3958 
Q 2384 4250 1959 4250 
Q 1534 4250 1286 3958 
Q 1038 3666 1038 3163 
Q 1038 2656 1286 2365 
Q 1534 2075 1959 2075 
z
" transform="scale(0.015625)"/>
     </defs>
     <use xlink:href="#DejaVuSans-33"/>
     <use xlink:href="#DejaVuSans-30" x="63.623047"/>
     <use xlink:href="#DejaVuSans-39" x="127.246094"/>
    </g>
   </g>
   <g id="text_2">
    <!-- 335 -->
    <g transform="translate(208.853508 122.110853) scale(0.1 -0.1)">
     <defs>
      <path id="DejaVuSans-35" d="M 691 4666 
L 3169 4666 
L 3169 4134 
L 1269 4134 
L 1269 2991 
Q 1406 3038 1543 3061 
Q 1681 3084 1819 3084 
Q 2600 3084 3056 2656 
Q 3513 2228 3513 1497 
Q 3513 744 3044 326 
Q 2575 -91 1722 -91 
Q 1428 -91 1123 -41 
Q 819 9 494 109 
L 494 744 
Q 775 591 1075 516 
Q 1375 441 1709 441 
Q 2250 441 2565 725 
Q 2881 1009 2881 1497 
Q 2881 1984 2565 2268 
Q 2250 2553 1709 2553 
Q 1456 2553 1204 2497 
Q 953 2441 691 2322 
L 691 4666 
z
" transform="scale(0.015625)"/>
     </defs>
     <use xlink:href="#DejaVuSans-33"/>
     <use xlink:href="#DejaVuSans-33" x="63.623047"/>
     <use xlink:href="#DejaVuSans-35" x="127.246094"/>
    </g>
   </g>
   <g id="text_3">
    <!-- 8 -->
    <g transform="translate(141.357019 108.781086) scale(0.1 -0.1)">
     <defs>
      <path id="DejaVuSans-38" d="M 2034 2216 
Q 1584 2216 1326 1975 
Q 1069 1734 1069 1313 
Q 1069 891 1326 650 
Q 1584 409 2034 409 
Q 2484 409 2743 651 
Q 3003 894 3003 1313 
Q 3003 1734 2745 1975 
Q 2488 2216 2034 2216 
z
M 1403 2484 
Q 997 2584 770 2862 
Q 544 3141 544 3541 
Q 544 4100 942 4425 
Q 1341 4750 2034 4750 
Q 2731 4750 3128 4425 
Q 3525 4100 3525 3541 
Q 3525 3141 3298 2862 
Q 3072 2584 2669 2484 
Q 3125 2378 3379 2068 
Q 3634 1759 3634 1313 
Q 3634 634 3220 271 
Q 2806 -91 2034 -91 
Q 1263 -91 848 271 
Q 434 634 434 1313 
Q 434 1759 690 2068 
Q 947 2378 1403 2484 
z
M 1172 3481 
Q 1172 3119 1398 2916 
Q 1625 2713 2034 2713 
Q 2441 2713 2670 2916 
Q 2900 3119 2900 3481 
Q 2900 3844 2670 4047 
Q 2441 4250 2034 4250 
Q 1625 4250 1398 4047 
Q 1172 3844 1172 3481 
z
" transform="scale(0.015625)"/>
     </defs>
     <use xlink:href="#DejaVuSans-38"/>
    </g>
   </g>
   <g id="text_4">
    <!-- 119 -->
    <g transform="translate(136.235672 208.488702) scale(0.1 -0.1)">
     <defs>
      <path id="DejaVuSans-31" d="M 794 531 
L 1825 531 
L 1825 4091 
L 703 3866 
L 703 4441 
L 1819 4666 
L 2450 4666 
L 2450 531 
L 3481 531 
L 3481 0 
L 794 0 
L 794 531 
z
" transform="scale(0.015625)"/>
     </defs>
     <use xlink:href="#DejaVuSans-31"/>
     <use xlink:href="#DejaVuSans-31" x="63.623047"/>
     <use xlink:href="#DejaVuSans-39" x="127.246094"/>
    </g>
   </g>
   <g id="text_5">
    <!-- 79 -->
    <g transform="translate(106.227942 161.562825) scale(0.1 -0.1)">
     <defs>
      <path id="DejaVuSans-37" d="M 525 4666 
L 3525 4666 
L 3525 4397 
L 1831 0 
L 1172 0 
L 2766 4134 
L 525 4134 
L 525 4666 
z
" transform="scale(0.015625)"/>
     </defs>
     <use xlink:href="#DejaVuSans-37"/>
     <use xlink:href="#DejaVuSans-39" x="63.623047"/>
    </g>
   </g>
   <g id="text_6">
    <!-- 100 -->
    <g transform="translate(169.972667 161.120298) scale(0.1 -0.1)">
     <use xlink:href="#DejaVuSans-31"/>
     <use xlink:href="#DejaVuSans-30" x="63.623047"/>
     <use xlink:href="#DejaVuSans-30" x="127.246094"/>
    </g>
   </g>
   <g id="text_7">
    <!-- 126 -->
    <g transform="translate(136.006053 144.503197) scale(0.1 -0.1)">
     <defs>
      <path id="DejaVuSans-32" d="M 1228 531 
L 3431 531 
L 3431 0 
L 469 0 
L 469 531 
Q 828 903 1448 1529 
Q 2069 2156 2228 2338 
Q 2531 2678 2651 2914 
Q 2772 3150 2772 3378 
Q 2772 3750 2511 3984 
Q 2250 4219 1831 4219 
Q 1534 4219 1204 4116 
Q 875 4013 500 3803 
L 500 4441 
Q 881 4594 1212 4672 
Q 1544 4750 1819 4750 
Q 2544 4750 2975 4387 
Q 3406 4025 3406 3419 
Q 3406 3131 3298 2873 
Q 3191 2616 2906 2266 
Q 2828 2175 2409 1742 
Q 1991 1309 1228 531 
z
" transform="scale(0.015625)"/>
      <path id="DejaVuSans-36" d="M 2113 2584 
Q 1688 2584 1439 2293 
Q 1191 2003 1191 1497 
Q 1191 994 1439 701 
Q 1688 409 2113 409 
Q 2538 409 2786 701 
Q 3034 994 3034 1497 
Q 3034 2003 2786 2293 
Q 2538 2584 2113 2584 
z
M 3366 4563 
L 3366 3988 
Q 3128 4100 2886 4159 
Q 2644 4219 2406 4219 
Q 1781 4219 1451 3797 
Q 1122 3375 1075 2522 
Q 1259 2794 1537 2939 
Q 1816 3084 2150 3084 
Q 2853 3084 3261 2657 
Q 3669 2231 3669 1497 
Q 3669 778 3244 343 
Q 2819 -91 2113 -91 
Q 1303 -91 875 529 
Q 447 1150 447 2328 
Q 447 3434 972 4092 
Q 1497 4750 2381 4750 
Q 2619 4750 2861 4703 
Q 3103 4656 3366 4563 
z
" transform="scale(0.015625)"/>
     </defs>
     <use xlink:href="#DejaVuSans-31"/>
     <use xlink:href="#DejaVuSans-32" x="63.623047"/>
     <use xlink:href="#DejaVuSans-36" x="127.246094"/>
    </g>
   </g>
   <g id="text_8">
    <!-- CD4 -->
    <g transform="translate(54.383658 75.420393) scale(0.12 -0.12)">
     <defs>
      <path id="DejaVuSans-43" d="M 4122 4306 
L 4122 3641 
Q 3803 3938 3442 4084 
Q 3081 4231 2675 4231 
Q 1875 4231 1450 3742 
Q 1025 3253 1025 2328 
Q 1025 1406 1450 917 
Q 1875 428 2675 428 
Q 3081 428 3442 575 
Q 3803 722 4122 1019 
L 4122 359 
Q 3791 134 3420 21 
Q 3050 -91 2638 -91 
Q 1578 -91 968 557 
Q 359 1206 359 2328 
Q 359 3453 968 4101 
Q 1578 4750 2638 4750 
Q 3056 4750 3426 4639 
Q 3797 4528 4122 4306 
z
" transform="scale(0.015625)"/>
      <path id="DejaVuSans-44" d="M 1259 4147 
L 1259 519 
L 2022 519 
Q 2988 519 3436 956 
Q 3884 1394 3884 2338 
Q 3884 3275 3436 3711 
Q 2988 4147 2022 4147 
L 1259 4147 
z
M 628 4666 
L 1925 4666 
Q 3281 4666 3915 4102 
Q 4550 3538 4550 2338 
Q 4550 1131 3912 565 
Q 3275 0 1925 0 
L 628 0 
L 628 4666 
z
" transform="scale(0.015625)"/>
      <path id="DejaVuSans-34" d="M 2419 4116 
L 825 1625 
L 2419 1625 
L 2419 4116 
z
M 2253 4666 
L 3047 4666 
L 3047 1625 
L 3713 1625 
L 3713 1100 
L 3047 1100 
L 3047 0 
L 2419 0 
L 2419 1100 
L 313 1100 
L 313 1709 
L 2253 4666 
z
" transform="scale(0.015625)"/>
     </defs>
     <use xlink:href="#DejaVuSans-43"/>
     <use xlink:href="#DejaVuSans-44" x="69.824219"/>
     <use xlink:href="#DejaVuSans-34" x="146.826172"/>
    </g>
   </g>
   <g id="text_9">
    <!-- CD8 -->
    <g transform="translate(214.288094 72.872647) scale(0.12 -0.12)">
     <use xlink:href="#DejaVuSans-43"/>
     <use xlink:href="#DejaVuSans-44" x="69.824219"/>
     <use xlink:href="#DejaVuSans-38" x="146.826172"/>
    </g>
   </g>
   <g id="text_10">
    <!-- ALL -->
    <g transform="translate(136.38505 232.338239) scale(0.12 -0.12)">
     <defs>
      <path id="DejaVuSans-41" d="M 2188 4044 
L 1331 1722 
L 3047 1722 
L 2188 4044 
z
M 1831 4666 
L 2547 4666 
L 4325 0 
L 3669 0 
L 3244 1197 
L 1141 1197 
L 716 0 
L 50 0 
L 1831 4666 
z
" transform="scale(0.015625)"/>
      <path id="DejaVuSans-4c" d="M 628 4666 
L 1259 4666 
L 1259 531 
L 3531 531 
L 3531 0 
L 628 0 
L 628 4666 
z
" transform="scale(0.015625)"/>
     </defs>
     <use xlink:href="#DejaVuSans-41"/>
     <use xlink:href="#DejaVuSans-4c" x="68.408203"/>
     <use xlink:href="#DejaVuSans-4c" x="124.121094"/>
    </g>
   </g>
  </g>
 </g>
 <defs>
  <clipPath id="p2958e41fdb">
   <rect x="36" y="58.154067" width="223.2" height="174.571866"/>
  </clipPath>
 </defs>
</svg>
