<?xml version="1.0" encoding="utf-8" standalone="no"?>
<!DOCTYPE svg PUBLIC "-//W3C//DTD SVG 1.1//EN"
  "http://www.w3.org/Graphics/SVG/1.1/DTD/svg11.dtd">
<svg xmlns:xlink="http://www.w3.org/1999/xlink" width="288pt" height="288pt" viewBox="0 0 288 288" xmlns="http://www.w3.org/2000/svg" version="1.1">
 <metadata>
  <rdf:RDF xmlns:dc="http://purl.org/dc/elements/1.1/" xmlns:cc="http://creativecommons.org/ns#" xmlns:rdf="http://www.w3.org/1999/02/22-rdf-syntax-ns#">
   <cc:Work>
    <dc:type rdf:resource="http://purl.org/dc/dcmitype/StillImage"/>
    <dc:date>2024-06-18T17:23:09.760816</dc:date>
    <dc:format>image/svg+xml</dc:format>
    <dc:creator>
     <cc:Agent>
      <dc:title>Matplotlib v3.7.1, https://matplotlib.org/</dc:title>
     </cc:Agent>
    </dc:creator>
   </cc:Work>
  </rdf:RDF>
 </metadata>
 <defs>
  <style type="text/css">*{stroke-linejoin: round; stroke-linecap: butt}</style>
 </defs>
 <g id="figure_1">
  <g id="patch_1">
   <path d="M 0 288 
L 288 288 
L 288 0 
L 0 0 
z
" style="fill: #ffffff"/>
  </g>
  <g id="axes_1">
   <g id="patch_2">
    <path d="M 144.448408 86.791458 
C 137.29198 81.430415 129.001898 77.778895 120.215782 76.117749 
C 111.429667 74.456604 102.378701 74.829541 93.759029 77.207878 
C 85.139357 79.586215 77.177783 83.907371 70.48666 89.838991 
C 63.795537 95.77061 58.550926 103.156618 55.156209 111.428929 
C 51.761491 119.70124 50.305991 128.642189 50.901655 137.564096 
C 51.497319 146.486002 54.128475 155.154109 58.592751 162.90172 
C 63.057026 170.649332 69.236955 177.272589 76.657217 182.262072 
C 84.077479 187.251556 92.542828 190.475981 101.402164 191.687345 
C 97.745848 185.344703 95.444324 178.312175 94.643327 171.035077 
C 93.84233 163.757978 94.559133 156.393221 96.748346 149.407156 
C 98.937559 142.421091 102.551977 135.964355 107.362728 130.445802 
C 112.173479 124.927248 118.076832 120.465871 124.698973 117.344173 
C 126.349872 111.400361 128.893226 105.74134 132.24206 100.560637 
C 135.590893 95.379934 139.706592 90.737285 144.448408 86.791458 
" clip-path="url(#p69ba534b02)" style="fill: #000080; opacity: 0.4"/>
   </g>
   <g id="patch_3">
    <path d="M 144.448408 86.791458 
C 149.218302 90.364694 153.414919 94.645202 156.893057 99.484877 
C 160.371196 104.324552 163.090274 109.666926 164.956211 115.327154 
C 172.501559 117.999504 179.343655 122.348292 184.966424 128.045502 
C 190.589192 133.742712 194.847618 140.64141 197.420504 148.221251 
C 199.993389 155.801092 200.814377 163.866587 199.821544 171.809383 
C 198.82871 179.752179 196.047661 187.367426 191.688162 194.080733 
C 201.044244 192.805257 209.977422 189.373776 217.781364 184.057611 
C 225.585306 178.741447 232.048764 171.684505 236.660684 163.444765 
C 241.272604 155.205025 243.908143 146.005533 244.358915 136.573676 
C 244.809686 127.141819 243.063488 117.732913 239.258388 109.090903 
C 235.453288 100.448893 229.692289 92.807715 222.430902 86.771542 
C 215.169516 80.735368 206.604304 76.467597 197.412504 74.305672 
C 188.220703 72.143747 178.651131 72.146191 169.460435 74.31281 
C 160.26974 76.47943 151.70671 80.751576 144.448408 86.791458 
" clip-path="url(#p69ba534b02)" style="fill: #ff6347; opacity: 0.4"/>
   </g>
   <g id="patch_4">
    <path d="M 144.448408 86.791458 
C 139.706592 90.737285 135.590893 95.379934 132.24206 100.560637 
C 128.893226 105.74134 126.349872 111.400361 124.698973 117.344173 
C 130.952516 114.396234 137.723281 112.701336 144.628167 112.355379 
C 151.533053 112.009421 158.439324 113.019055 164.956211 115.327154 
C 163.090274 109.666926 160.371196 104.324552 156.893057 99.484877 
C 153.414919 94.645202 149.218302 90.364694 144.448408 86.791458 
" clip-path="url(#p69ba534b02)" style="fill: #b2458b; opacity: 0.4"/>
   </g>
   <g id="patch_5">
    <path d="M 101.402164 191.687345 
C 105.928254 199.538793 112.395075 206.09841 120.181245 210.735896 
C 127.967415 215.373382 136.815296 217.935287 145.874714 218.175443 
C 154.934132 218.415598 163.905318 216.326058 171.926249 212.107602 
C 179.947181 207.889146 186.752453 201.681359 191.688162 194.080733 
C 183.305347 195.223528 174.775714 194.609278 166.643142 192.27715 
C 158.510569 189.945022 150.951664 185.945661 144.448408 180.534079 
C 138.345122 185.106189 131.40716 188.442491 124.025031 190.355198 
C 116.642901 192.267905 108.957757 192.720445 101.402164 191.687345 
" clip-path="url(#p69ba534b02)" style="fill: #008000; opacity: 0.4"/>
   </g>
   <g id="patch_6">
    <path d="M 101.402164 191.687345 
C 108.957757 192.720445 116.642901 192.267905 124.025031 190.355198 
C 131.40716 188.442491 138.345122 185.106189 144.448408 180.534079 
C 135.421756 173.022693 128.754269 163.061259 125.251166 151.852797 
C 121.748062 140.644335 121.556278 128.658978 124.698973 117.344173 
C 118.076832 120.465871 112.173479 124.927248 107.362728 130.445802 
C 102.551977 135.964355 98.937559 142.421091 96.748346 149.407156 
C 94.559133 156.393221 93.84233 163.757978 94.643327 171.035077 
C 95.444324 178.312175 97.745848 185.344703 101.402164 191.687345 
" clip-path="url(#p69ba534b02)" style="fill: #005a5a; opacity: 0.4"/>
   </g>
   <g id="patch_7">
    <path d="M 164.956211 115.327154 
C 168.795347 126.97298 168.881589 139.53559 165.202705 151.233027 
C 161.52382 162.930465 154.262386 173.182204 144.448408 180.534079 
C 150.951664 185.945661 158.510569 189.945022 166.643142 192.27715 
C 174.775714 194.609278 183.305347 195.223528 191.688162 194.080733 
C 196.047661 187.367426 198.82871 179.752179 199.821544 171.809383 
C 200.814377 163.866587 199.993389 155.801092 197.420504 148.221251 
C 194.847618 140.64141 190.589192 133.742712 184.966424 128.045502 
C 179.343655 122.348292 172.501559 117.999504 164.956211 115.327154 
" clip-path="url(#p69ba534b02)" style="fill: #b29f32; opacity: 0.4"/>
   </g>
   <g id="patch_8">
    <path d="M 124.698973 117.344173 
C 121.556278 128.658978 121.748062 140.644335 125.251166 151.852797 
C 128.754269 163.061259 135.421756 173.022693 144.448408 180.534079 
C 154.262386 173.182204 161.52382 162.930465 165.202705 151.233027 
C 168.881589 139.53559 168.795347 126.97298 164.956211 115.327154 
C 158.439324 113.019055 151.533053 112.009421 144.628167 112.355379 
C 137.723281 112.701336 130.952516 114.396234 124.698973 117.344173 
" clip-path="url(#p69ba534b02)" style="fill: #665b50; opacity: 0.4"/>
   </g>
   <g id="text_1">
    <text style="font: 10px 'DejaVu Sans', 'Bitstream Vera Sans', 'Computer Modern Sans Serif', 'Lucida Grande', 'Verdana', 'Geneva', 'Lucid', 'Arial', 'Helvetica', 'Avant Garde', sans-serif; text-anchor: middle" x="74.700686" y="123.701629" transform="rotate(-0 74.700686 123.701629)">321</text>
   </g>
   <g id="text_2">
    <text style="font: 10px 'DejaVu Sans', 'Bitstream Vera Sans', 'Computer Modern Sans Serif', 'Lucida Grande', 'Verdana', 'Geneva', 'Lucid', 'Arial', 'Helvetica', 'Avant Garde', sans-serif; text-anchor: middle" x="218.694156" y="122.450357" transform="rotate(-0 218.694156 122.450357)">346</text>
   </g>
   <g id="text_3">
    <text style="font: 10px 'DejaVu Sans', 'Bitstream Vera Sans', 'Computer Modern Sans Serif', 'Lucida Grande', 'Verdana', 'Geneva', 'Lucid', 'Arial', 'Helvetica', 'Avant Garde', sans-serif; text-anchor: middle" x="144.613335" y="107.605684" transform="rotate(-0 144.613335 107.605684)">8</text>
   </g>
   <g id="text_4">
    <text style="font: 10px 'DejaVu Sans', 'Bitstream Vera Sans', 'Computer Modern Sans Serif', 'Lucida Grande', 'Verdana', 'Geneva', 'Lucid', 'Arial', 'Helvetica', 'Avant Garde', sans-serif; text-anchor: middle" x="145.932412" y="209.116245" transform="rotate(-0 145.932412 209.116245)">121</text>
   </g>
   <g id="text_5">
    <text style="font: 10px 'DejaVu Sans', 'Bitstream Vera Sans', 'Computer Modern Sans Serif', 'Lucida Grande', 'Verdana', 'Geneva', 'Lucid', 'Arial', 'Helvetica', 'Avant Garde', sans-serif; text-anchor: middle" x="111.821017" y="161.859523" transform="rotate(-0 111.821017 161.859523)">84</text>
   </g>
   <g id="text_6">
    <text style="font: 10px 'DejaVu Sans', 'Bitstream Vera Sans', 'Computer Modern Sans Serif', 'Lucida Grande', 'Verdana', 'Geneva', 'Lucid', 'Arial', 'Helvetica', 'Avant Garde', sans-serif; text-anchor: middle" x="180.501249" y="161.361131" transform="rotate(-0 180.501249 161.361131)">106</text>
   </g>
   <g id="text_7">
    <text style="font: 10px 'DejaVu Sans', 'Bitstream Vera Sans', 'Computer Modern Sans Serif', 'Lucida Grande', 'Verdana', 'Geneva', 'Lucid', 'Arial', 'Helvetica', 'Avant Garde', sans-serif; text-anchor: middle" x="145.700084" y="144.654064" transform="rotate(-0 145.700084 144.654064)">146</text>
   </g>
   <g id="text_8">
    <text style="font: 12px 'DejaVu Sans', 'Bitstream Vera Sans', 'Computer Modern Sans Serif', 'Lucida Grande', 'Verdana', 'Geneva', 'Lucid', 'Arial', 'Helvetica', 'Avant Garde', sans-serif; text-anchor: end" x="80.053804" y="75.098291" transform="rotate(-0 80.053804 75.098291)">CD4</text>
   </g>
   <g id="text_9">
    <text style="font: 12px 'DejaVu Sans', 'Bitstream Vera Sans', 'Computer Modern Sans Serif', 'Lucida Grande', 'Verdana', 'Geneva', 'Lucid', 'Arial', 'Helvetica', 'Avant Garde', sans-serif; text-anchor: start" x="213.940031" y="72.685962" transform="rotate(-0 213.940031 72.685962)">CD8</text>
   </g>
   <g id="text_10">
    <text style="font: 12px 'DejaVu Sans', 'Bitstream Vera Sans', 'Computer Modern Sans Serif', 'Lucida Grande', 'Verdana', 'Geneva', 'Lucid', 'Arial', 'Helvetica', 'Avant Garde', sans-serif; text-anchor: middle" x="147.277937" y="232.607413" transform="rotate(-0 147.277937 232.607413)">ALL</text>
   </g>
  </g>
 </g>
 <defs>
  <clipPath id="p69ba534b02">
   <rect x="36" y="57.914396" width="223.2" height="175.051207"/>
  </clipPath>
 </defs>
</svg>
