<?xml version="1.0" encoding="utf-8" standalone="no"?>
<!DOCTYPE svg PUBLIC "-//W3C//DTD SVG 1.1//EN"
  "http://www.w3.org/Graphics/SVG/1.1/DTD/svg11.dtd">
<svg xmlns:xlink="http://www.w3.org/1999/xlink" width="288pt" height="288pt" viewBox="0 0 288 288" xmlns="http://www.w3.org/2000/svg" version="1.1">
 <metadata>
  <rdf:RDF xmlns:dc="http://purl.org/dc/elements/1.1/" xmlns:cc="http://creativecommons.org/ns#" xmlns:rdf="http://www.w3.org/1999/02/22-rdf-syntax-ns#">
   <cc:Work>
    <dc:type rdf:resource="http://purl.org/dc/dcmitype/StillImage"/>
    <dc:date>2024-06-18T08:00:59.214204</dc:date>
    <dc:format>image/svg+xml</dc:format>
    <dc:creator>
     <cc:Agent>
      <dc:title>Matplotlib v3.7.1, https://matplotlib.org/</dc:title>
     </cc:Agent>
    </dc:creator>
   </cc:Work>
  </rdf:RDF>
 </metadata>
 <defs>
  <style type="text/css">*{stroke-linejoin: round; stroke-linecap: butt}</style>
 </defs>
 <g id="figure_1">
  <g id="patch_1">
   <path d="M 0 288 
L 288 288 
L 288 0 
L 0 0 
z
" style="fill: #ffffff"/>
  </g>
  <g id="axes_1">
   <g id="patch_2">
    <path d="M 144.332352 87.811547 
C 137.327879 82.297874 129.142646 78.477427 120.41786 76.649489 
C 111.693075 74.821551 102.662669 75.035134 94.034058 77.273505 
C 85.405446 79.511877 77.409984 83.715022 70.67401 89.553678 
C 63.938037 95.392334 58.64216 102.709953 55.201244 110.933294 
C 51.760328 119.156635 50.266631 128.06521 50.837165 136.961149 
C 51.4077 145.857088 54.027168 154.501869 58.490368 162.218286 
C 62.953569 169.934702 69.140833 176.515858 76.567468 181.446206 
C 83.994104 186.376554 92.460984 189.523898 101.304841 190.641687 
C 97.912958 184.358315 95.848012 177.444507 95.238397 170.330156 
C 94.628782 163.215804 95.4874 156.051482 97.760865 149.282657 
C 100.034329 142.513832 103.674522 136.283766 108.455101 130.979834 
C 113.235681 125.675902 119.055466 121.410362 125.552592 118.448439 
C 127.046939 112.541805 129.426645 106.895202 132.610761 101.700704 
C 135.794877 96.506207 139.746885 91.823391 144.332352 87.811547 
" clip-path="url(#p6b7a1fae13)" style="fill: #000080; opacity: 0.4"/>
   </g>
   <g id="patch_3">
    <path d="M 144.332352 87.811547 
C 148.963469 91.456999 153.010292 95.788993 156.332434 100.657251 
C 159.654577 105.525509 162.213175 110.87308 163.919472 116.514456 
C 171.33454 119.02951 178.088527 123.183248 183.678299 128.666238 
C 189.268071 134.149228 193.551289 140.821853 196.208878 148.187038 
C 198.866467 155.552224 199.830754 163.422423 199.029904 171.211349 
C 198.229055 179.000275 195.683462 186.509592 191.582758 193.179896 
C 200.952691 192.008981 209.91865 188.656427 217.758088 183.39241 
C 225.597527 178.128393 232.094044 171.098222 236.724099 162.868443 
C 241.354154 154.638664 243.989938 145.436453 244.419039 136.003397 
C 244.848141 126.570341 243.058714 117.166832 239.194966 108.550677 
C 235.331217 99.934523 229.499802 92.343565 222.170662 86.389543 
C 214.841522 80.435521 206.216972 76.282791 196.992045 74.266011 
C 187.767118 72.249232 178.196462 72.424075 169.051354 74.776451 
C 159.906246 77.128827 151.43913 81.5938 144.332352 87.811547 
" clip-path="url(#p6b7a1fae13)" style="fill: #ff6347; opacity: 0.4"/>
   </g>
   <g id="patch_4">
    <path d="M 144.332352 87.811547 
C 139.746885 91.823391 135.794877 96.506207 132.610761 101.700704 
C 129.426645 106.895202 127.046939 112.541805 125.552592 118.448439 
C 131.536616 115.72043 137.9832 114.149334 144.551379 113.818247 
C 151.119557 113.487161 157.691452 114.402027 163.919472 116.514456 
C 162.213175 110.87308 159.654577 105.525509 156.332434 100.657251 
C 153.010292 95.788993 148.963469 91.456999 144.332352 87.811547 
" clip-path="url(#p6b7a1fae13)" style="fill: #b2458b; opacity: 0.4"/>
   </g>
   <g id="patch_5">
    <path d="M 101.304841 190.641687 
C 105.653234 198.696971 112.047726 205.466494 119.842381 210.266438 
C 127.637037 215.066382 136.560254 217.729494 145.71066 217.986763 
C 154.861066 218.244031 163.919819 216.086491 171.971854 211.732084 
C 180.023889 207.377678 186.788635 200.978134 191.582758 193.179896 
C 183.131905 194.235959 174.552459 193.492384 166.40931 190.99813 
C 158.26616 188.503876 150.742039 184.314913 144.332352 178.707053 
C 138.309204 183.448262 131.403188 186.94515 124.016727 188.993949 
C 116.630266 191.042747 108.909675 191.602873 101.304841 190.641687 
" clip-path="url(#p6b7a1fae13)" style="fill: #008000; opacity: 0.4"/>
   </g>
   <g id="patch_6">
    <path d="M 101.304841 190.641687 
C 108.909675 191.602873 116.630266 191.042747 124.016727 188.993949 
C 131.403188 186.94515 138.309204 183.448262 144.332352 178.707053 
C 135.949535 171.372894 129.75709 161.860458 126.443026 151.226621 
C 123.128962 140.592785 122.820736 129.246516 125.552592 118.448439 
C 119.055466 121.410362 113.235681 125.675902 108.455101 130.979834 
C 103.674522 136.283766 100.034329 142.513832 97.760865 149.282657 
C 95.4874 156.051482 94.628782 163.215804 95.238397 170.330156 
C 95.848012 177.444507 97.912958 184.358315 101.304841 190.641687 
" clip-path="url(#p6b7a1fae13)" style="fill: #005a5a; opacity: 0.4"/>
   </g>
   <g id="patch_7">
    <path d="M 163.919472 116.514456 
C 167.28663 127.646992 167.218862 139.540496 163.72506 150.633938 
C 160.231258 161.727381 153.471272 171.513218 144.332352 178.707053 
C 150.742039 184.314913 158.26616 188.503876 166.40931 190.99813 
C 174.552459 193.492384 183.131905 194.235959 191.582758 193.179896 
C 195.683462 186.509592 198.229055 179.000275 199.029904 171.211349 
C 199.830754 163.422423 198.866467 155.552224 196.208878 148.187038 
C 193.551289 140.821853 189.268071 134.149228 183.678299 128.666238 
C 178.088527 123.183248 171.33454 119.02951 163.919472 116.514456 
" clip-path="url(#p6b7a1fae13)" style="fill: #b29f32; opacity: 0.4"/>
   </g>
   <g id="patch_8">
    <path d="M 125.552592 118.448439 
C 122.820736 129.246516 123.128962 140.592785 126.443026 151.226621 
C 129.75709 161.860458 135.949535 171.372894 144.332352 178.707053 
C 153.471272 171.513218 160.231258 161.727381 163.72506 150.633938 
C 167.218862 139.540496 167.28663 127.646992 163.919472 116.514456 
C 157.691452 114.402027 151.119557 113.487161 144.551379 113.818247 
C 137.9832 114.149334 131.536616 115.72043 125.552592 118.448439 
" clip-path="url(#p6b7a1fae13)" style="fill: #665b50; opacity: 0.4"/>
   </g>
   <g id="text_1">
    <text style="font: 10px 'DejaVu Sans', 'Bitstream Vera Sans', 'Computer Modern Sans Serif', 'Lucida Grande', 'Verdana', 'Geneva', 'Lucid', 'Arial', 'Helvetica', 'Avant Garde', sans-serif; text-anchor: middle" x="74.861586" y="123.35337" transform="rotate(-0 74.861586 123.35337)">309</text>
   </g>
   <g id="text_2">
    <text style="font: 10px 'DejaVu Sans', 'Bitstream Vera Sans', 'Computer Modern Sans Serif', 'Lucida Grande', 'Verdana', 'Geneva', 'Lucid', 'Arial', 'Helvetica', 'Avant Garde', sans-serif; text-anchor: middle" x="218.397258" y="122.110853" transform="rotate(-0 218.397258 122.110853)">335</text>
   </g>
   <g id="text_3">
    <text style="font: 10px 'DejaVu Sans', 'Bitstream Vera Sans', 'Computer Modern Sans Serif', 'Lucida Grande', 'Verdana', 'Geneva', 'Lucid', 'Arial', 'Helvetica', 'Avant Garde', sans-serif; text-anchor: middle" x="144.538269" y="108.781086" transform="rotate(-0 144.538269 108.781086)">8</text>
   </g>
   <g id="text_4">
    <text style="font: 10px 'DejaVu Sans', 'Bitstream Vera Sans', 'Computer Modern Sans Serif', 'Lucida Grande', 'Verdana', 'Geneva', 'Lucid', 'Arial', 'Helvetica', 'Avant Garde', sans-serif; text-anchor: middle" x="145.779422" y="208.488702" transform="rotate(-0 145.779422 208.488702)">119</text>
   </g>
   <g id="text_5">
    <text style="font: 10px 'DejaVu Sans', 'Bitstream Vera Sans', 'Computer Modern Sans Serif', 'Lucida Grande', 'Verdana', 'Geneva', 'Lucid', 'Arial', 'Helvetica', 'Avant Garde', sans-serif; text-anchor: middle" x="112.590442" y="161.562825" transform="rotate(-0 112.590442 161.562825)">79</text>
   </g>
   <g id="text_6">
    <text style="font: 10px 'DejaVu Sans', 'Bitstream Vera Sans', 'Computer Modern Sans Serif', 'Lucida Grande', 'Verdana', 'Geneva', 'Lucid', 'Arial', 'Helvetica', 'Avant Garde', sans-serif; text-anchor: middle" x="179.516417" y="161.120298" transform="rotate(-0 179.516417 161.120298)">100</text>
   </g>
   <g id="text_7">
    <text style="font: 10px 'DejaVu Sans', 'Bitstream Vera Sans', 'Computer Modern Sans Serif', 'Lucida Grande', 'Verdana', 'Geneva', 'Lucid', 'Arial', 'Helvetica', 'Avant Garde', sans-serif; text-anchor: middle" x="145.549803" y="144.503197" transform="rotate(-0 145.549803 144.503197)">126</text>
   </g>
   <g id="text_8">
    <text style="font: 12px 'DejaVu Sans', 'Bitstream Vera Sans', 'Computer Modern Sans Serif', 'Lucida Grande', 'Verdana', 'Geneva', 'Lucid', 'Arial', 'Helvetica', 'Avant Garde', sans-serif; text-anchor: end" x="79.638033" y="75.420393" transform="rotate(-0 79.638033 75.420393)">CD4</text>
   </g>
   <g id="text_9">
    <text style="font: 12px 'DejaVu Sans', 'Bitstream Vera Sans', 'Computer Modern Sans Serif', 'Lucida Grande', 'Verdana', 'Geneva', 'Lucid', 'Arial', 'Helvetica', 'Avant Garde', sans-serif; text-anchor: start" x="214.288094" y="72.872647" transform="rotate(-0 214.288094 72.872647)">CD8</text>
   </g>
   <g id="text_10">
    <text style="font: 12px 'DejaVu Sans', 'Bitstream Vera Sans', 'Computer Modern Sans Serif', 'Lucida Grande', 'Verdana', 'Geneva', 'Lucid', 'Arial', 'Helvetica', 'Avant Garde', sans-serif; text-anchor: middle" x="147.175675" y="232.338239" transform="rotate(-0 147.175675 232.338239)">ALL</text>
   </g>
  </g>
 </g>
 <defs>
  <clipPath id="p6b7a1fae13">
   <rect x="36" y="58.154067" width="223.2" height="174.571866"/>
  </clipPath>
 </defs>
</svg>
