<?xml version="1.0" encoding="utf-8" standalone="no"?>
<!DOCTYPE svg PUBLIC "-//W3C//DTD SVG 1.1//EN"
  "http://www.w3.org/Graphics/SVG/1.1/DTD/svg11.dtd">
<svg xmlns:xlink="http://www.w3.org/1999/xlink" width="360pt" height="360pt" viewBox="0 0 360 360" xmlns="http://www.w3.org/2000/svg" version="1.1">
 <metadata>
  <rdf:RDF xmlns:dc="http://purl.org/dc/elements/1.1/" xmlns:cc="http://creativecommons.org/ns#" xmlns:rdf="http://www.w3.org/1999/02/22-rdf-syntax-ns#">
   <cc:Work>
    <dc:type rdf:resource="http://purl.org/dc/dcmitype/StillImage"/>
    <dc:date>2023-06-12T09:53:00.583255</dc:date>
    <dc:format>image/svg+xml</dc:format>
    <dc:creator>
     <cc:Agent>
      <dc:title>Matplotlib v3.5.1, https://matplotlib.org/</dc:title>
     </cc:Agent>
    </dc:creator>
   </cc:Work>
  </rdf:RDF>
 </metadata>
 <defs>
  <style type="text/css">*{stroke-linejoin: round; stroke-linecap: butt}</style>
 </defs>
 <g id="figure_1">
  <g id="patch_1">
   <path d="M 0 360 
L 360 360 
L 360 0 
L 0 0 
z
" style="fill: #ffffff"/>
  </g>
  <g id="axes_1">
   <g id="patch_2">
    <path d="M 45 315 
L 171.818182 315 
L 171.818182 43.2 
L 45 43.2 
z
" style="fill: #ffffff"/>
   </g>
   <g id="matplotlib.axis_1">
    <g id="xtick_1"/>
   </g>
   <g id="matplotlib.axis_2">
    <g id="ytick_1">
     <g id="line2d_1">
      <path d="M 45 304.727681 
L 171.818182 304.727681 
" clip-path="url(#p1e2e0a494b)" style="fill: none; stroke: #cccccc; stroke-width: 0.8; stroke-linecap: round"/>
     </g>
     <g id="text_1">
      <!-- 0 -->
      <g style="fill: #262626" transform="translate(31.6375 308.5269)scale(0.1 -0.1)">
       <defs>
        <path id="DejaVuSans-30" d="M 2034 4250 
Q 1547 4250 1301 3770 
Q 1056 3291 1056 2328 
Q 1056 1369 1301 889 
Q 1547 409 2034 409 
Q 2525 409 2770 889 
Q 3016 1369 3016 2328 
Q 3016 3291 2770 3770 
Q 2525 4250 2034 4250 
z
M 2034 4750 
Q 2819 4750 3233 4129 
Q 3647 3509 3647 2328 
Q 3647 1150 3233 529 
Q 2819 -91 2034 -91 
Q 1250 -91 836 529 
Q 422 1150 422 2328 
Q 422 3509 836 4129 
Q 1250 4750 2034 4750 
z
" transform="scale(0.015625)"/>
       </defs>
       <use xlink:href="#DejaVuSans-30"/>
      </g>
     </g>
    </g>
    <g id="ytick_2">
     <g id="line2d_2">
      <path d="M 45 269.315662 
L 171.818182 269.315662 
" clip-path="url(#p1e2e0a494b)" style="fill: none; stroke: #cccccc; stroke-width: 0.8; stroke-linecap: round"/>
     </g>
     <g id="text_2">
      <!-- 2500 -->
      <g style="fill: #262626" transform="translate(12.55 273.11488)scale(0.1 -0.1)">
       <defs>
        <path id="DejaVuSans-32" d="M 1228 531 
L 3431 531 
L 3431 0 
L 469 0 
L 469 531 
Q 828 903 1448 1529 
Q 2069 2156 2228 2338 
Q 2531 2678 2651 2914 
Q 2772 3150 2772 3378 
Q 2772 3750 2511 3984 
Q 2250 4219 1831 4219 
Q 1534 4219 1204 4116 
Q 875 4013 500 3803 
L 500 4441 
Q 881 4594 1212 4672 
Q 1544 4750 1819 4750 
Q 2544 4750 2975 4387 
Q 3406 4025 3406 3419 
Q 3406 3131 3298 2873 
Q 3191 2616 2906 2266 
Q 2828 2175 2409 1742 
Q 1991 1309 1228 531 
z
" transform="scale(0.015625)"/>
        <path id="DejaVuSans-35" d="M 691 4666 
L 3169 4666 
L 3169 4134 
L 1269 4134 
L 1269 2991 
Q 1406 3038 1543 3061 
Q 1681 3084 1819 3084 
Q 2600 3084 3056 2656 
Q 3513 2228 3513 1497 
Q 3513 744 3044 326 
Q 2575 -91 1722 -91 
Q 1428 -91 1123 -41 
Q 819 9 494 109 
L 494 744 
Q 775 591 1075 516 
Q 1375 441 1709 441 
Q 2250 441 2565 725 
Q 2881 1009 2881 1497 
Q 2881 1984 2565 2268 
Q 2250 2553 1709 2553 
Q 1456 2553 1204 2497 
Q 953 2441 691 2322 
L 691 4666 
z
" transform="scale(0.015625)"/>
       </defs>
       <use xlink:href="#DejaVuSans-32"/>
       <use xlink:href="#DejaVuSans-35" x="63.623047"/>
       <use xlink:href="#DejaVuSans-30" x="127.246094"/>
       <use xlink:href="#DejaVuSans-30" x="190.869141"/>
      </g>
     </g>
    </g>
    <g id="ytick_3">
     <g id="line2d_3">
      <path d="M 45 233.903642 
L 171.818182 233.903642 
" clip-path="url(#p1e2e0a494b)" style="fill: none; stroke: #cccccc; stroke-width: 0.8; stroke-linecap: round"/>
     </g>
     <g id="text_3">
      <!-- 5000 -->
      <g style="fill: #262626" transform="translate(12.55 237.702861)scale(0.1 -0.1)">
       <use xlink:href="#DejaVuSans-35"/>
       <use xlink:href="#DejaVuSans-30" x="63.623047"/>
       <use xlink:href="#DejaVuSans-30" x="127.246094"/>
       <use xlink:href="#DejaVuSans-30" x="190.869141"/>
      </g>
     </g>
    </g>
    <g id="ytick_4">
     <g id="line2d_4">
      <path d="M 45 198.491622 
L 171.818182 198.491622 
" clip-path="url(#p1e2e0a494b)" style="fill: none; stroke: #cccccc; stroke-width: 0.8; stroke-linecap: round"/>
     </g>
     <g id="text_4">
      <!-- 7500 -->
      <g style="fill: #262626" transform="translate(12.55 202.290841)scale(0.1 -0.1)">
       <defs>
        <path id="DejaVuSans-37" d="M 525 4666 
L 3525 4666 
L 3525 4397 
L 1831 0 
L 1172 0 
L 2766 4134 
L 525 4134 
L 525 4666 
z
" transform="scale(0.015625)"/>
       </defs>
       <use xlink:href="#DejaVuSans-37"/>
       <use xlink:href="#DejaVuSans-35" x="63.623047"/>
       <use xlink:href="#DejaVuSans-30" x="127.246094"/>
       <use xlink:href="#DejaVuSans-30" x="190.869141"/>
      </g>
     </g>
    </g>
    <g id="ytick_5">
     <g id="line2d_5">
      <path d="M 45 163.079602 
L 171.818182 163.079602 
" clip-path="url(#p1e2e0a494b)" style="fill: none; stroke: #cccccc; stroke-width: 0.8; stroke-linecap: round"/>
     </g>
     <g id="text_5">
      <!-- 10000 -->
      <g style="fill: #262626" transform="translate(6.1875 166.878821)scale(0.1 -0.1)">
       <defs>
        <path id="DejaVuSans-31" d="M 794 531 
L 1825 531 
L 1825 4091 
L 703 3866 
L 703 4441 
L 1819 4666 
L 2450 4666 
L 2450 531 
L 3481 531 
L 3481 0 
L 794 0 
L 794 531 
z
" transform="scale(0.015625)"/>
       </defs>
       <use xlink:href="#DejaVuSans-31"/>
       <use xlink:href="#DejaVuSans-30" x="63.623047"/>
       <use xlink:href="#DejaVuSans-30" x="127.246094"/>
       <use xlink:href="#DejaVuSans-30" x="190.869141"/>
       <use xlink:href="#DejaVuSans-30" x="254.492188"/>
      </g>
     </g>
    </g>
    <g id="ytick_6">
     <g id="line2d_6">
      <path d="M 45 127.667582 
L 171.818182 127.667582 
" clip-path="url(#p1e2e0a494b)" style="fill: none; stroke: #cccccc; stroke-width: 0.8; stroke-linecap: round"/>
     </g>
     <g id="text_6">
      <!-- 12500 -->
      <g style="fill: #262626" transform="translate(6.1875 131.466801)scale(0.1 -0.1)">
       <use xlink:href="#DejaVuSans-31"/>
       <use xlink:href="#DejaVuSans-32" x="63.623047"/>
       <use xlink:href="#DejaVuSans-35" x="127.246094"/>
       <use xlink:href="#DejaVuSans-30" x="190.869141"/>
       <use xlink:href="#DejaVuSans-30" x="254.492188"/>
      </g>
     </g>
    </g>
    <g id="ytick_7">
     <g id="line2d_7">
      <path d="M 45 92.255563 
L 171.818182 92.255563 
" clip-path="url(#p1e2e0a494b)" style="fill: none; stroke: #cccccc; stroke-width: 0.8; stroke-linecap: round"/>
     </g>
     <g id="text_7">
      <!-- 15000 -->
      <g style="fill: #262626" transform="translate(6.1875 96.054781)scale(0.1 -0.1)">
       <use xlink:href="#DejaVuSans-31"/>
       <use xlink:href="#DejaVuSans-35" x="63.623047"/>
       <use xlink:href="#DejaVuSans-30" x="127.246094"/>
       <use xlink:href="#DejaVuSans-30" x="190.869141"/>
       <use xlink:href="#DejaVuSans-30" x="254.492188"/>
      </g>
     </g>
    </g>
    <g id="ytick_8">
     <g id="line2d_8">
      <path d="M 45 56.843543 
L 171.818182 56.843543 
" clip-path="url(#p1e2e0a494b)" style="fill: none; stroke: #cccccc; stroke-width: 0.8; stroke-linecap: round"/>
     </g>
     <g id="text_8">
      <!-- 17500 -->
      <g style="fill: #262626" transform="translate(6.1875 60.642762)scale(0.1 -0.1)">
       <use xlink:href="#DejaVuSans-31"/>
       <use xlink:href="#DejaVuSans-37" x="63.623047"/>
       <use xlink:href="#DejaVuSans-35" x="127.246094"/>
       <use xlink:href="#DejaVuSans-30" x="190.869141"/>
       <use xlink:href="#DejaVuSans-30" x="254.492188"/>
      </g>
     </g>
    </g>
    <g id="text_9">
     <!-- number of outlier loops -->
     <g style="fill: #262626" transform="translate(-0.516094 255.131719)rotate(-90)scale(0.13 -0.13)">
      <defs>
       <path id="DejaVuSans-6e" d="M 3513 2113 
L 3513 0 
L 2938 0 
L 2938 2094 
Q 2938 2591 2744 2837 
Q 2550 3084 2163 3084 
Q 1697 3084 1428 2787 
Q 1159 2491 1159 1978 
L 1159 0 
L 581 0 
L 581 3500 
L 1159 3500 
L 1159 2956 
Q 1366 3272 1645 3428 
Q 1925 3584 2291 3584 
Q 2894 3584 3203 3211 
Q 3513 2838 3513 2113 
z
" transform="scale(0.015625)"/>
       <path id="DejaVuSans-75" d="M 544 1381 
L 544 3500 
L 1119 3500 
L 1119 1403 
Q 1119 906 1312 657 
Q 1506 409 1894 409 
Q 2359 409 2629 706 
Q 2900 1003 2900 1516 
L 2900 3500 
L 3475 3500 
L 3475 0 
L 2900 0 
L 2900 538 
Q 2691 219 2414 64 
Q 2138 -91 1772 -91 
Q 1169 -91 856 284 
Q 544 659 544 1381 
z
M 1991 3584 
L 1991 3584 
z
" transform="scale(0.015625)"/>
       <path id="DejaVuSans-6d" d="M 3328 2828 
Q 3544 3216 3844 3400 
Q 4144 3584 4550 3584 
Q 5097 3584 5394 3201 
Q 5691 2819 5691 2113 
L 5691 0 
L 5113 0 
L 5113 2094 
Q 5113 2597 4934 2840 
Q 4756 3084 4391 3084 
Q 3944 3084 3684 2787 
Q 3425 2491 3425 1978 
L 3425 0 
L 2847 0 
L 2847 2094 
Q 2847 2600 2669 2842 
Q 2491 3084 2119 3084 
Q 1678 3084 1418 2786 
Q 1159 2488 1159 1978 
L 1159 0 
L 581 0 
L 581 3500 
L 1159 3500 
L 1159 2956 
Q 1356 3278 1631 3431 
Q 1906 3584 2284 3584 
Q 2666 3584 2933 3390 
Q 3200 3197 3328 2828 
z
" transform="scale(0.015625)"/>
       <path id="DejaVuSans-62" d="M 3116 1747 
Q 3116 2381 2855 2742 
Q 2594 3103 2138 3103 
Q 1681 3103 1420 2742 
Q 1159 2381 1159 1747 
Q 1159 1113 1420 752 
Q 1681 391 2138 391 
Q 2594 391 2855 752 
Q 3116 1113 3116 1747 
z
M 1159 2969 
Q 1341 3281 1617 3432 
Q 1894 3584 2278 3584 
Q 2916 3584 3314 3078 
Q 3713 2572 3713 1747 
Q 3713 922 3314 415 
Q 2916 -91 2278 -91 
Q 1894 -91 1617 61 
Q 1341 213 1159 525 
L 1159 0 
L 581 0 
L 581 4863 
L 1159 4863 
L 1159 2969 
z
" transform="scale(0.015625)"/>
       <path id="DejaVuSans-65" d="M 3597 1894 
L 3597 1613 
L 953 1613 
Q 991 1019 1311 708 
Q 1631 397 2203 397 
Q 2534 397 2845 478 
Q 3156 559 3463 722 
L 3463 178 
Q 3153 47 2828 -22 
Q 2503 -91 2169 -91 
Q 1331 -91 842 396 
Q 353 884 353 1716 
Q 353 2575 817 3079 
Q 1281 3584 2069 3584 
Q 2775 3584 3186 3129 
Q 3597 2675 3597 1894 
z
M 3022 2063 
Q 3016 2534 2758 2815 
Q 2500 3097 2075 3097 
Q 1594 3097 1305 2825 
Q 1016 2553 972 2059 
L 3022 2063 
z
" transform="scale(0.015625)"/>
       <path id="DejaVuSans-72" d="M 2631 2963 
Q 2534 3019 2420 3045 
Q 2306 3072 2169 3072 
Q 1681 3072 1420 2755 
Q 1159 2438 1159 1844 
L 1159 0 
L 581 0 
L 581 3500 
L 1159 3500 
L 1159 2956 
Q 1341 3275 1631 3429 
Q 1922 3584 2338 3584 
Q 2397 3584 2469 3576 
Q 2541 3569 2628 3553 
L 2631 2963 
z
" transform="scale(0.015625)"/>
       <path id="DejaVuSans-20" transform="scale(0.015625)"/>
       <path id="DejaVuSans-6f" d="M 1959 3097 
Q 1497 3097 1228 2736 
Q 959 2375 959 1747 
Q 959 1119 1226 758 
Q 1494 397 1959 397 
Q 2419 397 2687 759 
Q 2956 1122 2956 1747 
Q 2956 2369 2687 2733 
Q 2419 3097 1959 3097 
z
M 1959 3584 
Q 2709 3584 3137 3096 
Q 3566 2609 3566 1747 
Q 3566 888 3137 398 
Q 2709 -91 1959 -91 
Q 1206 -91 779 398 
Q 353 888 353 1747 
Q 353 2609 779 3096 
Q 1206 3584 1959 3584 
z
" transform="scale(0.015625)"/>
       <path id="DejaVuSans-66" d="M 2375 4863 
L 2375 4384 
L 1825 4384 
Q 1516 4384 1395 4259 
Q 1275 4134 1275 3809 
L 1275 3500 
L 2222 3500 
L 2222 3053 
L 1275 3053 
L 1275 0 
L 697 0 
L 697 3053 
L 147 3053 
L 147 3500 
L 697 3500 
L 697 3744 
Q 697 4328 969 4595 
Q 1241 4863 1831 4863 
L 2375 4863 
z
" transform="scale(0.015625)"/>
       <path id="DejaVuSans-74" d="M 1172 4494 
L 1172 3500 
L 2356 3500 
L 2356 3053 
L 1172 3053 
L 1172 1153 
Q 1172 725 1289 603 
Q 1406 481 1766 481 
L 2356 481 
L 2356 0 
L 1766 0 
Q 1100 0 847 248 
Q 594 497 594 1153 
L 594 3053 
L 172 3053 
L 172 3500 
L 594 3500 
L 594 4494 
L 1172 4494 
z
" transform="scale(0.015625)"/>
       <path id="DejaVuSans-6c" d="M 603 4863 
L 1178 4863 
L 1178 0 
L 603 0 
L 603 4863 
z
" transform="scale(0.015625)"/>
       <path id="DejaVuSans-69" d="M 603 3500 
L 1178 3500 
L 1178 0 
L 603 0 
L 603 3500 
z
M 603 4863 
L 1178 4863 
L 1178 4134 
L 603 4134 
L 603 4863 
z
" transform="scale(0.015625)"/>
       <path id="DejaVuSans-70" d="M 1159 525 
L 1159 -1331 
L 581 -1331 
L 581 3500 
L 1159 3500 
L 1159 2969 
Q 1341 3281 1617 3432 
Q 1894 3584 2278 3584 
Q 2916 3584 3314 3078 
Q 3713 2572 3713 1747 
Q 3713 922 3314 415 
Q 2916 -91 2278 -91 
Q 1894 -91 1617 61 
Q 1341 213 1159 525 
z
M 3116 1747 
Q 3116 2381 2855 2742 
Q 2594 3103 2138 3103 
Q 1681 3103 1420 2742 
Q 1159 2381 1159 1747 
Q 1159 1113 1420 752 
Q 1681 391 2138 391 
Q 2594 391 2855 752 
Q 3116 1113 3116 1747 
z
" transform="scale(0.015625)"/>
       <path id="DejaVuSans-73" d="M 2834 3397 
L 2834 2853 
Q 2591 2978 2328 3040 
Q 2066 3103 1784 3103 
Q 1356 3103 1142 2972 
Q 928 2841 928 2578 
Q 928 2378 1081 2264 
Q 1234 2150 1697 2047 
L 1894 2003 
Q 2506 1872 2764 1633 
Q 3022 1394 3022 966 
Q 3022 478 2636 193 
Q 2250 -91 1575 -91 
Q 1294 -91 989 -36 
Q 684 19 347 128 
L 347 722 
Q 666 556 975 473 
Q 1284 391 1588 391 
Q 1994 391 2212 530 
Q 2431 669 2431 922 
Q 2431 1156 2273 1281 
Q 2116 1406 1581 1522 
L 1381 1569 
Q 847 1681 609 1914 
Q 372 2147 372 2553 
Q 372 3047 722 3315 
Q 1072 3584 1716 3584 
Q 2034 3584 2315 3537 
Q 2597 3491 2834 3397 
z
" transform="scale(0.015625)"/>
      </defs>
      <use xlink:href="#DejaVuSans-6e"/>
      <use xlink:href="#DejaVuSans-75" x="63.378906"/>
      <use xlink:href="#DejaVuSans-6d" x="126.757812"/>
      <use xlink:href="#DejaVuSans-62" x="224.169922"/>
      <use xlink:href="#DejaVuSans-65" x="287.646484"/>
      <use xlink:href="#DejaVuSans-72" x="349.169922"/>
      <use xlink:href="#DejaVuSans-20" x="390.283203"/>
      <use xlink:href="#DejaVuSans-6f" x="422.070312"/>
      <use xlink:href="#DejaVuSans-66" x="483.251953"/>
      <use xlink:href="#DejaVuSans-20" x="518.457031"/>
      <use xlink:href="#DejaVuSans-6f" x="550.244141"/>
      <use xlink:href="#DejaVuSans-75" x="611.425781"/>
      <use xlink:href="#DejaVuSans-74" x="674.804688"/>
      <use xlink:href="#DejaVuSans-6c" x="714.013672"/>
      <use xlink:href="#DejaVuSans-69" x="741.796875"/>
      <use xlink:href="#DejaVuSans-65" x="769.580078"/>
      <use xlink:href="#DejaVuSans-72" x="831.103516"/>
      <use xlink:href="#DejaVuSans-20" x="872.216797"/>
      <use xlink:href="#DejaVuSans-6c" x="904.003906"/>
      <use xlink:href="#DejaVuSans-6f" x="931.787109"/>
      <use xlink:href="#DejaVuSans-6f" x="992.96875"/>
      <use xlink:href="#DejaVuSans-70" x="1054.150391"/>
      <use xlink:href="#DejaVuSans-73" x="1117.626953"/>
     </g>
    </g>
   </g>
   <g id="patch_3">
    <path d="M 57.681818 298.905945 
L 159.136364 298.905945 
L 159.136364 291.568575 
L 57.681818 291.568575 
L 57.681818 298.905945 
z
" clip-path="url(#p1e2e0a494b)" style="fill: #9cc9b5; stroke: #6b6b6b; stroke-width: 1.5; stroke-linejoin: miter"/>
   </g>
   <g id="line2d_9">
    <path d="M 108.409091 298.905945 
L 108.409091 302.645455 
" clip-path="url(#p1e2e0a494b)" style="fill: none; stroke: #6b6b6b; stroke-width: 1.5; stroke-linecap: round"/>
   </g>
   <g id="line2d_10">
    <path d="M 108.409091 291.568575 
L 108.409091 281.299089 
" clip-path="url(#p1e2e0a494b)" style="fill: none; stroke: #6b6b6b; stroke-width: 1.5; stroke-linecap: round"/>
   </g>
   <g id="line2d_11">
    <path d="M 83.045455 302.645455 
L 133.772727 302.645455 
" clip-path="url(#p1e2e0a494b)" style="fill: none; stroke: #6b6b6b; stroke-width: 1.5; stroke-linecap: round"/>
   </g>
   <g id="line2d_12">
    <path d="M 83.045455 281.299089 
L 133.772727 281.299089 
" clip-path="url(#p1e2e0a494b)" style="fill: none; stroke: #6b6b6b; stroke-width: 1.5; stroke-linecap: round"/>
   </g>
   <g id="line2d_13">
    <defs>
     <path id="m386c21623b" d="M -0 3.535534 
L 2.12132 0 
L -0 -3.535534 
L -2.12132 -0 
z
" style="stroke: #6b6b6b; stroke-linejoin: miter"/>
    </defs>
    <g clip-path="url(#p1e2e0a494b)">
     <use xlink:href="#m386c21623b" x="108.409091" y="265.901943" style="fill: #6b6b6b; stroke: #6b6b6b; stroke-linejoin: miter"/>
     <use xlink:href="#m386c21623b" x="108.409091" y="272.856864" style="fill: #6b6b6b; stroke: #6b6b6b; stroke-linejoin: miter"/>
    </g>
   </g>
   <g id="line2d_14">
    <path d="M 57.681818 295.23726 
L 159.136364 295.23726 
" clip-path="url(#p1e2e0a494b)" style="fill: none; stroke: #6b6b6b; stroke-width: 1.5; stroke-linecap: round"/>
   </g>
   <g id="patch_4">
    <path d="M 45 315 
L 45 43.2 
" style="fill: none; stroke: #cccccc; stroke-width: 0.8; stroke-linejoin: miter; stroke-linecap: square"/>
   </g>
   <g id="patch_5">
    <path d="M 171.818182 315 
L 171.818182 43.2 
" style="fill: none; stroke: #cccccc; stroke-width: 0.8; stroke-linejoin: miter; stroke-linecap: square"/>
   </g>
   <g id="patch_6">
    <path d="M 45 315 
L 171.818182 315 
" style="fill: none; stroke: #cccccc; stroke-width: 0.8; stroke-linejoin: miter; stroke-linecap: square"/>
   </g>
   <g id="patch_7">
    <path d="M 45 43.2 
L 171.818182 43.2 
" style="fill: none; stroke: #cccccc; stroke-width: 0.8; stroke-linejoin: miter; stroke-linecap: square"/>
   </g>
   <g id="PathCollection_1">
    <defs>
     <path id="C0_0_d76f3c0c4d" d="M 0 2.5 
C 0.663008 2.5 1.29895 2.236584 1.767767 1.767767 
C 2.236584 1.29895 2.5 0.663008 2.5 -0 
C 2.5 -0.663008 2.236584 -1.29895 1.767767 -1.767767 
C 1.29895 -2.236584 0.663008 -2.5 0 -2.5 
C -0.663008 -2.5 -1.29895 -2.236584 -1.767767 -1.767767 
C -2.236584 -1.29895 -2.5 -0.663008 -2.5 0 
C -2.5 0.663008 -2.236584 1.29895 -1.767767 1.767767 
C -1.29895 2.236584 -0.663008 2.5 0 2.5 
z
"/>
    </defs>
    <g clip-path="url(#p1e2e0a494b)">
     <use xlink:href="#C0_0_d76f3c0c4d" x="108.409091" y="302.645455" style="fill: #310299"/>
    </g>
    <g clip-path="url(#p1e2e0a494b)">
     <use xlink:href="#C0_0_d76f3c0c4d" x="104.033071" y="302.234675" style="fill: #310299"/>
    </g>
    <g clip-path="url(#p1e2e0a494b)">
     <use xlink:href="#C0_0_d76f3c0c4d" x="112.57069" y="302.192181" style="fill: #310299"/>
    </g>
    <g clip-path="url(#p1e2e0a494b)">
     <use xlink:href="#C0_0_d76f3c0c4d" x="117.46469" y="301.923049" style="fill: #310299"/>
    </g>
    <g clip-path="url(#p1e2e0a494b)">
     <use xlink:href="#C0_0_d76f3c0c4d" x="108.409091" y="301.710577" style="fill: #310299"/>
    </g>
    <g clip-path="url(#p1e2e0a494b)">
     <use xlink:href="#C0_0_d76f3c0c4d" x="101.33022" y="301.597259" style="fill: #310299"/>
    </g>
    <g clip-path="url(#p1e2e0a494b)">
     <use xlink:href="#C0_0_d76f3c0c4d" x="113.303091" y="301.441446" style="fill: #310299"/>
    </g>
    <g clip-path="url(#p1e2e0a494b)">
     <use xlink:href="#C0_0_d76f3c0c4d" x="108.409091" y="300.917348" style="fill: #310299"/>
    </g>
    <g clip-path="url(#p1e2e0a494b)">
     <use xlink:href="#C0_0_d76f3c0c4d" x="107.692835" y="300.180778" style="fill: #310299"/>
    </g>
    <g clip-path="url(#p1e2e0a494b)">
     <use xlink:href="#C0_0_d76f3c0c4d" x="112.865089" y="300.053295" style="fill: #310299"/>
    </g>
    <g clip-path="url(#p1e2e0a494b)">
     <use xlink:href="#C0_0_d76f3c0c4d" x="102.559408" y="300.024965" style="fill: #310299"/>
    </g>
    <g clip-path="url(#p1e2e0a494b)">
     <use xlink:href="#C0_0_d76f3c0c4d" x="117.631724" y="299.741669" style="fill: #310299"/>
    </g>
    <g clip-path="url(#p1e2e0a494b)">
     <use xlink:href="#C0_0_d76f3c0c4d" x="98.559601" y="299.543362" style="fill: #310299"/>
    </g>
    <g clip-path="url(#p1e2e0a494b)">
     <use xlink:href="#C0_0_d76f3c0c4d" x="108.409091" y="298.905945" style="fill: #310299"/>
    </g>
    <g clip-path="url(#p1e2e0a494b)">
     <use xlink:href="#C0_0_d76f3c0c4d" x="103.236836" y="298.778462" style="fill: #310299"/>
    </g>
    <g clip-path="url(#p1e2e0a494b)">
     <use xlink:href="#C0_0_d76f3c0c4d" x="113.520059" y="298.735968" style="fill: #310299"/>
    </g>
    <g clip-path="url(#p1e2e0a494b)">
     <use xlink:href="#C0_0_d76f3c0c4d" x="98.305167" y="298.523495" style="fill: #310299"/>
    </g>
    <g clip-path="url(#p1e2e0a494b)">
     <use xlink:href="#C0_0_d76f3c0c4d" x="108.409091" y="298.027727" style="fill: #310299"/>
    </g>
    <g clip-path="url(#p1e2e0a494b)">
     <use xlink:href="#C0_0_d76f3c0c4d" x="103.162903" y="297.999398" style="fill: #310299"/>
    </g>
    <g clip-path="url(#p1e2e0a494b)">
     <use xlink:href="#C0_0_d76f3c0c4d" x="113.495534" y="297.843585" style="fill: #310299"/>
    </g>
    <g clip-path="url(#p1e2e0a494b)">
     <use xlink:href="#C0_0_d76f3c0c4d" x="108.409091" y="297.192004" style="fill: #310299"/>
    </g>
    <g clip-path="url(#p1e2e0a494b)">
     <use xlink:href="#C0_0_d76f3c0c4d" x="104.78729" y="296.653741" style="fill: #310299"/>
    </g>
    <g clip-path="url(#p1e2e0a494b)">
     <use xlink:href="#C0_0_d76f3c0c4d" x="109.023932" y="296.214632" style="fill: #310299"/>
    </g>
    <g clip-path="url(#p1e2e0a494b)">
     <use xlink:href="#C0_0_d76f3c0c4d" x="114.27012" y="296.186302" style="fill: #310299"/>
    </g>
    <g clip-path="url(#p1e2e0a494b)">
     <use xlink:href="#C0_0_d76f3c0c4d" x="101.924475" y="296.030489" style="fill: #310299"/>
    </g>
    <g clip-path="url(#p1e2e0a494b)">
     <use xlink:href="#C0_0_d76f3c0c4d" x="108.409091" y="295.364743" style="fill: #310299"/>
    </g>
    <g clip-path="url(#p1e2e0a494b)">
     <use xlink:href="#C0_0_d76f3c0c4d" x="103.236836" y="295.23726" style="fill: #310299"/>
    </g>
    <g clip-path="url(#p1e2e0a494b)">
     <use xlink:href="#C0_0_d76f3c0c4d" x="113.409251" y="295.138106" style="fill: #310299"/>
    </g>
    <g clip-path="url(#p1e2e0a494b)">
     <use xlink:href="#C0_0_d76f3c0c4d" x="98.734621" y="294.85481" style="fill: #310299"/>
    </g>
    <g clip-path="url(#p1e2e0a494b)">
     <use xlink:href="#C0_0_d76f3c0c4d" x="108.409091" y="294.571514" style="fill: #310299"/>
    </g>
    <g clip-path="url(#p1e2e0a494b)">
     <use xlink:href="#C0_0_d76f3c0c4d" x="116.272067" y="294.514855" style="fill: #310299"/>
    </g>
    <g clip-path="url(#p1e2e0a494b)">
     <use xlink:href="#C0_0_d76f3c0c4d" x="103.442051" y="294.330712" style="fill: #310299"/>
    </g>
    <g clip-path="url(#p1e2e0a494b)">
     <use xlink:href="#C0_0_d76f3c0c4d" x="111.808634" y="294.004922" style="fill: #310299"/>
    </g>
    <g clip-path="url(#p1e2e0a494b)">
     <use xlink:href="#C0_0_d76f3c0c4d" x="99.621323" y="293.820779" style="fill: #310299"/>
    </g>
    <g clip-path="url(#p1e2e0a494b)">
     <use xlink:href="#C0_0_d76f3c0c4d" x="107.192325" y="293.650802" style="fill: #310299"/>
    </g>
    <g clip-path="url(#p1e2e0a494b)">
     <use xlink:href="#C0_0_d76f3c0c4d" x="114.819617" y="293.395835" style="fill: #310299"/>
    </g>
    <g clip-path="url(#p1e2e0a494b)">
     <use xlink:href="#C0_0_d76f3c0c4d" x="120.045745" y="293.325011" style="fill: #310299"/>
    </g>
    <g clip-path="url(#p1e2e0a494b)">
     <use xlink:href="#C0_0_d76f3c0c4d" x="103.468388" y="293.126704" style="fill: #310299"/>
    </g>
    <g clip-path="url(#p1e2e0a494b)">
     <use xlink:href="#C0_0_d76f3c0c4d" x="108.409091" y="292.503452" style="fill: #310299"/>
    </g>
    <g clip-path="url(#p1e2e0a494b)">
     <use xlink:href="#C0_0_d76f3c0c4d" x="108.409091" y="291.568575" style="fill: #310299"/>
    </g>
    <g clip-path="url(#p1e2e0a494b)">
     <use xlink:href="#C0_0_d76f3c0c4d" x="103.848375" y="291.20029" style="fill: #310299"/>
    </g>
    <g clip-path="url(#p1e2e0a494b)">
     <use xlink:href="#C0_0_d76f3c0c4d" x="111.558109" y="290.973653" style="fill: #310299"/>
    </g>
    <g clip-path="url(#p1e2e0a494b)">
     <use xlink:href="#C0_0_d76f3c0c4d" x="116.277288" y="290.647862" style="fill: #310299"/>
    </g>
    <g clip-path="url(#p1e2e0a494b)">
     <use xlink:href="#C0_0_d76f3c0c4d" x="108.409091" y="290.392896" style="fill: #310299"/>
    </g>
    <g clip-path="url(#p1e2e0a494b)">
     <use xlink:href="#C0_0_d76f3c0c4d" x="108.409091" y="289.203052" style="fill: #310299"/>
    </g>
    <g clip-path="url(#p1e2e0a494b)">
     <use xlink:href="#C0_0_d76f3c0c4d" x="103.162903" y="289.174722" style="fill: #310299"/>
    </g>
    <g clip-path="url(#p1e2e0a494b)">
     <use xlink:href="#C0_0_d76f3c0c4d" x="112.911306" y="288.820602" style="fill: #310299"/>
    </g>
    <g clip-path="url(#p1e2e0a494b)">
     <use xlink:href="#C0_0_d76f3c0c4d" x="108.409091" y="288.423987" style="fill: #310299"/>
    </g>
    <g clip-path="url(#p1e2e0a494b)">
     <use xlink:href="#C0_0_d76f3c0c4d" x="104.326361" y="287.956549" style="fill: #310299"/>
    </g>
    <g clip-path="url(#p1e2e0a494b)">
     <use xlink:href="#C0_0_d76f3c0c4d" x="108.409091" y="283.225503" style="fill: #310299"/>
    </g>
    <g clip-path="url(#p1e2e0a494b)">
     <use xlink:href="#C0_0_d76f3c0c4d" x="108.409091" y="281.299089" style="fill: #310299"/>
    </g>
    <g clip-path="url(#p1e2e0a494b)">
     <use xlink:href="#C0_0_d76f3c0c4d" x="108.409091" y="272.856864" style="fill: #310299"/>
    </g>
    <g clip-path="url(#p1e2e0a494b)">
     <use xlink:href="#C0_0_d76f3c0c4d" x="108.409091" y="265.901943" style="fill: #310299"/>
    </g>
   </g>
   <g id="PathCollection_2">
    <defs>
     <path id="m2520520532" d="M 0 7.5 
C 1.989023 7.5 3.896849 6.709753 5.303301 5.303301 
C 6.709753 3.896849 7.5 1.989023 7.5 0 
C 7.5 -1.989023 6.709753 -3.896849 5.303301 -5.303301 
C 3.896849 -6.709753 1.989023 -7.5 0 -7.5 
C -1.989023 -7.5 -3.896849 -6.709753 -5.303301 -5.303301 
C -6.709753 -3.896849 -7.5 -1.989023 -7.5 0 
C -7.5 1.989023 -6.709753 3.896849 -5.303301 5.303301 
C -3.896849 6.709753 -1.989023 7.5 0 7.5 
z
"/>
    </defs>
    <g clip-path="url(#p1e2e0a494b)">
     <use xlink:href="#m2520520532" x="108.409091" y="55.554545" style="fill: #d62a1e"/>
    </g>
   </g>
   <g id="text_10">
    <!-- CD8+ T cells -->
    <g style="fill: #262626" transform="translate(69.825341 37.2)scale(0.12 -0.12)">
     <defs>
      <path id="DejaVuSans-43" d="M 4122 4306 
L 4122 3641 
Q 3803 3938 3442 4084 
Q 3081 4231 2675 4231 
Q 1875 4231 1450 3742 
Q 1025 3253 1025 2328 
Q 1025 1406 1450 917 
Q 1875 428 2675 428 
Q 3081 428 3442 575 
Q 3803 722 4122 1019 
L 4122 359 
Q 3791 134 3420 21 
Q 3050 -91 2638 -91 
Q 1578 -91 968 557 
Q 359 1206 359 2328 
Q 359 3453 968 4101 
Q 1578 4750 2638 4750 
Q 3056 4750 3426 4639 
Q 3797 4528 4122 4306 
z
" transform="scale(0.015625)"/>
      <path id="DejaVuSans-44" d="M 1259 4147 
L 1259 519 
L 2022 519 
Q 2988 519 3436 956 
Q 3884 1394 3884 2338 
Q 3884 3275 3436 3711 
Q 2988 4147 2022 4147 
L 1259 4147 
z
M 628 4666 
L 1925 4666 
Q 3281 4666 3915 4102 
Q 4550 3538 4550 2338 
Q 4550 1131 3912 565 
Q 3275 0 1925 0 
L 628 0 
L 628 4666 
z
" transform="scale(0.015625)"/>
      <path id="DejaVuSans-38" d="M 2034 2216 
Q 1584 2216 1326 1975 
Q 1069 1734 1069 1313 
Q 1069 891 1326 650 
Q 1584 409 2034 409 
Q 2484 409 2743 651 
Q 3003 894 3003 1313 
Q 3003 1734 2745 1975 
Q 2488 2216 2034 2216 
z
M 1403 2484 
Q 997 2584 770 2862 
Q 544 3141 544 3541 
Q 544 4100 942 4425 
Q 1341 4750 2034 4750 
Q 2731 4750 3128 4425 
Q 3525 4100 3525 3541 
Q 3525 3141 3298 2862 
Q 3072 2584 2669 2484 
Q 3125 2378 3379 2068 
Q 3634 1759 3634 1313 
Q 3634 634 3220 271 
Q 2806 -91 2034 -91 
Q 1263 -91 848 271 
Q 434 634 434 1313 
Q 434 1759 690 2068 
Q 947 2378 1403 2484 
z
M 1172 3481 
Q 1172 3119 1398 2916 
Q 1625 2713 2034 2713 
Q 2441 2713 2670 2916 
Q 2900 3119 2900 3481 
Q 2900 3844 2670 4047 
Q 2441 4250 2034 4250 
Q 1625 4250 1398 4047 
Q 1172 3844 1172 3481 
z
" transform="scale(0.015625)"/>
      <path id="DejaVuSans-2b" d="M 2944 4013 
L 2944 2272 
L 4684 2272 
L 4684 1741 
L 2944 1741 
L 2944 0 
L 2419 0 
L 2419 1741 
L 678 1741 
L 678 2272 
L 2419 2272 
L 2419 4013 
L 2944 4013 
z
" transform="scale(0.015625)"/>
      <path id="DejaVuSans-54" d="M -19 4666 
L 3928 4666 
L 3928 4134 
L 2272 4134 
L 2272 0 
L 1638 0 
L 1638 4134 
L -19 4134 
L -19 4666 
z
" transform="scale(0.015625)"/>
      <path id="DejaVuSans-63" d="M 3122 3366 
L 3122 2828 
Q 2878 2963 2633 3030 
Q 2388 3097 2138 3097 
Q 1578 3097 1268 2742 
Q 959 2388 959 1747 
Q 959 1106 1268 751 
Q 1578 397 2138 397 
Q 2388 397 2633 464 
Q 2878 531 3122 666 
L 3122 134 
Q 2881 22 2623 -34 
Q 2366 -91 2075 -91 
Q 1284 -91 818 406 
Q 353 903 353 1747 
Q 353 2603 823 3093 
Q 1294 3584 2113 3584 
Q 2378 3584 2631 3529 
Q 2884 3475 3122 3366 
z
" transform="scale(0.015625)"/>
     </defs>
     <use xlink:href="#DejaVuSans-43"/>
     <use xlink:href="#DejaVuSans-44" x="69.824219"/>
     <use xlink:href="#DejaVuSans-38" x="146.826172"/>
     <use xlink:href="#DejaVuSans-2b" x="210.449219"/>
     <use xlink:href="#DejaVuSans-20" x="294.238281"/>
     <use xlink:href="#DejaVuSans-54" x="326.025391"/>
     <use xlink:href="#DejaVuSans-20" x="387.109375"/>
     <use xlink:href="#DejaVuSans-63" x="418.896484"/>
     <use xlink:href="#DejaVuSans-65" x="473.876953"/>
     <use xlink:href="#DejaVuSans-6c" x="535.400391"/>
     <use xlink:href="#DejaVuSans-6c" x="563.183594"/>
     <use xlink:href="#DejaVuSans-73" x="590.966797"/>
    </g>
   </g>
  </g>
  <g id="axes_2">
   <g id="patch_8">
    <path d="M 197.181818 315 
L 324 315 
L 324 43.2 
L 197.181818 43.2 
z
" style="fill: #ffffff"/>
   </g>
   <g id="matplotlib.axis_3">
    <g id="xtick_2"/>
   </g>
   <g id="matplotlib.axis_4">
    <g id="ytick_9">
     <g id="line2d_15">
      <path d="M 197.181818 304.727681 
L 324 304.727681 
" clip-path="url(#peafaf2ec25)" style="fill: none; stroke: #cccccc; stroke-width: 0.8; stroke-linecap: round"/>
     </g>
    </g>
    <g id="ytick_10">
     <g id="line2d_16">
      <path d="M 197.181818 269.315662 
L 324 269.315662 
" clip-path="url(#peafaf2ec25)" style="fill: none; stroke: #cccccc; stroke-width: 0.8; stroke-linecap: round"/>
     </g>
    </g>
    <g id="ytick_11">
     <g id="line2d_17">
      <path d="M 197.181818 233.903642 
L 324 233.903642 
" clip-path="url(#peafaf2ec25)" style="fill: none; stroke: #cccccc; stroke-width: 0.8; stroke-linecap: round"/>
     </g>
    </g>
    <g id="ytick_12">
     <g id="line2d_18">
      <path d="M 197.181818 198.491622 
L 324 198.491622 
" clip-path="url(#peafaf2ec25)" style="fill: none; stroke: #cccccc; stroke-width: 0.8; stroke-linecap: round"/>
     </g>
    </g>
    <g id="ytick_13">
     <g id="line2d_19">
      <path d="M 197.181818 163.079602 
L 324 163.079602 
" clip-path="url(#peafaf2ec25)" style="fill: none; stroke: #cccccc; stroke-width: 0.8; stroke-linecap: round"/>
     </g>
    </g>
    <g id="ytick_14">
     <g id="line2d_20">
      <path d="M 197.181818 127.667582 
L 324 127.667582 
" clip-path="url(#peafaf2ec25)" style="fill: none; stroke: #cccccc; stroke-width: 0.8; stroke-linecap: round"/>
     </g>
    </g>
    <g id="ytick_15">
     <g id="line2d_21">
      <path d="M 197.181818 92.255563 
L 324 92.255563 
" clip-path="url(#peafaf2ec25)" style="fill: none; stroke: #cccccc; stroke-width: 0.8; stroke-linecap: round"/>
     </g>
    </g>
    <g id="ytick_16">
     <g id="line2d_22">
      <path d="M 197.181818 56.843543 
L 324 56.843543 
" clip-path="url(#peafaf2ec25)" style="fill: none; stroke: #cccccc; stroke-width: 0.8; stroke-linecap: round"/>
     </g>
    </g>
    <g id="text_11">
     <!-- number of outlier loops -->
     <g style="fill: #262626" transform="translate(190.478224 255.131719)rotate(-90)scale(0.13 -0.13)">
      <use xlink:href="#DejaVuSans-6e"/>
      <use xlink:href="#DejaVuSans-75" x="63.378906"/>
      <use xlink:href="#DejaVuSans-6d" x="126.757812"/>
      <use xlink:href="#DejaVuSans-62" x="224.169922"/>
      <use xlink:href="#DejaVuSans-65" x="287.646484"/>
      <use xlink:href="#DejaVuSans-72" x="349.169922"/>
      <use xlink:href="#DejaVuSans-20" x="390.283203"/>
      <use xlink:href="#DejaVuSans-6f" x="422.070312"/>
      <use xlink:href="#DejaVuSans-66" x="483.251953"/>
      <use xlink:href="#DejaVuSans-20" x="518.457031"/>
      <use xlink:href="#DejaVuSans-6f" x="550.244141"/>
      <use xlink:href="#DejaVuSans-75" x="611.425781"/>
      <use xlink:href="#DejaVuSans-74" x="674.804688"/>
      <use xlink:href="#DejaVuSans-6c" x="714.013672"/>
      <use xlink:href="#DejaVuSans-69" x="741.796875"/>
      <use xlink:href="#DejaVuSans-65" x="769.580078"/>
      <use xlink:href="#DejaVuSans-72" x="831.103516"/>
      <use xlink:href="#DejaVuSans-20" x="872.216797"/>
      <use xlink:href="#DejaVuSans-6c" x="904.003906"/>
      <use xlink:href="#DejaVuSans-6f" x="931.787109"/>
      <use xlink:href="#DejaVuSans-6f" x="992.96875"/>
      <use xlink:href="#DejaVuSans-70" x="1054.150391"/>
      <use xlink:href="#DejaVuSans-73" x="1117.626953"/>
     </g>
    </g>
   </g>
   <g id="patch_9">
    <path d="M 209.863636 298.905945 
L 311.318182 298.905945 
L 311.318182 291.568575 
L 209.863636 291.568575 
L 209.863636 298.905945 
z
" clip-path="url(#peafaf2ec25)" style="fill: #a699e4; stroke: #727272; stroke-width: 1.5; stroke-linejoin: miter"/>
   </g>
   <g id="line2d_23">
    <path d="M 260.590909 298.905945 
L 260.590909 302.645455 
" clip-path="url(#peafaf2ec25)" style="fill: none; stroke: #727272; stroke-width: 1.5; stroke-linecap: round"/>
   </g>
   <g id="line2d_24">
    <path d="M 260.590909 291.568575 
L 260.590909 281.299089 
" clip-path="url(#peafaf2ec25)" style="fill: none; stroke: #727272; stroke-width: 1.5; stroke-linecap: round"/>
   </g>
   <g id="line2d_25">
    <path d="M 235.227273 302.645455 
L 285.954545 302.645455 
" clip-path="url(#peafaf2ec25)" style="fill: none; stroke: #727272; stroke-width: 1.5; stroke-linecap: round"/>
   </g>
   <g id="line2d_26">
    <path d="M 235.227273 281.299089 
L 285.954545 281.299089 
" clip-path="url(#peafaf2ec25)" style="fill: none; stroke: #727272; stroke-width: 1.5; stroke-linecap: round"/>
   </g>
   <g id="line2d_27">
    <defs>
     <path id="m9dcefc598a" d="M -0 3.535534 
L 2.12132 0 
L -0 -3.535534 
L -2.12132 -0 
z
" style="stroke: #727272; stroke-linejoin: miter"/>
    </defs>
    <g clip-path="url(#peafaf2ec25)">
     <use xlink:href="#m9dcefc598a" x="260.590909" y="265.901943" style="fill: #727272; stroke: #727272; stroke-linejoin: miter"/>
     <use xlink:href="#m9dcefc598a" x="260.590909" y="272.856864" style="fill: #727272; stroke: #727272; stroke-linejoin: miter"/>
    </g>
   </g>
   <g id="line2d_28">
    <path d="M 209.863636 295.23726 
L 311.318182 295.23726 
" clip-path="url(#peafaf2ec25)" style="fill: none; stroke: #727272; stroke-width: 1.5; stroke-linecap: round"/>
   </g>
   <g id="patch_10">
    <path d="M 197.181818 315 
L 197.181818 43.2 
" style="fill: none; stroke: #cccccc; stroke-width: 0.8; stroke-linejoin: miter; stroke-linecap: square"/>
   </g>
   <g id="patch_11">
    <path d="M 324 315 
L 324 43.2 
" style="fill: none; stroke: #cccccc; stroke-width: 0.8; stroke-linejoin: miter; stroke-linecap: square"/>
   </g>
   <g id="patch_12">
    <path d="M 197.181818 315 
L 324 315 
" style="fill: none; stroke: #cccccc; stroke-width: 0.8; stroke-linejoin: miter; stroke-linecap: square"/>
   </g>
   <g id="patch_13">
    <path d="M 197.181818 43.2 
L 324 43.2 
" style="fill: none; stroke: #cccccc; stroke-width: 0.8; stroke-linejoin: miter; stroke-linecap: square"/>
   </g>
   <g id="PathCollection_3">
    <defs>
     <path id="C1_0_dae5a59dee" d="M 0 2.5 
C 0.663008 2.5 1.29895 2.236584 1.767767 1.767767 
C 2.236584 1.29895 2.5 0.663008 2.5 -0 
C 2.5 -0.663008 2.236584 -1.29895 1.767767 -1.767767 
C 1.29895 -2.236584 0.663008 -2.5 0 -2.5 
C -0.663008 -2.5 -1.29895 -2.236584 -1.767767 -1.767767 
C -2.236584 -1.29895 -2.5 -0.663008 -2.5 0 
C -2.5 0.663008 -2.236584 1.29895 -1.767767 1.767767 
C -1.29895 2.236584 -0.663008 2.5 0 2.5 
z
"/>
    </defs>
    <g clip-path="url(#peafaf2ec25)">
     <use xlink:href="#C1_0_dae5a59dee" x="260.590909" y="302.645455" style="fill: #2f6109"/>
    </g>
    <g clip-path="url(#peafaf2ec25)">
     <use xlink:href="#C1_0_dae5a59dee" x="255.358657" y="302.234675" style="fill: #2f6109"/>
    </g>
    <g clip-path="url(#peafaf2ec25)">
     <use xlink:href="#C1_0_dae5a59dee" x="265.819292" y="302.192181" style="fill: #2f6109"/>
    </g>
    <g clip-path="url(#peafaf2ec25)">
     <use xlink:href="#C1_0_dae5a59dee" x="271.061681" y="301.923049" style="fill: #2f6109"/>
    </g>
    <g clip-path="url(#peafaf2ec25)">
     <use xlink:href="#C1_0_dae5a59dee" x="250.137578" y="301.710577" style="fill: #2f6109"/>
    </g>
    <g clip-path="url(#peafaf2ec25)">
     <use xlink:href="#C1_0_dae5a59dee" x="244.888926" y="301.597259" style="fill: #2f6109"/>
    </g>
    <g clip-path="url(#peafaf2ec25)">
     <use xlink:href="#C1_0_dae5a59dee" x="276.28727" y="301.441446" style="fill: #2f6109"/>
    </g>
    <g clip-path="url(#peafaf2ec25)">
     <use xlink:href="#C1_0_dae5a59dee" x="239.687692" y="300.917348" style="fill: #2f6109"/>
    </g>
    <g clip-path="url(#peafaf2ec25)">
     <use xlink:href="#C1_0_dae5a59dee" x="281.367655" y="300.180778" style="fill: #2f6109"/>
    </g>
    <g clip-path="url(#peafaf2ec25)">
     <use xlink:href="#C1_0_dae5a59dee" x="286.615949" y="300.053295" style="fill: #2f6109"/>
    </g>
    <g clip-path="url(#peafaf2ec25)">
     <use xlink:href="#C1_0_dae5a59dee" x="234.521985" y="300.024965" style="fill: #2f6109"/>
    </g>
    <g clip-path="url(#peafaf2ec25)">
     <use xlink:href="#C1_0_dae5a59dee" x="291.855742" y="299.741669" style="fill: #2f6109"/>
    </g>
    <g clip-path="url(#peafaf2ec25)">
     <use xlink:href="#C1_0_dae5a59dee" x="229.296396" y="299.543362" style="fill: #2f6109"/>
    </g>
    <g clip-path="url(#peafaf2ec25)">
     <use xlink:href="#C1_0_dae5a59dee" x="297.031887" y="298.905945" style="fill: #2f6109"/>
    </g>
    <g clip-path="url(#peafaf2ec25)">
     <use xlink:href="#C1_0_dae5a59dee" x="224.108192" y="298.778462" style="fill: #2f6109"/>
    </g>
    <g clip-path="url(#peafaf2ec25)">
     <use xlink:href="#C1_0_dae5a59dee" x="302.278852" y="298.735968" style="fill: #2f6109"/>
    </g>
    <g clip-path="url(#peafaf2ec25)">
     <use xlink:href="#C1_0_dae5a59dee" x="218.865022" y="298.523495" style="fill: #2f6109"/>
    </g>
    <g clip-path="url(#peafaf2ec25)">
     <use xlink:href="#C1_0_dae5a59dee" x="258.577592" y="298.027727" style="fill: #2f6109"/>
    </g>
    <g clip-path="url(#peafaf2ec25)">
     <use xlink:href="#C1_0_dae5a59dee" x="307.471574" y="297.999398" style="fill: #2f6109"/>
    </g>
    <g clip-path="url(#peafaf2ec25)">
     <use xlink:href="#C1_0_dae5a59dee" x="213.663788" y="297.843585" style="fill: #2f6109"/>
    </g>
    <g clip-path="url(#peafaf2ec25)">
     <use xlink:href="#C1_0_dae5a59dee" x="263.753737" y="297.192004" style="fill: #2f6109"/>
    </g>
    <g clip-path="url(#peafaf2ec25)">
     <use xlink:href="#C1_0_dae5a59dee" x="253.529706" y="296.653741" style="fill: #2f6109"/>
    </g>
    <g clip-path="url(#peafaf2ec25)">
     <use xlink:href="#C1_0_dae5a59dee" x="268.902458" y="296.214632" style="fill: #2f6109"/>
    </g>
    <g clip-path="url(#peafaf2ec25)">
     <use xlink:href="#C1_0_dae5a59dee" x="248.302698" y="296.186302" style="fill: #2f6109"/>
    </g>
    <g clip-path="url(#peafaf2ec25)">
     <use xlink:href="#C1_0_dae5a59dee" x="274.148897" y="296.030489" style="fill: #2f6109"/>
    </g>
    <g clip-path="url(#peafaf2ec25)">
     <use xlink:href="#C1_0_dae5a59dee" x="243.124054" y="295.364743" style="fill: #2f6109"/>
    </g>
    <g clip-path="url(#peafaf2ec25)">
     <use xlink:href="#C1_0_dae5a59dee" x="279.332409" y="295.23726" style="fill: #2f6109"/>
    </g>
    <g clip-path="url(#peafaf2ec25)">
     <use xlink:href="#C1_0_dae5a59dee" x="237.87945" y="295.138106" style="fill: #2f6109"/>
    </g>
    <g clip-path="url(#peafaf2ec25)">
     <use xlink:href="#C1_0_dae5a59dee" x="284.567028" y="294.85481" style="fill: #2f6109"/>
    </g>
    <g clip-path="url(#peafaf2ec25)">
     <use xlink:href="#C1_0_dae5a59dee" x="232.663267" y="294.571514" style="fill: #2f6109"/>
    </g>
    <g clip-path="url(#peafaf2ec25)">
     <use xlink:href="#C1_0_dae5a59dee" x="289.804879" y="294.514855" style="fill: #2f6109"/>
    </g>
    <g clip-path="url(#peafaf2ec25)">
     <use xlink:href="#C1_0_dae5a59dee" x="227.419359" y="294.330712" style="fill: #2f6109"/>
    </g>
    <g clip-path="url(#peafaf2ec25)">
     <use xlink:href="#C1_0_dae5a59dee" x="295.027504" y="294.004922" style="fill: #2f6109"/>
    </g>
    <g clip-path="url(#peafaf2ec25)">
     <use xlink:href="#C1_0_dae5a59dee" x="222.196734" y="293.820779" style="fill: #2f6109"/>
    </g>
    <g clip-path="url(#peafaf2ec25)">
     <use xlink:href="#C1_0_dae5a59dee" x="300.264321" y="293.650802" style="fill: #2f6109"/>
    </g>
    <g clip-path="url(#peafaf2ec25)">
     <use xlink:href="#C1_0_dae5a59dee" x="216.965729" y="293.395835" style="fill: #2f6109"/>
    </g>
    <g clip-path="url(#peafaf2ec25)">
     <use xlink:href="#C1_0_dae5a59dee" x="260.425656" y="293.325011" style="fill: #2f6109"/>
    </g>
    <g clip-path="url(#peafaf2ec25)">
     <use xlink:href="#C1_0_dae5a59dee" x="305.4854" y="293.126704" style="fill: #2f6109"/>
    </g>
    <g clip-path="url(#peafaf2ec25)">
     <use xlink:href="#C1_0_dae5a59dee" x="211.800022" y="292.503452" style="fill: #2f6109"/>
    </g>
    <g clip-path="url(#peafaf2ec25)">
     <use xlink:href="#C1_0_dae5a59dee" x="265.341062" y="291.568575" style="fill: #2f6109"/>
    </g>
    <g clip-path="url(#peafaf2ec25)">
     <use xlink:href="#C1_0_dae5a59dee" x="255.673254" y="291.20029" style="fill: #2f6109"/>
    </g>
    <g clip-path="url(#peafaf2ec25)">
     <use xlink:href="#C1_0_dae5a59dee" x="270.553767" y="290.973653" style="fill: #2f6109"/>
    </g>
    <g clip-path="url(#peafaf2ec25)">
     <use xlink:href="#C1_0_dae5a59dee" x="250.455396" y="290.647862" style="fill: #2f6109"/>
    </g>
    <g clip-path="url(#peafaf2ec25)">
     <use xlink:href="#C1_0_dae5a59dee" x="275.768232" y="290.392896" style="fill: #2f6109"/>
    </g>
    <g clip-path="url(#peafaf2ec25)">
     <use xlink:href="#C1_0_dae5a59dee" x="245.429358" y="289.203052" style="fill: #2f6109"/>
    </g>
    <g clip-path="url(#peafaf2ec25)">
     <use xlink:href="#C1_0_dae5a59dee" x="280.860034" y="289.174722" style="fill: #2f6109"/>
    </g>
    <g clip-path="url(#peafaf2ec25)">
     <use xlink:href="#C1_0_dae5a59dee" x="240.194739" y="288.820602" style="fill: #2f6109"/>
    </g>
    <g clip-path="url(#peafaf2ec25)">
     <use xlink:href="#C1_0_dae5a59dee" x="286.050519" y="288.423987" style="fill: #2f6109"/>
    </g>
    <g clip-path="url(#peafaf2ec25)">
     <use xlink:href="#C1_0_dae5a59dee" x="260.590909" y="287.956549" style="fill: #2f6109"/>
    </g>
    <g clip-path="url(#peafaf2ec25)">
     <use xlink:href="#C1_0_dae5a59dee" x="258.892242" y="283.225503" style="fill: #2f6109"/>
    </g>
    <g clip-path="url(#peafaf2ec25)">
     <use xlink:href="#C1_0_dae5a59dee" x="263.736935" y="281.299089" style="fill: #2f6109"/>
    </g>
    <g clip-path="url(#peafaf2ec25)">
     <use xlink:href="#C1_0_dae5a59dee" x="260.590909" y="272.856864" style="fill: #2f6109"/>
    </g>
    <g clip-path="url(#peafaf2ec25)">
     <use xlink:href="#C1_0_dae5a59dee" x="260.590909" y="265.901943" style="fill: #2f6109"/>
    </g>
   </g>
   <g id="PathCollection_4">
    <defs>
     <path id="md70b0369d7" d="M 0 7.5 
C 1.989023 7.5 3.896849 6.709753 5.303301 5.303301 
C 6.709753 3.896849 7.5 1.989023 7.5 0 
C 7.5 -1.989023 6.709753 -3.896849 5.303301 -5.303301 
C 3.896849 -6.709753 1.989023 -7.5 0 -7.5 
C -1.989023 -7.5 -3.896849 -6.709753 -5.303301 -5.303301 
C -6.709753 -3.896849 -7.5 -1.989023 -7.5 0 
C -7.5 1.989023 -6.709753 3.896849 -5.303301 5.303301 
C -3.896849 6.709753 -1.989023 7.5 0 7.5 
z
"/>
    </defs>
    <g clip-path="url(#peafaf2ec25)">
     <use xlink:href="#md70b0369d7" x="260.590909" y="96.278368" style="fill: #d46300"/>
    </g>
   </g>
   <g id="text_12">
    <!-- CD4+ T cells -->
    <g style="fill: #262626" transform="translate(222.007159 37.2)scale(0.12 -0.12)">
     <defs>
      <path id="DejaVuSans-34" d="M 2419 4116 
L 825 1625 
L 2419 1625 
L 2419 4116 
z
M 2253 4666 
L 3047 4666 
L 3047 1625 
L 3713 1625 
L 3713 1100 
L 3047 1100 
L 3047 0 
L 2419 0 
L 2419 1100 
L 313 1100 
L 313 1709 
L 2253 4666 
z
" transform="scale(0.015625)"/>
     </defs>
     <use xlink:href="#DejaVuSans-43"/>
     <use xlink:href="#DejaVuSans-44" x="69.824219"/>
     <use xlink:href="#DejaVuSans-34" x="146.826172"/>
     <use xlink:href="#DejaVuSans-2b" x="210.449219"/>
     <use xlink:href="#DejaVuSans-20" x="294.238281"/>
     <use xlink:href="#DejaVuSans-54" x="326.025391"/>
     <use xlink:href="#DejaVuSans-20" x="387.109375"/>
     <use xlink:href="#DejaVuSans-63" x="418.896484"/>
     <use xlink:href="#DejaVuSans-65" x="473.876953"/>
     <use xlink:href="#DejaVuSans-6c" x="535.400391"/>
     <use xlink:href="#DejaVuSans-6c" x="563.183594"/>
     <use xlink:href="#DejaVuSans-73" x="590.966797"/>
    </g>
   </g>
  </g>
  <g id="text_13">
   <!-- Number of outlier loops per sample -->
   <g style="fill: #262626" transform="translate(38.04625 19.3575)scale(0.16 -0.16)">
    <defs>
     <path id="DejaVuSans-4e" d="M 628 4666 
L 1478 4666 
L 3547 763 
L 3547 4666 
L 4159 4666 
L 4159 0 
L 3309 0 
L 1241 3903 
L 1241 0 
L 628 0 
L 628 4666 
z
" transform="scale(0.015625)"/>
     <path id="DejaVuSans-61" d="M 2194 1759 
Q 1497 1759 1228 1600 
Q 959 1441 959 1056 
Q 959 750 1161 570 
Q 1363 391 1709 391 
Q 2188 391 2477 730 
Q 2766 1069 2766 1631 
L 2766 1759 
L 2194 1759 
z
M 3341 1997 
L 3341 0 
L 2766 0 
L 2766 531 
Q 2569 213 2275 61 
Q 1981 -91 1556 -91 
Q 1019 -91 701 211 
Q 384 513 384 1019 
Q 384 1609 779 1909 
Q 1175 2209 1959 2209 
L 2766 2209 
L 2766 2266 
Q 2766 2663 2505 2880 
Q 2244 3097 1772 3097 
Q 1472 3097 1187 3025 
Q 903 2953 641 2809 
L 641 3341 
Q 956 3463 1253 3523 
Q 1550 3584 1831 3584 
Q 2591 3584 2966 3190 
Q 3341 2797 3341 1997 
z
" transform="scale(0.015625)"/>
    </defs>
    <use xlink:href="#DejaVuSans-4e"/>
    <use xlink:href="#DejaVuSans-75" x="74.804688"/>
    <use xlink:href="#DejaVuSans-6d" x="138.183594"/>
    <use xlink:href="#DejaVuSans-62" x="235.595703"/>
    <use xlink:href="#DejaVuSans-65" x="299.072266"/>
    <use xlink:href="#DejaVuSans-72" x="360.595703"/>
    <use xlink:href="#DejaVuSans-20" x="401.708984"/>
    <use xlink:href="#DejaVuSans-6f" x="433.496094"/>
    <use xlink:href="#DejaVuSans-66" x="494.677734"/>
    <use xlink:href="#DejaVuSans-20" x="529.882812"/>
    <use xlink:href="#DejaVuSans-6f" x="561.669922"/>
    <use xlink:href="#DejaVuSans-75" x="622.851562"/>
    <use xlink:href="#DejaVuSans-74" x="686.230469"/>
    <use xlink:href="#DejaVuSans-6c" x="725.439453"/>
    <use xlink:href="#DejaVuSans-69" x="753.222656"/>
    <use xlink:href="#DejaVuSans-65" x="781.005859"/>
    <use xlink:href="#DejaVuSans-72" x="842.529297"/>
    <use xlink:href="#DejaVuSans-20" x="883.642578"/>
    <use xlink:href="#DejaVuSans-6c" x="915.429688"/>
    <use xlink:href="#DejaVuSans-6f" x="943.212891"/>
    <use xlink:href="#DejaVuSans-6f" x="1004.394531"/>
    <use xlink:href="#DejaVuSans-70" x="1065.576172"/>
    <use xlink:href="#DejaVuSans-73" x="1129.052734"/>
    <use xlink:href="#DejaVuSans-20" x="1181.152344"/>
    <use xlink:href="#DejaVuSans-70" x="1212.939453"/>
    <use xlink:href="#DejaVuSans-65" x="1276.416016"/>
    <use xlink:href="#DejaVuSans-72" x="1337.939453"/>
    <use xlink:href="#DejaVuSans-20" x="1379.052734"/>
    <use xlink:href="#DejaVuSans-73" x="1410.839844"/>
    <use xlink:href="#DejaVuSans-61" x="1462.939453"/>
    <use xlink:href="#DejaVuSans-6d" x="1524.21875"/>
    <use xlink:href="#DejaVuSans-70" x="1621.630859"/>
    <use xlink:href="#DejaVuSans-6c" x="1685.107422"/>
    <use xlink:href="#DejaVuSans-65" x="1712.890625"/>
   </g>
  </g>
 </g>
 <defs>
  <clipPath id="p1e2e0a494b">
   <rect x="45" y="43.2" width="126.818182" height="271.8"/>
  </clipPath>
  <clipPath id="peafaf2ec25">
   <rect x="197.181818" y="43.2" width="126.818182" height="271.8"/>
  </clipPath>
 </defs>
</svg>
