<svg class="main-svg" xmlns="http://www.w3.org/2000/svg" xmlns:xlink="http://www.w3.org/1999/xlink" width="600" height="700" style="" viewBox="0 0 600 700"><rect x="0" y="0" width="600" height="700" style="fill: rgb(255, 255, 255); fill-opacity: 1;"/><defs id="defs-fa51d8"><g class="clips"><clipPath id="clipfa51d8xyplot" class="plotclip"><rect width="440" height="520"/></clipPath><clipPath class="axesclip" id="clipfa51d8x"><rect x="80" y="0" width="440" height="700"/></clipPath><clipPath class="axesclip" id="clipfa51d8y"><rect x="0" y="100" width="600" height="520"/></clipPath><clipPath class="axesclip" id="clipfa51d8xy"><rect x="80" y="100" width="440" height="520"/></clipPath></g><g class="gradients"/><g class="patterns"/></defs><g class="bglayer"><rect class="bg" x="80" y="100" width="440" height="520" style="fill: rgb(229, 236, 246); fill-opacity: 1; stroke-width: 0;"/></g><g class="layer-below"><g class="imagelayer"/><g class="shapelayer"/></g><g class="cartesianlayer"><g class="subplot xy"><g class="layer-subplot"><g class="shapelayer"/><g class="imagelayer"/></g><g class="minor-gridlayer"><g class="x"/><g class="y"/></g><g class="gridlayer"><g class="x"/><g class="y"><path class="ygrid crisp" transform="translate(0,543.0799999999999)" d="M80,0h440" style="stroke: rgb(255, 255, 255); stroke-opacity: 1; stroke-width: 1px;"/><path class="ygrid crisp" transform="translate(0,439.32)" d="M80,0h440" style="stroke: rgb(255, 255, 255); stroke-opacity: 1; stroke-width: 1px;"/><path class="ygrid crisp" transform="translate(0,335.56)" d="M80,0h440" style="stroke: rgb(255, 255, 255); stroke-opacity: 1; stroke-width: 1px;"/><path class="ygrid crisp" transform="translate(0,231.8)" d="M80,0h440" style="stroke: rgb(255, 255, 255); stroke-opacity: 1; stroke-width: 1px;"/><path class="ygrid crisp" transform="translate(0,128.04)" d="M80,0h440" style="stroke: rgb(255, 255, 255); stroke-opacity: 1; stroke-width: 1px;"/></g></g><g class="zerolinelayer"/><path class="xlines-below"/><path class="ylines-below"/><g class="overlines-below"/><g class="xaxislayer-below"/><g class="yaxislayer-below"/><g class="overaxes-below"/><g class="plot" transform="translate(80,100)" clip-path="url(#clipfa51d8xyplot)"><g class="boxlayer mlayer"><g class="trace boxes" style="opacity: 1;"><path class="box" d="M43.96,408.7H79.24M43.96,428.11H79.24V397.63H43.96ZM61.6,428.11V448.74M61.6,397.63V364.82M52.78,448.74H70.42M52.78,364.82H70.42" style="vector-effect: none; stroke-width: 2px; stroke: rgb(255, 255, 255); stroke-opacity: 0; fill: rgb(255, 255, 255); fill-opacity: 0;"/><path class="box" d="M259.96,121.71H295.24M259.96,190.69H295.24V91.15H259.96ZM277.6,190.69V236.99M277.6,91.15V34.89M268.78,236.99H286.42M268.78,34.89H286.42" style="vector-effect: none; stroke-width: 2px; stroke: rgb(255, 255, 255); stroke-opacity: 0; fill: rgb(255, 255, 255); fill-opacity: 0;"/><g class="points"><path class="point" transform="translate(64.02,448.74)" d="M4,0A4,4 0 1,1 0,-4A4,4 0 0,1 4,0Z" style="opacity: 0.8; stroke-width: 1px; fill: rgb(0, 204, 150); fill-opacity: 1; stroke: rgb(47, 79, 79); stroke-opacity: 1;"/><path class="point" transform="translate(58.68,439.07)" d="M4,0A4,4 0 1,1 0,-4A4,4 0 0,1 4,0Z" style="opacity: 0.8; stroke-width: 1px; fill: rgb(0, 204, 150); fill-opacity: 1; stroke: rgb(47, 79, 79); stroke-opacity: 1;"/><path class="point" transform="translate(65.25,437.08)" d="M4,0A4,4 0 1,1 0,-4A4,4 0 0,1 4,0Z" style="opacity: 0.8; stroke-width: 1px; fill: rgb(0, 204, 150); fill-opacity: 1; stroke: rgb(47, 79, 79); stroke-opacity: 1;"/><path class="point" transform="translate(57.73,434.45)" d="M4,0A4,4 0 1,1 0,-4A4,4 0 0,1 4,0Z" style="opacity: 0.8; stroke-width: 1px; fill: rgb(0, 204, 150); fill-opacity: 1; stroke: rgb(47, 79, 79); stroke-opacity: 1;"/><path class="point" transform="translate(60.51,426)" d="M4,0A4,4 0 1,1 0,-4A4,4 0 0,1 4,0Z" style="opacity: 0.8; stroke-width: 1px; fill: rgb(0, 204, 150); fill-opacity: 1; stroke: rgb(47, 79, 79); stroke-opacity: 1;"/><path class="point" transform="translate(64.01,424.65)" d="M4,0A4,4 0 1,1 0,-4A4,4 0 0,1 4,0Z" style="opacity: 0.8; stroke-width: 1px; fill: rgb(0, 204, 150); fill-opacity: 1; stroke: rgb(47, 79, 79); stroke-opacity: 1;"/><path class="point" transform="translate(61.41,418.82)" d="M4,0A4,4 0 1,1 0,-4A4,4 0 0,1 4,0Z" style="opacity: 0.8; stroke-width: 1px; fill: rgb(0, 204, 150); fill-opacity: 1; stroke: rgb(47, 79, 79); stroke-opacity: 1;"/><path class="point" transform="translate(63.1,415.6)" d="M4,0A4,4 0 1,1 0,-4A4,4 0 0,1 4,0Z" style="opacity: 0.8; stroke-width: 1px; fill: rgb(0, 204, 150); fill-opacity: 1; stroke: rgb(47, 79, 79); stroke-opacity: 1;"/><path class="point" transform="translate(59.91,408.7)" d="M4,0A4,4 0 1,1 0,-4A4,4 0 0,1 4,0Z" style="opacity: 0.8; stroke-width: 1px; fill: rgb(0, 204, 150); fill-opacity: 1; stroke: rgb(47, 79, 79); stroke-opacity: 1;"/><path class="point" transform="translate(57.99,400.21)" d="M4,0A4,4 0 1,1 0,-4A4,4 0 0,1 4,0Z" style="opacity: 0.8; stroke-width: 1px; fill: rgb(0, 204, 150); fill-opacity: 1; stroke: rgb(47, 79, 79); stroke-opacity: 1;"/><path class="point" transform="translate(62.74,399.06)" d="M4,0A4,4 0 1,1 0,-4A4,4 0 0,1 4,0Z" style="opacity: 0.8; stroke-width: 1px; fill: rgb(0, 204, 150); fill-opacity: 1; stroke: rgb(47, 79, 79); stroke-opacity: 1;"/><path class="point" transform="translate(60.15,399.02)" d="M4,0A4,4 0 1,1 0,-4A4,4 0 0,1 4,0Z" style="opacity: 0.8; stroke-width: 1px; fill: rgb(0, 204, 150); fill-opacity: 1; stroke: rgb(47, 79, 79); stroke-opacity: 1;"/><path class="point" transform="translate(64.33,397.83)" d="M4,0A4,4 0 1,1 0,-4A4,4 0 0,1 4,0Z" style="opacity: 0.8; stroke-width: 1px; fill: rgb(0, 204, 150); fill-opacity: 1; stroke: rgb(47, 79, 79); stroke-opacity: 1;"/><path class="point" transform="translate(57.35,397.05)" d="M4,0A4,4 0 1,1 0,-4A4,4 0 0,1 4,0Z" style="opacity: 0.8; stroke-width: 1px; fill: rgb(0, 204, 150); fill-opacity: 1; stroke: rgb(47, 79, 79); stroke-opacity: 1;"/><path class="point" transform="translate(58.97,382.82)" d="M4,0A4,4 0 1,1 0,-4A4,4 0 0,1 4,0Z" style="opacity: 0.8; stroke-width: 1px; fill: rgb(0, 204, 150); fill-opacity: 1; stroke: rgb(47, 79, 79); stroke-opacity: 1;"/><path class="point" transform="translate(65.39,366.81)" d="M4,0A4,4 0 1,1 0,-4A4,4 0 0,1 4,0Z" style="opacity: 0.8; stroke-width: 1px; fill: rgb(0, 204, 150); fill-opacity: 1; stroke: rgb(47, 79, 79); stroke-opacity: 1;"/><path class="point" transform="translate(60.62,364.82)" d="M4,0A4,4 0 1,1 0,-4A4,4 0 0,1 4,0Z" style="opacity: 0.8; stroke-width: 1px; fill: rgb(0, 204, 150); fill-opacity: 1; stroke: rgb(47, 79, 79); stroke-opacity: 1;"/></g><g class="points"><path class="point" transform="translate(273.15,236.99)" d="M4,0A4,4 0 1,1 0,-4A4,4 0 0,1 4,0Z" style="opacity: 0.8; stroke-width: 1px; fill: rgb(0, 204, 150); fill-opacity: 1; stroke: rgb(47, 79, 79); stroke-opacity: 1;"/><path class="point" transform="translate(276.06,234.68)" d="M4,0A4,4 0 1,1 0,-4A4,4 0 0,1 4,0Z" style="opacity: 0.8; stroke-width: 1px; fill: rgb(0, 204, 150); fill-opacity: 1; stroke: rgb(47, 79, 79); stroke-opacity: 1;"/><path class="point" transform="translate(277.5,226.33)" d="M4,0A4,4 0 1,1 0,-4A4,4 0 0,1 4,0Z" style="opacity: 0.8; stroke-width: 1px; fill: rgb(0, 204, 150); fill-opacity: 1; stroke: rgb(47, 79, 79); stroke-opacity: 1;"/><path class="point" transform="translate(279.61,197.35)" d="M4,0A4,4 0 1,1 0,-4A4,4 0 0,1 4,0Z" style="opacity: 0.8; stroke-width: 1px; fill: rgb(0, 204, 150); fill-opacity: 1; stroke: rgb(47, 79, 79); stroke-opacity: 1;"/><path class="point" transform="translate(278.1,184.04)" d="M4,0A4,4 0 1,1 0,-4A4,4 0 0,1 4,0Z" style="opacity: 0.8; stroke-width: 1px; fill: rgb(0, 204, 150); fill-opacity: 1; stroke: rgb(47, 79, 79); stroke-opacity: 1;"/><path class="point" transform="translate(276.28,179.54)" d="M4,0A4,4 0 1,1 0,-4A4,4 0 0,1 4,0Z" style="opacity: 0.8; stroke-width: 1px; fill: rgb(0, 204, 150); fill-opacity: 1; stroke: rgb(47, 79, 79); stroke-opacity: 1;"/><path class="point" transform="translate(273.7,151.69)" d="M4,0A4,4 0 1,1 0,-4A4,4 0 0,1 4,0Z" style="opacity: 0.8; stroke-width: 1px; fill: rgb(0, 204, 150); fill-opacity: 1; stroke: rgb(47, 79, 79); stroke-opacity: 1;"/><path class="point" transform="translate(277.59,129.59)" d="M4,0A4,4 0 1,1 0,-4A4,4 0 0,1 4,0Z" style="opacity: 0.8; stroke-width: 1px; fill: rgb(0, 204, 150); fill-opacity: 1; stroke: rgb(47, 79, 79); stroke-opacity: 1;"/><path class="point" transform="translate(276.06,113.82)" d="M4,0A4,4 0 1,1 0,-4A4,4 0 0,1 4,0Z" style="opacity: 0.8; stroke-width: 1px; fill: rgb(0, 204, 150); fill-opacity: 1; stroke: rgb(47, 79, 79); stroke-opacity: 1;"/><path class="point" transform="translate(279.75,101.02)" d="M4,0A4,4 0 1,1 0,-4A4,4 0 0,1 4,0Z" style="opacity: 0.8; stroke-width: 1px; fill: rgb(0, 204, 150); fill-opacity: 1; stroke: rgb(47, 79, 79); stroke-opacity: 1;"/><path class="point" transform="translate(277.19,96.39)" d="M4,0A4,4 0 1,1 0,-4A4,4 0 0,1 4,0Z" style="opacity: 0.8; stroke-width: 1px; fill: rgb(0, 204, 150); fill-opacity: 1; stroke: rgb(47, 79, 79); stroke-opacity: 1;"/><path class="point" transform="translate(274.41,92.61)" d="M4,0A4,4 0 1,1 0,-4A4,4 0 0,1 4,0Z" style="opacity: 0.8; stroke-width: 1px; fill: rgb(0, 204, 150); fill-opacity: 1; stroke: rgb(47, 79, 79); stroke-opacity: 1;"/><path class="point" transform="translate(272.84,89.7)" d="M4,0A4,4 0 1,1 0,-4A4,4 0 0,1 4,0Z" style="opacity: 0.8; stroke-width: 1px; fill: rgb(0, 204, 150); fill-opacity: 1; stroke: rgb(47, 79, 79); stroke-opacity: 1;"/><path class="point" transform="translate(280.55,86.69)" d="M4,0A4,4 0 1,1 0,-4A4,4 0 0,1 4,0Z" style="opacity: 0.8; stroke-width: 1px; fill: rgb(0, 204, 150); fill-opacity: 1; stroke: rgb(47, 79, 79); stroke-opacity: 1;"/><path class="point" transform="translate(273.08,39.22)" d="M4,0A4,4 0 1,1 0,-4A4,4 0 0,1 4,0Z" style="opacity: 0.8; stroke-width: 1px; fill: rgb(0, 204, 150); fill-opacity: 1; stroke: rgb(47, 79, 79); stroke-opacity: 1;"/><path class="point" transform="translate(280.58,34.89)" d="M4,0A4,4 0 1,1 0,-4A4,4 0 0,1 4,0Z" style="opacity: 0.8; stroke-width: 1px; fill: rgb(0, 204, 150); fill-opacity: 1; stroke: rgb(47, 79, 79); stroke-opacity: 1;"/></g></g><g class="trace boxes" style="opacity: 1;"><path class="box" d="M94.36,389.32H129.64M94.36,389.32H129.64V389.32H94.36ZM112,389.32V389.32M112,389.32V389.32M103.18,389.32H120.82M103.18,389.32H120.82" style="vector-effect: none; stroke-width: 2px; stroke: rgb(255, 255, 255); stroke-opacity: 0; fill: rgb(255, 255, 255); fill-opacity: 0;"/><path class="box" d="M310.36,172.82H345.64M310.36,256.42H345.64V142.5H310.36ZM328,256.42V377.69M328,142.5V139.46M319.18,377.69H336.82M319.18,139.46H336.82" style="vector-effect: none; stroke-width: 2px; stroke: rgb(255, 255, 255); stroke-opacity: 0; fill: rgb(255, 255, 255); fill-opacity: 0;"/><g class="points"><path class="point" transform="translate(114.75,389.32)" d="M4,0A4,4 0 1,1 0,-4A4,4 0 0,1 4,0Z" style="opacity: 0.8; stroke-width: 1px; fill: rgb(171, 99, 250); fill-opacity: 1; stroke: rgb(47, 79, 79); stroke-opacity: 1;"/></g><g class="points"><path class="point" transform="translate(325.76,377.69)" d="M4,0A4,4 0 1,1 0,-4A4,4 0 0,1 4,0Z" style="opacity: 0.8; stroke-width: 1px; fill: rgb(171, 99, 250); fill-opacity: 1; stroke: rgb(47, 79, 79); stroke-opacity: 1;"/><path class="point" transform="translate(330.97,270.34)" d="M4,0A4,4 0 1,1 0,-4A4,4 0 0,1 4,0Z" style="opacity: 0.8; stroke-width: 1px; fill: rgb(171, 99, 250); fill-opacity: 1; stroke: rgb(47, 79, 79); stroke-opacity: 1;"/><path class="point" transform="translate(324.52,242.5)" d="M4,0A4,4 0 1,1 0,-4A4,4 0 0,1 4,0Z" style="opacity: 0.8; stroke-width: 1px; fill: rgb(171, 99, 250); fill-opacity: 1; stroke: rgb(47, 79, 79); stroke-opacity: 1;"/><path class="point" transform="translate(326.99,201.29)" d="M4,0A4,4 0 1,1 0,-4A4,4 0 0,1 4,0Z" style="opacity: 0.8; stroke-width: 1px; fill: rgb(171, 99, 250); fill-opacity: 1; stroke: rgb(47, 79, 79); stroke-opacity: 1;"/><path class="point" transform="translate(330.16,144.35)" d="M4,0A4,4 0 1,1 0,-4A4,4 0 0,1 4,0Z" style="opacity: 0.8; stroke-width: 1px; fill: rgb(171, 99, 250); fill-opacity: 1; stroke: rgb(47, 79, 79); stroke-opacity: 1;"/><path class="point" transform="translate(327.85,143.58)" d="M4,0A4,4 0 1,1 0,-4A4,4 0 0,1 4,0Z" style="opacity: 0.8; stroke-width: 1px; fill: rgb(171, 99, 250); fill-opacity: 1; stroke: rgb(47, 79, 79); stroke-opacity: 1;"/><path class="point" transform="translate(329.49,141.42)" d="M4,0A4,4 0 1,1 0,-4A4,4 0 0,1 4,0Z" style="opacity: 0.8; stroke-width: 1px; fill: rgb(171, 99, 250); fill-opacity: 1; stroke: rgb(47, 79, 79); stroke-opacity: 1;"/><path class="point" transform="translate(326.31,139.46)" d="M4,0A4,4 0 1,1 0,-4A4,4 0 0,1 4,0Z" style="opacity: 0.8; stroke-width: 1px; fill: rgb(171, 99, 250); fill-opacity: 1; stroke: rgb(47, 79, 79); stroke-opacity: 1;"/></g></g><g class="trace boxes" style="opacity: 1;"><path class="box" d="M144.76,401.09H180.04M144.76,419.56H180.04V388.63H144.76ZM162.4,419.56V458.06M162.4,388.63V361.99M153.58,458.06H171.22M153.58,361.99H171.22" style="vector-effect: none; stroke-width: 2px; stroke: rgb(255, 255, 255); stroke-opacity: 0; fill: rgb(255, 255, 255); fill-opacity: 0;"/><path class="box" d="M360.76,125.77H396.04M360.76,158.98H396.04V97.85H360.76ZM378.4,158.98V225.02M378.4,97.85V26M369.58,225.02H387.22M369.58,26H387.22" style="vector-effect: none; stroke-width: 2px; stroke: rgb(255, 255, 255); stroke-opacity: 0; fill: rgb(255, 255, 255); fill-opacity: 0;"/><g class="points"><path class="point" transform="translate(163.34,494)" d="M4,0A4,4 0 1,1 0,-4A4,4 0 0,1 4,0Z" style="opacity: 0.8; stroke-width: 1px; fill: rgb(255, 161, 90); fill-opacity: 1; stroke: rgb(47, 79, 79); stroke-opacity: 1;"/><path class="point" transform="translate(161.15,458.06)" d="M4,0A4,4 0 1,1 0,-4A4,4 0 0,1 4,0Z" style="opacity: 0.8; stroke-width: 1px; fill: rgb(255, 161, 90); fill-opacity: 1; stroke: rgb(47, 79, 79); stroke-opacity: 1;"/><path class="point" transform="translate(164.01,430.81)" d="M4,0A4,4 0 1,1 0,-4A4,4 0 0,1 4,0Z" style="opacity: 0.8; stroke-width: 1px; fill: rgb(255, 161, 90); fill-opacity: 1; stroke: rgb(47, 79, 79); stroke-opacity: 1;"/><path class="point" transform="translate(160.52,429.07)" d="M4,0A4,4 0 1,1 0,-4A4,4 0 0,1 4,0Z" style="opacity: 0.8; stroke-width: 1px; fill: rgb(255, 161, 90); fill-opacity: 1; stroke: rgb(47, 79, 79); stroke-opacity: 1;"/><path class="point" transform="translate(161.83,427.72)" d="M4,0A4,4 0 1,1 0,-4A4,4 0 0,1 4,0Z" style="opacity: 0.8; stroke-width: 1px; fill: rgb(255, 161, 90); fill-opacity: 1; stroke: rgb(47, 79, 79); stroke-opacity: 1;"/><path class="point" transform="translate(163.64,422.91)" d="M4,0A4,4 0 1,1 0,-4A4,4 0 0,1 4,0Z" style="opacity: 0.8; stroke-width: 1px; fill: rgb(255, 161, 90); fill-opacity: 1; stroke: rgb(47, 79, 79); stroke-opacity: 1;"/><path class="point" transform="translate(162.29,422.01)" d="M4,0A4,4 0 1,1 0,-4A4,4 0 0,1 4,0Z" style="opacity: 0.8; stroke-width: 1px; fill: rgb(255, 161, 90); fill-opacity: 1; stroke: rgb(47, 79, 79); stroke-opacity: 1;"/><path class="point" transform="translate(163.58,418.74)" d="M4,0A4,4 0 1,1 0,-4A4,4 0 0,1 4,0Z" style="opacity: 0.8; stroke-width: 1px; fill: rgb(255, 161, 90); fill-opacity: 1; stroke: rgb(47, 79, 79); stroke-opacity: 1;"/><path class="point" transform="translate(161.1,418.47)" d="M4,0A4,4 0 1,1 0,-4A4,4 0 0,1 4,0Z" style="opacity: 0.8; stroke-width: 1px; fill: rgb(255, 161, 90); fill-opacity: 1; stroke: rgb(47, 79, 79); stroke-opacity: 1;"/><path class="point" transform="translate(159.34,415.09)" d="M4,0A4,4 0 1,1 0,-4A4,4 0 0,1 4,0Z" style="opacity: 0.8; stroke-width: 1px; fill: rgb(255, 161, 90); fill-opacity: 1; stroke: rgb(47, 79, 79); stroke-opacity: 1;"/><path class="point" transform="translate(163.62,410.8)" d="M4,0A4,4 0 1,1 0,-4A4,4 0 0,1 4,0Z" style="opacity: 0.8; stroke-width: 1px; fill: rgb(255, 161, 90); fill-opacity: 1; stroke: rgb(47, 79, 79); stroke-opacity: 1;"/><path class="point" transform="translate(160.99,407.98)" d="M4,0A4,4 0 1,1 0,-4A4,4 0 0,1 4,0Z" style="opacity: 0.8; stroke-width: 1px; fill: rgb(255, 161, 90); fill-opacity: 1; stroke: rgb(47, 79, 79); stroke-opacity: 1;"/><path class="point" transform="translate(165.22,403.01)" d="M4,0A4,4 0 1,1 0,-4A4,4 0 0,1 4,0Z" style="opacity: 0.8; stroke-width: 1px; fill: rgb(255, 161, 90); fill-opacity: 1; stroke: rgb(47, 79, 79); stroke-opacity: 1;"/><path class="point" transform="translate(158.16,401.13)" d="M4,0A4,4 0 1,1 0,-4A4,4 0 0,1 4,0Z" style="opacity: 0.8; stroke-width: 1px; fill: rgb(255, 161, 90); fill-opacity: 1; stroke: rgb(47, 79, 79); stroke-opacity: 1;"/><path class="point" transform="translate(159.71,401.09)" d="M4,0A4,4 0 1,1 0,-4A4,4 0 0,1 4,0Z" style="opacity: 0.8; stroke-width: 1px; fill: rgb(255, 161, 90); fill-opacity: 1; stroke: rgb(47, 79, 79); stroke-opacity: 1;"/><path class="point" transform="translate(166.91,400.44)" d="M4,0A4,4 0 1,1 0,-4A4,4 0 0,1 4,0Z" style="opacity: 0.8; stroke-width: 1px; fill: rgb(255, 161, 90); fill-opacity: 1; stroke: rgb(47, 79, 79); stroke-opacity: 1;"/><path class="point" transform="translate(161.07,396.81)" d="M4,0A4,4 0 1,1 0,-4A4,4 0 0,1 4,0Z" style="opacity: 0.8; stroke-width: 1px; fill: rgb(255, 161, 90); fill-opacity: 1; stroke: rgb(47, 79, 79); stroke-opacity: 1;"/><path class="point" transform="translate(158.52,395.23)" d="M4,0A4,4 0 1,1 0,-4A4,4 0 0,1 4,0Z" style="opacity: 0.8; stroke-width: 1px; fill: rgb(255, 161, 90); fill-opacity: 1; stroke: rgb(47, 79, 79); stroke-opacity: 1;"/><path class="point" transform="translate(161.08,393.94)" d="M4,0A4,4 0 1,1 0,-4A4,4 0 0,1 4,0Z" style="opacity: 0.8; stroke-width: 1px; fill: rgb(255, 161, 90); fill-opacity: 1; stroke: rgb(47, 79, 79); stroke-opacity: 1;"/><path class="point" transform="translate(162.32,393.59)" d="M4,0A4,4 0 1,1 0,-4A4,4 0 0,1 4,0Z" style="opacity: 0.8; stroke-width: 1px; fill: rgb(255, 161, 90); fill-opacity: 1; stroke: rgb(47, 79, 79); stroke-opacity: 1;"/><path class="point" transform="translate(164.1,392.95)" d="M4,0A4,4 0 1,1 0,-4A4,4 0 0,1 4,0Z" style="opacity: 0.8; stroke-width: 1px; fill: rgb(255, 161, 90); fill-opacity: 1; stroke: rgb(47, 79, 79); stroke-opacity: 1;"/><path class="point" transform="translate(162.81,391.39)" d="M4,0A4,4 0 1,1 0,-4A4,4 0 0,1 4,0Z" style="opacity: 0.8; stroke-width: 1px; fill: rgb(255, 161, 90); fill-opacity: 1; stroke: rgb(47, 79, 79); stroke-opacity: 1;"/><path class="point" transform="translate(161.66,380.32)" d="M4,0A4,4 0 1,1 0,-4A4,4 0 0,1 4,0Z" style="opacity: 0.8; stroke-width: 1px; fill: rgb(255, 161, 90); fill-opacity: 1; stroke: rgb(47, 79, 79); stroke-opacity: 1;"/><path class="point" transform="translate(160.27,371.84)" d="M4,0A4,4 0 1,1 0,-4A4,4 0 0,1 4,0Z" style="opacity: 0.8; stroke-width: 1px; fill: rgb(255, 161, 90); fill-opacity: 1; stroke: rgb(47, 79, 79); stroke-opacity: 1;"/><path class="point" transform="translate(162.39,371.73)" d="M4,0A4,4 0 1,1 0,-4A4,4 0 0,1 4,0Z" style="opacity: 0.8; stroke-width: 1px; fill: rgb(255, 161, 90); fill-opacity: 1; stroke: rgb(47, 79, 79); stroke-opacity: 1;"/><path class="point" transform="translate(161.73,367.89)" d="M4,0A4,4 0 1,1 0,-4A4,4 0 0,1 4,0Z" style="opacity: 0.8; stroke-width: 1px; fill: rgb(255, 161, 90); fill-opacity: 1; stroke: rgb(47, 79, 79); stroke-opacity: 1;"/><path class="point" transform="translate(163.41,361.99)" d="M4,0A4,4 0 1,1 0,-4A4,4 0 0,1 4,0Z" style="opacity: 0.8; stroke-width: 1px; fill: rgb(255, 161, 90); fill-opacity: 1; stroke: rgb(47, 79, 79); stroke-opacity: 1;"/><path class="point" transform="translate(162.21,327.76)" d="M4,0A4,4 0 1,1 0,-4A4,4 0 0,1 4,0Z" style="opacity: 0.8; stroke-width: 1px; fill: rgb(255, 161, 90); fill-opacity: 1; stroke: rgb(47, 79, 79); stroke-opacity: 1;"/><path class="point" transform="translate(160.98,322.41)" d="M4,0A4,4 0 1,1 0,-4A4,4 0 0,1 4,0Z" style="opacity: 0.8; stroke-width: 1px; fill: rgb(255, 161, 90); fill-opacity: 1; stroke: rgb(47, 79, 79); stroke-opacity: 1;"/></g><g class="points"><path class="point" transform="translate(375.8,225.02)" d="M4,0A4,4 0 1,1 0,-4A4,4 0 0,1 4,0Z" style="opacity: 0.8; stroke-width: 1px; fill: rgb(255, 161, 90); fill-opacity: 1; stroke: rgb(47, 79, 79); stroke-opacity: 1;"/><path class="point" transform="translate(380.07,214.39)" d="M4,0A4,4 0 1,1 0,-4A4,4 0 0,1 4,0Z" style="opacity: 0.8; stroke-width: 1px; fill: rgb(255, 161, 90); fill-opacity: 1; stroke: rgb(47, 79, 79); stroke-opacity: 1;"/><path class="point" transform="translate(375.9,196.85)" d="M4,0A4,4 0 1,1 0,-4A4,4 0 0,1 4,0Z" style="opacity: 0.8; stroke-width: 1px; fill: rgb(255, 161, 90); fill-opacity: 1; stroke: rgb(47, 79, 79); stroke-opacity: 1;"/><path class="point" transform="translate(380.19,190.29)" d="M4,0A4,4 0 1,1 0,-4A4,4 0 0,1 4,0Z" style="opacity: 0.8; stroke-width: 1px; fill: rgb(255, 161, 90); fill-opacity: 1; stroke: rgb(47, 79, 79); stroke-opacity: 1;"/><path class="point" transform="translate(379.09,180.52)" d="M4,0A4,4 0 1,1 0,-4A4,4 0 0,1 4,0Z" style="opacity: 0.8; stroke-width: 1px; fill: rgb(255, 161, 90); fill-opacity: 1; stroke: rgb(47, 79, 79); stroke-opacity: 1;"/><path class="point" transform="translate(377.44,177.95)" d="M4,0A4,4 0 1,1 0,-4A4,4 0 0,1 4,0Z" style="opacity: 0.8; stroke-width: 1px; fill: rgb(255, 161, 90); fill-opacity: 1; stroke: rgb(47, 79, 79); stroke-opacity: 1;"/><path class="point" transform="translate(376.36,175.23)" d="M4,0A4,4 0 1,1 0,-4A4,4 0 0,1 4,0Z" style="opacity: 0.8; stroke-width: 1px; fill: rgb(255, 161, 90); fill-opacity: 1; stroke: rgb(47, 79, 79); stroke-opacity: 1;"/><path class="point" transform="translate(380.22,165.43)" d="M4,0A4,4 0 1,1 0,-4A4,4 0 0,1 4,0Z" style="opacity: 0.8; stroke-width: 1px; fill: rgb(255, 161, 90); fill-opacity: 1; stroke: rgb(47, 79, 79); stroke-opacity: 1;"/><path class="point" transform="translate(377.96,160.94)" d="M4,0A4,4 0 1,1 0,-4A4,4 0 0,1 4,0Z" style="opacity: 0.8; stroke-width: 1px; fill: rgb(255, 161, 90); fill-opacity: 1; stroke: rgb(47, 79, 79); stroke-opacity: 1;"/><path class="point" transform="translate(381.38,158.32)" d="M4,0A4,4 0 1,1 0,-4A4,4 0 0,1 4,0Z" style="opacity: 0.8; stroke-width: 1px; fill: rgb(255, 161, 90); fill-opacity: 1; stroke: rgb(47, 79, 79); stroke-opacity: 1;"/><path class="point" transform="translate(374.9,154.75)" d="M4,0A4,4 0 1,1 0,-4A4,4 0 0,1 4,0Z" style="opacity: 0.8; stroke-width: 1px; fill: rgb(255, 161, 90); fill-opacity: 1; stroke: rgb(47, 79, 79); stroke-opacity: 1;"/><path class="point" transform="translate(381.15,152.89)" d="M4,0A4,4 0 1,1 0,-4A4,4 0 0,1 4,0Z" style="opacity: 0.8; stroke-width: 1px; fill: rgb(255, 161, 90); fill-opacity: 1; stroke: rgb(47, 79, 79); stroke-opacity: 1;"/><path class="point" transform="translate(378.04,151.98)" d="M4,0A4,4 0 1,1 0,-4A4,4 0 0,1 4,0Z" style="opacity: 0.8; stroke-width: 1px; fill: rgb(255, 161, 90); fill-opacity: 1; stroke: rgb(47, 79, 79); stroke-opacity: 1;"/><path class="point" transform="translate(376.61,147.32)" d="M4,0A4,4 0 1,1 0,-4A4,4 0 0,1 4,0Z" style="opacity: 0.8; stroke-width: 1px; fill: rgb(255, 161, 90); fill-opacity: 1; stroke: rgb(47, 79, 79); stroke-opacity: 1;"/><path class="point" transform="translate(373.91,141.78)" d="M4,0A4,4 0 1,1 0,-4A4,4 0 0,1 4,0Z" style="opacity: 0.8; stroke-width: 1px; fill: rgb(255, 161, 90); fill-opacity: 1; stroke: rgb(47, 79, 79); stroke-opacity: 1;"/><path class="point" transform="translate(376.52,135.85)" d="M4,0A4,4 0 1,1 0,-4A4,4 0 0,1 4,0Z" style="opacity: 0.8; stroke-width: 1px; fill: rgb(255, 161, 90); fill-opacity: 1; stroke: rgb(47, 79, 79); stroke-opacity: 1;"/><path class="point" transform="translate(381.67,135.77)" d="M4,0A4,4 0 1,1 0,-4A4,4 0 0,1 4,0Z" style="opacity: 0.8; stroke-width: 1px; fill: rgb(255, 161, 90); fill-opacity: 1; stroke: rgb(47, 79, 79); stroke-opacity: 1;"/><path class="point" transform="translate(377.25,126.59)" d="M4,0A4,4 0 1,1 0,-4A4,4 0 0,1 4,0Z" style="opacity: 0.8; stroke-width: 1px; fill: rgb(255, 161, 90); fill-opacity: 1; stroke: rgb(47, 79, 79); stroke-opacity: 1;"/><path class="point" transform="translate(374.84,125.77)" d="M4,0A4,4 0 1,1 0,-4A4,4 0 0,1 4,0Z" style="opacity: 0.8; stroke-width: 1px; fill: rgb(255, 161, 90); fill-opacity: 1; stroke: rgb(47, 79, 79); stroke-opacity: 1;"/><path class="point" transform="translate(380.8,123.24)" d="M4,0A4,4 0 1,1 0,-4A4,4 0 0,1 4,0Z" style="opacity: 0.8; stroke-width: 1px; fill: rgb(255, 161, 90); fill-opacity: 1; stroke: rgb(47, 79, 79); stroke-opacity: 1;"/><path class="point" transform="translate(375.56,123.19)" d="M4,0A4,4 0 1,1 0,-4A4,4 0 0,1 4,0Z" style="opacity: 0.8; stroke-width: 1px; fill: rgb(255, 161, 90); fill-opacity: 1; stroke: rgb(47, 79, 79); stroke-opacity: 1;"/><path class="point" transform="translate(378.4,122.47)" d="M4,0A4,4 0 1,1 0,-4A4,4 0 0,1 4,0Z" style="opacity: 0.8; stroke-width: 1px; fill: rgb(255, 161, 90); fill-opacity: 1; stroke: rgb(47, 79, 79); stroke-opacity: 1;"/><path class="point" transform="translate(380.56,120.4)" d="M4,0A4,4 0 1,1 0,-4A4,4 0 0,1 4,0Z" style="opacity: 0.8; stroke-width: 1px; fill: rgb(255, 161, 90); fill-opacity: 1; stroke: rgb(47, 79, 79); stroke-opacity: 1;"/><path class="point" transform="translate(373.45,112.49)" d="M4,0A4,4 0 1,1 0,-4A4,4 0 0,1 4,0Z" style="opacity: 0.8; stroke-width: 1px; fill: rgb(255, 161, 90); fill-opacity: 1; stroke: rgb(47, 79, 79); stroke-opacity: 1;"/><path class="point" transform="translate(382.82,112.11)" d="M4,0A4,4 0 1,1 0,-4A4,4 0 0,1 4,0Z" style="opacity: 0.8; stroke-width: 1px; fill: rgb(255, 161, 90); fill-opacity: 1; stroke: rgb(47, 79, 79); stroke-opacity: 1;"/><path class="point" transform="translate(380.2,109.8)" d="M4,0A4,4 0 1,1 0,-4A4,4 0 0,1 4,0Z" style="opacity: 0.8; stroke-width: 1px; fill: rgb(255, 161, 90); fill-opacity: 1; stroke: rgb(47, 79, 79); stroke-opacity: 1;"/><path class="point" transform="translate(374.7,109.25)" d="M4,0A4,4 0 1,1 0,-4A4,4 0 0,1 4,0Z" style="opacity: 0.8; stroke-width: 1px; fill: rgb(255, 161, 90); fill-opacity: 1; stroke: rgb(47, 79, 79); stroke-opacity: 1;"/><path class="point" transform="translate(381.61,97.89)" d="M4,0A4,4 0 1,1 0,-4A4,4 0 0,1 4,0Z" style="opacity: 0.8; stroke-width: 1px; fill: rgb(255, 161, 90); fill-opacity: 1; stroke: rgb(47, 79, 79); stroke-opacity: 1;"/><path class="point" transform="translate(375.63,97.71)" d="M4,0A4,4 0 1,1 0,-4A4,4 0 0,1 4,0Z" style="opacity: 0.8; stroke-width: 1px; fill: rgb(255, 161, 90); fill-opacity: 1; stroke: rgb(47, 79, 79); stroke-opacity: 1;"/><path class="point" transform="translate(377.96,90.52)" d="M4,0A4,4 0 1,1 0,-4A4,4 0 0,1 4,0Z" style="opacity: 0.8; stroke-width: 1px; fill: rgb(255, 161, 90); fill-opacity: 1; stroke: rgb(47, 79, 79); stroke-opacity: 1;"/><path class="point" transform="translate(378.79,84.5)" d="M4,0A4,4 0 1,1 0,-4A4,4 0 0,1 4,0Z" style="opacity: 0.8; stroke-width: 1px; fill: rgb(255, 161, 90); fill-opacity: 1; stroke: rgb(47, 79, 79); stroke-opacity: 1;"/><path class="point" transform="translate(377.17,80.77)" d="M4,0A4,4 0 1,1 0,-4A4,4 0 0,1 4,0Z" style="opacity: 0.8; stroke-width: 1px; fill: rgb(255, 161, 90); fill-opacity: 1; stroke: rgb(47, 79, 79); stroke-opacity: 1;"/><path class="point" transform="translate(380.33,75.86)" d="M4,0A4,4 0 1,1 0,-4A4,4 0 0,1 4,0Z" style="opacity: 0.8; stroke-width: 1px; fill: rgb(255, 161, 90); fill-opacity: 1; stroke: rgb(47, 79, 79); stroke-opacity: 1;"/><path class="point" transform="translate(376.62,61.21)" d="M4,0A4,4 0 1,1 0,-4A4,4 0 0,1 4,0Z" style="opacity: 0.8; stroke-width: 1px; fill: rgb(255, 161, 90); fill-opacity: 1; stroke: rgb(47, 79, 79); stroke-opacity: 1;"/><path class="point" transform="translate(379.47,57.77)" d="M4,0A4,4 0 1,1 0,-4A4,4 0 0,1 4,0Z" style="opacity: 0.8; stroke-width: 1px; fill: rgb(255, 161, 90); fill-opacity: 1; stroke: rgb(47, 79, 79); stroke-opacity: 1;"/><path class="point" transform="translate(380.4,36.47)" d="M4,0A4,4 0 1,1 0,-4A4,4 0 0,1 4,0Z" style="opacity: 0.8; stroke-width: 1px; fill: rgb(255, 161, 90); fill-opacity: 1; stroke: rgb(47, 79, 79); stroke-opacity: 1;"/><path class="point" transform="translate(375.98,26)" d="M4,0A4,4 0 1,1 0,-4A4,4 0 0,1 4,0Z" style="opacity: 0.8; stroke-width: 1px; fill: rgb(255, 161, 90); fill-opacity: 1; stroke: rgb(47, 79, 79); stroke-opacity: 1;"/></g></g></g></g><g class="overplot"/><path class="xlines-above crisp" d="M0,0" style="fill: none;"/><path class="ylines-above crisp" d="M0,0" style="fill: none;"/><g class="overlines-above"/><g class="xaxislayer-above"><g class="xtick"><text text-anchor="middle" x="0" y="637" transform="translate(192,0)" style="font-family: Arial, sans-serif; font-size: 16px; fill: rgb(42, 63, 95); fill-opacity: 1; white-space: pre; opacity: 1;">CD4</text></g><g class="xtick"><text text-anchor="middle" x="0" y="637" transform="translate(408,0)" style="font-family: Arial, sans-serif; font-size: 16px; fill: rgb(42, 63, 95); fill-opacity: 1; white-space: pre; opacity: 1;">CD8</text></g></g><g class="yaxislayer-above"><g class="ytick"><text text-anchor="end" x="79" y="5.6" transform="translate(0,543.0799999999999)" style="font-family: Arial, sans-serif; font-size: 16px; fill: rgb(42, 63, 95); fill-opacity: 1; white-space: pre; opacity: 1;">20</text></g><g class="ytick"><text text-anchor="end" x="79" y="5.6" style="font-family: Arial, sans-serif; font-size: 16px; fill: rgb(42, 63, 95); fill-opacity: 1; white-space: pre; opacity: 1;" transform="translate(0,439.32)">40</text></g><g class="ytick"><text text-anchor="end" x="79" y="5.6" style="font-family: Arial, sans-serif; font-size: 16px; fill: rgb(42, 63, 95); fill-opacity: 1; white-space: pre; opacity: 1;" transform="translate(0,335.56)">60</text></g><g class="ytick"><text text-anchor="end" x="79" y="5.6" style="font-family: Arial, sans-serif; font-size: 16px; fill: rgb(42, 63, 95); fill-opacity: 1; white-space: pre; opacity: 1;" transform="translate(0,231.8)">80</text></g><g class="ytick"><text text-anchor="end" x="79" y="5.6" style="font-family: Arial, sans-serif; font-size: 16px; fill: rgb(42, 63, 95); fill-opacity: 1; white-space: pre; opacity: 1;" transform="translate(0,128.04)">100</text></g></g><g class="overaxes-above"/></g></g><g class="polarlayer"/><g class="smithlayer"/><g class="ternarylayer"/><g class="geolayer"/><g class="funnelarealayer"/><g class="pielayer"/><g class="iciclelayer"/><g class="treemaplayer"/><g class="sunburstlayer"/><g class="glimages"/><defs id="topdefs-fa51d8"><g class="clips"/><clipPath id="legendfa51d8"><rect width="431" height="35" x="0" y="0"/></clipPath></defs><g class="layer-above"><g class="imagelayer"/><g class="shapelayer"/></g><g class="infolayer"><g class="legend" pointer-events="all" transform="translate(89,54.599999999999994)"><rect class="bg" shape-rendering="crispEdges" width="431" height="35" x="0" y="0" style="stroke: rgb(68, 68, 68); stroke-opacity: 1; fill: rgb(255, 255, 255); fill-opacity: 1; stroke-width: 0px;"/><g class="scrollbox" transform="" clip-path="url(#legendfa51d8)"><text class="legendtitletext" text-anchor="start" x="2" y="24.7" style="font-family: Arial, sans-serif; font-size: 19px; fill: rgb(42, 63, 95); fill-opacity: 1; white-space: pre;">Condition</text><g class="groups" transform=""><g class="traces" transform="translate(100.671875,16.9)" style="opacity: 1;"><text class="legendtext" text-anchor="start" x="40" y="6.24" style="font-family: Arial, sans-serif; font-size: 16px; fill: rgb(42, 63, 95); fill-opacity: 1; white-space: pre;">healthy</text><g class="layers" style="opacity: 1;"><g class="legendfill"/><g class="legendlines"/><g class="legendsymbols"><g class="legendpoints"><path class="legendbox" d="M4,0A4,4 0 1,1 0,-4A4,4 0 0,1 4,0Z" transform="translate(20,0)" style="opacity: 0.8; stroke-width: 1px; fill: rgb(0, 204, 150); fill-opacity: 1; stroke: rgb(47, 79, 79); stroke-opacity: 1;"/></g></g></g><rect class="legendtoggle" x="0" y="-11.9" width="102.625" height="23.8" style="fill: rgb(0, 0, 0); fill-opacity: 0;"/></g></g><g class="groups" transform="translate(105.125,0)"><g class="traces" transform="translate(100.671875,16.9)" style="opacity: 1;"><text class="legendtext" text-anchor="start" x="40" y="6.24" style="font-family: Arial, sans-serif; font-size: 16px; fill: rgb(42, 63, 95); fill-opacity: 1; white-space: pre;">synovium</text><g class="layers" style="opacity: 1;"><g class="legendfill"/><g class="legendlines"/><g class="legendsymbols"><g class="legendpoints"><path class="legendbox" d="M4,0A4,4 0 1,1 0,-4A4,4 0 0,1 4,0Z" transform="translate(20,0)" style="opacity: 0.8; stroke-width: 1px; fill: rgb(171, 99, 250); fill-opacity: 1; stroke: rgb(47, 79, 79); stroke-opacity: 1;"/></g></g></g><rect class="legendtoggle" x="0" y="-11.9" width="119.875" height="23.8" style="fill: rgb(0, 0, 0); fill-opacity: 0;"/></g></g><g class="groups" transform="translate(227.5,0)"><g class="traces" transform="translate(100.671875,16.9)" style="opacity: 1;"><text class="legendtext" text-anchor="start" x="40" y="6.24" style="font-family: Arial, sans-serif; font-size: 16px; fill: rgb(42, 63, 95); fill-opacity: 1; white-space: pre;">patient</text><g class="layers" style="opacity: 1;"><g class="legendfill"/><g class="legendlines"/><g class="legendsymbols"><g class="legendpoints"><path class="legendbox" d="M4,0A4,4 0 1,1 0,-4A4,4 0 0,1 4,0Z" transform="translate(20,0)" style="opacity: 0.8; stroke-width: 1px; fill: rgb(255, 161, 90); fill-opacity: 1; stroke: rgb(47, 79, 79); stroke-opacity: 1;"/></g></g></g><rect class="legendtoggle" x="0" y="-11.9" width="99.4375" height="23.8" style="fill: rgb(0, 0, 0); fill-opacity: 0;"/></g></g></g><rect class="scrollbar" rx="20" ry="3" width="0" height="0" x="0" y="0" style="fill: rgb(128, 139, 164); fill-opacity: 1;"/></g><g class="g-gtitle"><text class="gtitle" x="300" y="35" text-anchor="middle" dy="0.7em" style="font-family: Arial, sans-serif; font-size: 22px; fill: rgb(42, 63, 95); opacity: 1; font-weight: normal; white-space: pre;">Loop Strength of CD8 loop across samples</text></g><g class="g-xtitle"><text class="xtitle" x="300" y="668.8" text-anchor="middle" style="font-family: Arial, sans-serif; font-size: 19px; fill: rgb(42, 63, 95); opacity: 1; font-weight: normal; white-space: pre;">Cell Type</text></g><g class="g-ytitle"><text class="ytitle" transform="rotate(-90,20.653125000000003,360)" x="20.653125000000003" y="360" text-anchor="middle" style="font-family: Arial, sans-serif; font-size: 19px; fill: rgb(42, 63, 95); opacity: 1; font-weight: normal; white-space: pre;">Loop Strength</text></g></g></svg>